<?xml version="1.0" encoding="utf-8"?>
<!-- Generator: Adobe Illustrator 19.0.0, SVG Export Plug-In . SVG Version: 6.00 Build 0)  -->
<svg version="1.1" xmlns="http://www.w3.org/2000/svg" xmlns:xlink="http://www.w3.org/1999/xlink" x="0px" y="0px" viewBox="0 0 599.5 133.8" style="enable-background:new 0 0 599.5 133.8;" xml:space="preserve">
	<g>
		<path
			d="M7.8,45.8c4.8-6.2,15.8-14.3,32.9-14.3c20.4,0,33.6,11,33.6,21.9c0,6.7-4.6,11.9-12.3,11.9c-5.5,0-8-3.6-8.4-4.3
			c-0.9-1.3-1.4-2.9-2.3-4.2c-0.6-1.2-3-5.5-10.1-5.5c-12.3,0-14,11.7-14,20.4c0,2.6,0.3,8.5,2.3,13c2.8,5.8,7.1,7,11.1,7
			c6.8,0,9.4-3.5,11.3-7.1c0.7-1.3,1.3-2.8,2.2-3.9c2.5-3.5,5.9-4.8,9.7-4.8c6.4,0,11.1,4.3,11.1,11.7c0,11.7-12.3,23.9-34.8,23.9
			c-9.8,0-19.5-1.9-27.9-9.4C0.7,92.1,0,79.3,0,72.4C0,59.7,3.8,50.8,7.8,45.8z"/>
		<path
			d="M82.1,48.6c0-3.5,0.4-9.3,4.8-13.3c1.9-1.7,4.8-2.8,7.5-2.8c1.9,0,3.8,0.1,5.5,0.9c6.9,2.8,7.5,9.4,7.8,12.2
			c0.4-1,0.7-2,1.3-3c2.9-5.1,8.8-10.1,16.7-10.1c8.4,0,12.5,5.6,12.5,12.6c0,5.1-2.2,11-10,11.9c-1.2,0.1-7.4,0.3-8.7,0.4
			c-9.3,1.3-9.8,8.8-9.8,12.9v21.4c-0.1,2.9-0.1,5.6-1,8.4c-1.9,6.5-7.1,10.1-12.9,10.1c-3.5,0-7.1-1.4-9.6-4.1
			c-3.9-4.1-4.1-9.3-4.1-12.7V48.6z"/>
		<path
			d="M218.6,71.5c0,27.4-17.7,39.8-40.4,39.8c-18.2,0-26.1-7.5-29.5-11.6c-7.2-8.3-9.8-17.7-9.8-29c0-28.4,19.8-39.2,40.4-39.2
			C208.5,31.6,218.6,52.6,218.6,71.5z M166.1,71.1c0,4.8,0.4,20.3,12.7,20.3c11.7,0,12.6-12.7,12.6-19.1c0-5.8-0.9-10.6-2.6-14.3
			c-1.7-3.5-4.3-6.5-9.8-6.5C166.4,51.4,166.1,66.5,166.1,71.1z"/>
		<path
			d="M232.5,45.8c4.8-6.2,15.8-14.3,32.9-14.3c20.4,0,33.6,11,33.6,21.9c0,6.7-4.6,11.9-12.3,11.9c-5.5,0-8-3.6-8.4-4.3
			c-0.9-1.3-1.4-2.9-2.3-4.2c-0.6-1.2-3-5.5-10.1-5.5c-12.3,0-14,11.7-14,20.4c0,2.6,0.3,8.5,2.3,13c2.8,5.8,7.1,7,11.1,7
			c6.8,0,9.4-3.5,11.3-7.1c0.7-1.3,1.3-2.8,2.2-3.9c2.5-3.5,5.9-4.8,9.7-4.8c6.4,0,11.1,4.3,11.1,11.7c0,11.7-12.3,23.9-34.8,23.9
			c-9.8,0-19.5-1.9-27.9-9.4c-11.4-9.8-12.2-22.6-12.2-29.5C224.7,59.7,228.5,50.8,232.5,45.8z"/>
		<path
			d="M306.6,23.5c0-4.5,0.1-9.1,3.3-13.2c2.5-3,6.2-4.9,10.4-4.9c4.5,0,13.8,2.3,13.8,16.9v37.2l19-21.1
			c2.9-3.2,5.9-6.4,11.3-6.4c6.9,0,11,5.9,11,11c0,4.5-2.8,7.7-5.1,10.1l-10.4,10.7l15.5,23.3c1.9,2.9,3.9,5.9,3.9,10.1
			c0,7.4-6.1,12.9-13,12.9c-6.7,0-10.1-4.6-12.5-7.7l-13.8-21.4L334,87v8.5c-0.1,2.9-0.3,5.8-2.8,9.1c-1.9,2.7-5.4,5.5-10.9,5.5
			c-2.5,0-4.9-0.6-6.9-1.7c-6.4-3.6-6.8-10.3-6.8-13.2V23.5z"/>
		<path
			d="M411.6,56.8c2.2,1.2,14.2,4.8,16.8,5.6c6.8,2.3,23.3,8,23.3,24.3c0,2.6,0,24.6-33.4,24.6c-6.1,0-11.6-0.4-16.7-1.7
			c-7.4-1.7-11.9-4.8-14.3-7.1c-3.8-3.5-5.4-7.8-5.4-12c0-8.4,6.8-10.9,11-10.9c7.7,0,10.7,5.8,11.9,7.8c1.9,3.5,3.6,6.9,10.9,6.9
			c3.3,0,9.8-0.7,9.8-5.5c0-4.1-5.5-5.8-8.8-6.8c-1.6-0.6-9.4-2.9-11.1-3.5c-6.8-2.2-21.9-7-21.9-22.4c0-6.2,2.9-12.7,8.4-17.5
			c8.1-6.7,18.5-7.1,24-7.1c20,0,32.9,7.8,32.9,17.7c0,6.2-5.4,11-11.1,11c-5.9,0-9.1-4.9-10.3-6.7c-1.4-2.3-3.2-4.9-10-4.9
			c-4.8,0-8.3,1.7-8.3,4.8C409.3,54.7,409.7,55.9,411.6,56.8z"/>
		<path d="M457.7,96.7c0-7.7,6.1-13.8,13.8-13.8c7.5,0,13.6,6.1,13.6,13.8c0,7.4-6.1,13.6-13.6,13.6
			C463.7,110.3,457.7,104.1,457.7,96.7z"/>
		<path
			d="M493.7,48.4c0.1-3.3,0.3-7.2,3.5-11.1c3.3-4.1,7.5-4.6,10.1-4.6c5.9,0,13.9,3.2,13.9,16.4v48.6
			c-0.3,16.1-0.4,27.7-11.9,33.3c-5.8,2.7-13.6,2.9-15.1,2.9c-5.9,0-9.7-1.6-11.6-3.3c-2.3-2.2-3.2-5.2-3.2-8.4
			c0-9.7,7.4-10.4,9.1-10.6c4.8-0.3,5.1-1.3,5.1-8.8V48.4z M493.7,13.6c0-7.5,6.2-13.6,13.8-13.6c7.5,0,13.6,6.1,13.6,13.6
			c0,7.7-6.1,13.8-13.6,13.8C499.9,27.4,493.7,21.3,493.7,13.6z"/>
		<path
			d="M559.4,56.8c2.2,1.2,14.2,4.8,16.8,5.6c6.8,2.3,23.3,8,23.3,24.3c0,2.6,0,24.6-33.4,24.6c-6.1,0-11.6-0.4-16.7-1.7
			c-7.4-1.7-11.9-4.8-14.3-7.1c-3.8-3.5-5.4-7.8-5.4-12c0-8.4,6.8-10.9,11-10.9c7.7,0,10.7,5.8,11.9,7.8c1.9,3.5,3.6,6.9,10.9,6.9
			c3.3,0,9.8-0.7,9.8-5.5c0-4.1-5.5-5.8-8.8-6.8c-1.6-0.6-9.4-2.9-11.1-3.5c-6.8-2.2-21.9-7-21.9-22.4c0-6.2,2.9-12.7,8.4-17.5
			c8.1-6.7,18.5-7.1,24-7.1c20,0,32.9,7.8,32.9,17.7c0,6.2-5.4,11-11.1,11c-5.9,0-9.1-4.9-10.3-6.7c-1.4-2.3-3.2-4.9-10-4.9
			c-4.8,0-8.3,1.7-8.3,4.8C557.1,54.7,557.6,55.9,559.4,56.8z"/>
	</g>
</svg>
