<?xml version="1.0" standalone="no"?> 
<!DOCTYPE svg PUBLIC "-//W3C//DTD SVG 1.1//EN" "http://www.w3.org/Graphics/SVG/1.1/DTD/svg11.dtd" >
<svg xmlns="http://www.w3.org/2000/svg">
<defs>
  <font id="icon-16" horiz-adv-x="1500">
    <font-face font-family="icon-16"
      units-per-em="1440" ascent="1440"
      descent="0" />
    <missing-glyph horiz-adv-x="0" />
    <glyph glyph-name="alert"
      unicode="&#xE001;"
      horiz-adv-x="1020" d=" M991.9 555C844.1 821 843 823 695.3 1088.9C659.9 1155 590.2 1200 510 1200S360.1 1155 324.7 1088.9C177 823 175.9 821 28.1 555C10.2 524.1 0 488.3 0 450C0 334 94 240 210 240C510 240 510 240 810 240C926 240 1020 334 1020 450C1020 488.3 1009.8 524.1 991.9 555zM510 360C460.3 360 420 400.3 420 450C420 499.7 460.3 540 510 540S600 499.7 600 450C600 400.3 559.7 360 510 360zM600 737.1C600 694.5 559.7 660 510 660L510 660C460.3 660 420 694.5 420 737.1V942.9C420 985.5 460.3 1020 510 1020L510 1020C559.7 1020 600 985.5 600 942.9V737.1z" />
    <glyph glyph-name="apps"
      unicode="&#xE002;"
      horiz-adv-x="840" d=" M360 570C360 480 360 480 360 390C360 340.3 319.7 300 270 300C180 300 180 300 90 300C40.3 300 0 340.3 0 390C0 480 0 480 0 570C0 619.7 40.3 660 90 660C180 660 180 660 270 660C319.7 660 360 619.7 360 570zM750 660C660 660 660 660 570 660C520.3 660 480 619.7 480 570C480 480 480 480 480 390C480 340.3 520.3 300 570 300C660 300 660 300 750 300C799.7 300 840 340.3 840 390C840 480 840 480 840 570C840 619.7 799.7 660 750 660zM270 1140C180 1140 180 1140 90 1140C40.3 1140 0 1099.7 0 1050C0 960 0 960 0 870C0 820.3 40.3 780 90 780C180 780 180 780 270 780C319.7 780 360 820.3 360 870C360 960 360 960 360 1050C360 1099.7 319.7 1140 270 1140zM750 1140C660 1140 660 1140 570 1140C520.3 1140 480 1099.7 480 1050C480 960 480 960 480 870C480 820.3 520.3 780 570 780C660 780 660 780 750 780C799.7 780 840 820.3 840 870C840 960 840 960 840 1050C840 1099.7 799.7 1140 750 1140z" />
    <glyph glyph-name="arrow-down-rod"
      unicode="&#xE003;"
      horiz-adv-x="780" d=" M300 1049V546.3L153.6 692.6C118.5 727.7 61.5 727.7 26.3 692.6C-8.8 657.5 -8.8 600.5 26.3 565.3000000000001L326.3 265.3000000000002C361.4000000000001 230.2000000000003 418.4 230.2000000000003 453.6 265.3000000000002L753.6 565.3000000000002C771.2 582.9 780 606 780 629S771.2 675.1 753.6 692.6C718.5 727.7 661.5 727.7 626.3000000000001 692.6L480 546.3V1049C480 1098.7 439.7 1139 390 1139L390 1139C340.3 1139 300 1098.7 300 1049z" />
    <glyph glyph-name="arrow-down-short"
      unicode="&#xE004;"
      horiz-adv-x="780" d=" M746.2 739.7L746.2 739.7C605.6 627.3000000000001 586.8000000000001 612.1 446.2000000000001 499.7L446.2000000000001 499.7C430.8 487.4 411.3 480 390 480S349.2 487.4 333.8 499.7L333.8 499.7C193.2 612.1 174.4 627.3000000000001 33.8 739.7L33.8 739.7C13.2 756.2 0 781.6 0 810C0 859.7 40.3 900 90 900C111.3 900 130.8 892.6 146.2 880.3L146.2 880.3C265.5 784.9 297.2 759.5 390 685.3C482.8 759.5 514.5 784.9 633.8 880.3L633.8 880.3C649.1999999999999 892.5999999999999 668.6999999999999 900 690 900C739.7 900 780 859.7 780 810C780 781.6 766.8 756.2 746.2 739.7z" />
    <glyph glyph-name="arrow-left-rod"
      unicode="&#xE005;"
      horiz-adv-x="900" d=" M900 750L900 750C900 700.3 859.7 660 810 660H307.3L453.7 513.6C488.8000000000001 478.5 488.8000000000001 421.5 453.7 386.3C436.1 368.7000000000001 413.1 359.8999999999999 390.1 359.8999999999999S344 368.6999999999998 326.5 386.3L26.5 686.3C-8.6 721.4 -8.6 778.4 26.5 813.5999999999999L326.5 1113.6C361.6 1148.6999999999998 418.6 1148.6999999999998 453.8 1113.6C488.9 1078.5 488.9 1021.4999999999998 453.8 986.3L307.3 840H810C859.7 840 900 799.7 900 750z" />
    <glyph glyph-name="arrow-left-short"
      unicode="&#xE006;"
      horiz-adv-x="420" d=" M330 1079C379.7 1079 420 1038.7 420 989C420 967.7 412.6 948.2 400.3 932.8L400.3 932.8C304.9 813.5 279.5 781.8 205.3 689C279.5 596.2 304.9 564.5 400.3 445.2000000000001L400.3 445.2000000000001C412.6 429.8000000000001 420 410.3 420 389C420 339.3 379.7 299 330 299C301.6 299 276.2 312.2000000000001 259.7 332.8L259.7 332.8C147.3 473.4 132.1 492.1999999999999 19.7 632.8L19.7 632.8C7.4 648.2 0 667.7 0 689C0 710.3 7.4 729.8 19.7 745.2L19.7 745.2C132.1 885.8000000000001 147.3 904.6 259.7 1045.2L259.7 1045.2C276.2 1065.8 301.6 1079 330 1079z" />
    <glyph glyph-name="arrow-right-rod"
      unicode="&#xE007;"
      horiz-adv-x="899.6247394023627" d=" M90.0625434329395 839.5830437804032H593.1118832522585L446.7102154273801 986.0847810979845C411.5858234885336 1021.209173036831 411.5858234885336 1078.2487838776929 446.7102154273801 1113.4732453092424C481.8346073662265 1148.597637248089 538.8742182070882 1148.597637248089 574.0986796386378 1113.4732453092424L874.3071577484362 813.2647671994441C909.4315496872828 778.1403752605977 909.4315496872828 721.100764419736 874.3071577484362 685.8763029881864L574.0986796386378 385.6678248783881C556.486448922863 368.0555941626133 533.4704656011118 359.2494788047257 510.4544822793605 359.2494788047257S464.3224461431548 368.0555941626131 446.8102849200833 385.6678248783881C411.6858929812368 420.7922168172344 411.6858929812368 477.8318276580961 446.8102849200833 513.0562890896457L593.1118832522585 659.4579569145241H90.0625434329395C40.3280055594163 659.4579569145241 0 699.7859624739402 0 749.5205003474636L0 749.5205003474636C0 799.2550382209869 40.3280055594163 839.5830437804032 90.0625434329395 839.5830437804032z" />
    <glyph glyph-name="arrow-right-short"
      unicode="&#xE008;"
      horiz-adv-x="420" d=" M160.3 1046.2L160.3 1046.2C272.7000000000001 905.6 287.9 886.8 400.3 746.2L400.3 746.2C412.6 730.8000000000001 420 711.3000000000001 420 690S412.6 649.2 400.3 633.8L400.3 633.8C287.9 493.1999999999999 272.7000000000001 474.4 160.3 333.8L160.3 333.8C143.8 313.2000000000001 118.5 300 90 300C40.3 300 0 340.3 0 390C0 411.3 7.4 430.8 19.7 446.2000000000001L19.7 446.2000000000001C115.1 565.5 140.5 597.2 214.7 690C140.5 782.8 115.1 814.5 19.7 933.8L19.7 933.8C7.4 949.2 0 968.7 0 990C0 1039.7 40.3 1080 90 1080C118.4 1080 143.8 1066.8 160.3 1046.2z" />
    <glyph glyph-name="arrow-up-rod"
      unicode="&#xE009;"
      horiz-adv-x="780" d=" M300 329V831.7L153.6 685.4C118.5 650.3 61.5 650.3 26.3 685.4C-8.8 720.5 -8.8 777.5 26.3 812.6999999999999L326.3 1112.6999999999998C361.4000000000001 1147.8 418.4 1147.8 453.6 1112.6999999999998L753.6 812.6999999999999C771.2 795.1 780 772 780 749S771.2 702.9 753.6 685.4C718.5 650.3 661.5 650.3 626.3000000000001 685.4L480 831.7V329C480 279.3 439.7 239 390 239L390 239C340.3 239 300 279.3 300 329z" />
    <glyph glyph-name="arrow-up-short"
      unicode="&#xE00A;"
      horiz-adv-x="780" d=" M33.8 640.3L33.8 640.3C174.4 752.6999999999999 193.2 767.9 333.8 880.3L333.8 880.3C349.2 892.5999999999999 368.7 900 390 900S430.8 892.6 446.2 880.3L446.2 880.3C586.8 767.9 605.6 752.6999999999999 746.2 640.3L746.2 640.3C766.8000000000001 623.8 780 598.5 780 570C780 520.3 739.7 480 690 480C668.7 480 649.2 487.4 633.8 499.7L633.8 499.7C514.5 595.1 482.8 620.5 390 694.7C297.2 620.5 265.5 595.1 146.1999999999999 499.7L146.1999999999999 499.7C130.8 487.4 111.3 480 90 480C40.3 480 0 520.3 0 570C0 598.4 13.2 623.8 33.8 640.3z" />
    <glyph glyph-name="balloon-topic"
      unicode="&#xE00B;"
      horiz-adv-x="1020" d=" M900 1140C660 1140 360 1140 120 1140C53.7 1140 0 1086.3 0 1020C0 780 0 660 0 420C0 353.7000000000001 53.7 300 120 300C321.4 300 565 300 780 300C824.7 266.5 865.4 236 924 192C934 184.5 946.5 180 960 180C993.1 180 1020 206.9000000000001 1020 240C1020 330 1020 330 1020 420C1020 660 1020 780 1020 1020C1020 1086.3 966.3 1140 900 1140zM240 900H780C813 900 840 873 840 840S813 780 780 780H240C207 780 180 807 180 840S207 900 240 900zM480 540H240C207 540 180 567 180 600S207 660 240 660H480C513 660 540 633 540 600S513 540 480 540z" />
    <glyph glyph-name="bell-off"
      unicode="&#xE00C;"
      horiz-adv-x="1200" d=" M1157 526.1C1111.2 555.7 1015 617.9 899 693V780C899 915.6 824.1 1033.6 713.3 1095C717 1109.4 719 1124.4 719 1140C719 1239.4 638.4 1320 539 1320S359 1239.4 359 1140C359 1124.5 361 1109.4 364.7 1095C349.6 1086.6 335.1 1077.2 321.5 1066.8C239.6 1119.8 174 1162.2 138.6 1185.1C124.3 1194.5 107.3 1200 89 1200C39.3 1200 -1 1159.7 -1 1110C-1 1077.9 15.8 1049.8 41 1033.9C193.8 935 907.2 473.4 1059.4 374.9000000000001C1073.6000000000001 365.5 1090.6000000000001 360 1109 360C1158.7 360 1199 400.3 1199 450C1199 482.1 1182.2 510.2 1157 526.1zM539 1200C572.1 1200 599 1173.1 599 1140S572.1 1080 539 1080S479 1106.9 479 1140S505.9 1200 539 1200zM180 806.3C408.7 658.3 715 460 869.7 360H659C659 294 605.3 240 539 240S419 294 419 360H149C99.3 360 59 400.3 59 450S99.3 540 149 540H179V780C179 788.8 179.3 797.6 180 806.3z" />
    <glyph glyph-name="bell"
      unicode="&#xE00D;"
      horiz-adv-x="960" d=" M870 480H840V720C840 855.6 765.1 973.6 654.3 1035C658 1049.4 660 1064.4 660 1080C660 1179.4 579.4 1260 480 1260S300 1179.4 300 1080C300 1064.5 302 1049.4 305.7 1035C194.9 973.6 120 855.6 120 720V480H90C40.3 480 0 439.7000000000001 0 390L0 390C0 340.3 40.3 300 90 300H360C360 233.7000000000001 413.7 180 480 180S600 233.7000000000001 600 300H870C919.7 300 960 340.3 960 390L960 390C960 439.7000000000001 919.7 480 870 480zM480 1140C513.1 1140 540 1113.1 540 1080S513.1 1020 480 1020S420 1046.9 420 1080S446.9 1140 480 1140z" />
    <glyph glyph-name="bookmark"
      unicode="&#xE00E;"
      horiz-adv-x="720" d=" M660 1140C540 1140 180 1140 60 1140C26.9 1140 0 1113.1 0 1080C0 960 0 420 0 300C0 266.9000000000001 26.9 240 60 240C74.2 240 87.2 244.9000000000001 97.5 253.2000000000001L97.5 253.2000000000001C179 318.4000000000001 274.8 395 360 463.2C445.2 395 541 318.4000000000001 622.5 253.2000000000001L622.5 253.2000000000001C632.8 245 645.8 240 660 240C693.1 240 720 266.9000000000001 720 300C720 420 720 960 720 1080C720 1113.1 693.1 1140 660 1140z" />
    <glyph glyph-name="building"
      unicode="&#xE00F;"
      horiz-adv-x="1080" d=" M990 1260C810 1260 810 1260 630 1260C580.3 1260 540 1219.7 540 1170C540 1096.4 540 972.8 540 840C406 840 238.4 840 90 840C40.3 840 0 799.7 0 750C0 570 0 510 0 330C0 280.3 40.3 240 90 240C153.9 240 810 240 990 240C1039.7 240 1080 280.3 1080 330C1080 510 1080 990 1080 1170C1080 1219.7 1039.7 1260 990 1260zM540 360C512.6 360 468.7 360 420 360C420 397.5999999999999 420 416.1 420 480C420 513.1 393.1 540 360 540C330 540 330 540 300 540C266.9 540 240 513.1 240 480C240 416.1 240 397.5999999999999 240 360C198.8 360 165.6 360 150 360C133.4 360 120 373.4000000000001 120 390C120 450 120 630 120 690C120 706.6 133.4 720 150 720C202.5 720 453.2 720 540 720V360zM780 480C780 446.9 753.1 420 720 420S660 446.9 660 480C660 510 660 510 660 540C660 573.1 686.9 600 720 600S780 573.1 780 540C780 510 780 510 780 480zM780 720C780 686.9 753.1 660 720 660S660 686.9 660 720C660 750 660 750 660 780C660 813.1 686.9 840 720 840S780 813.1 780 780C780 750 780 750 780 720zM780 960C780 926.9 753.1 900 720 900S660 926.9 660 960C660 990 660 990 660 1020C660 1053.1 686.9 1080 720 1080S780 1053.1 780 1020C780 990 780 990 780 960zM960 480C960 446.9 933.1 420 900 420S840 446.9 840 480C840 510 840 510 840 540C840 573.1 866.9 600 900 600S960 573.1 960 540C960 510 960 510 960 480zM960 720C960 686.9 933.1 660 900 660S840 686.9 840 720C840 750 840 750 840 780C840 813.1 866.9 840 900 840S960 813.1 960 780C960 750 960 750 960 720zM960 960C960 926.9 933.1 900 900 900S840 926.9 840 960C840 990 840 990 840 1020C840 1053.1 866.9 1080 900 1080S960 1053.1 960 1020C960 990 960 990 960 960z" />
    <glyph glyph-name="bullhorn"
      unicode="&#xE010;"
      horiz-adv-x="1200" d=" M1077.5 1206.6C1010.8 1314.2 938.3 1326.5 889.2 1317.8C873.8000000000001 1315.1 856.3000000000001 1309.4 840.1 1299.5L158.1 881.4C139.9 889.1 119.9 891.6999999999999 98.4 887.9C18.2 873.6 -13 783.1 4.9 681.4S86.6 506 163 519.5C184.9 523.4 203.4 533.6 218.2 548.7L310.6 531.9000000000001C303.2000000000001 501.2 301.8 468.4000000000001 307.6 435.3000000000001C330.1 306.8000000000002 452 221.1000000000001 579.9000000000001 243.7000000000001C684.2 262.2000000000001 760.3000000000001 347.2000000000001 772.4000000000001 447.7000000000001L995.7 407C1015.3 403.2000000000001 1033.3 403.9000000000001 1049 406.5999999999999C1098.6 415.3999999999999 1163.2 451.8999999999999 1188.9 575.9999999999999C1206.1000000000001 659.0999999999999 1203.3000000000002 770.9999999999999 1180.7 899.6999999999998C1158.2 1027.7 1122.6 1133.9 1077.5 1206.6zM659.4 391.5999999999999C636.9 359.3 603.1999999999999 337.6999999999998 564.6 330.8999999999999C526 324.0999999999999 487 332.6999999999998 454.8 355.3999999999999C422.7 377.9999999999998 401.2 411.8999999999999 394.4000000000001 450.6999999999998C390.5000000000001 472.7999999999998 391.7000000000001 495.0999999999998 397.5000000000001 516.0999999999998L685.4000000000001 463.5999999999998C683.3 437.9 674.4 413.2000000000001 659.4 391.5999999999999zM1127.4 590.1C1116.1000000000001 518.7 1090.6000000000001 479 1051.9 472.2C1013.2 465.3000000000001 975.8 494.1 940.7 557.8000000000001C904.2 623.9000000000001 873.8000000000001 722.1000000000001 852.9000000000001 841.7C832.0000000000001 960.7 827.4000000000001 1063.4 839.5000000000001 1138.7C845.4000000000001 1175.2 855.0000000000001 1204 868.2000000000002 1224.2C880.6000000000001 1243.2 895.7000000000002 1254 914.3000000000002 1257.3C933.0000000000002 1260.6000000000001 950.9000000000002 1255.7 968.9000000000002 1242.2C988.1000000000003 1227.9 1006.9000000000002 1204.4 1024.8000000000002 1172.2C1061.7000000000003 1105.8000000000002 1092.4 1007.5 1113.4 887.8000000000001C1134.3 767.4 1139.2 664.5 1127.4 590.1z" />
    <glyph glyph-name="calendar"
      unicode="&#xE011;"
      horiz-adv-x="960" d=" M810 1080C808.7 1080 798 1080 780 1080V1140C780 1173.1 753.1 1200 720 1200H660C626.9 1200 600 1173.1 600 1140V1080C523.3 1080 436.7 1080 360 1080V1140C360 1173.1 333.1 1200 300 1200H240C206.9 1200 180 1173.1 180 1140V1080C162 1080 151.3 1080 150 1080C67.2 1080 0 1012.8 0 930C0 660 0 660 0 390C0 307.2000000000001 67.2 240 150 240C450 240 510 240 810 240C892.8 240 960 307.2000000000001 960 390C960 660 960 660 960 930C960 1012.8 892.8 1080 810 1080zM840 420C840 386.9000000000001 813.1 360 780 360H180C146.9 360 120 386.9000000000001 120 420V780C120 813.1 146.9 840 180 840H780C813.1 840 840 813.1 840 780V420zM600 480C600 446.9 573.1 420 540 420S480 446.9 480 480S506.9 540 540 540S600 513.1 600 480zM780 480C780 446.9 753.1 420 720 420S660 446.9 660 480S686.9 540 720 540S780 513.1 780 480zM780 660C780 626.9 753.1 600 720 600S660 626.9 660 660S686.9 720 720 720S780 693.1 780 660zM600 660C600 626.9 573.1 600 540 600S480 626.9 480 660S506.9 720 540 720S600 693.1 600 660z" />
    <glyph glyph-name="camera"
      unicode="&#xE012;"
      horiz-adv-x="1080" d=" M900 1080H840C840 1179.4 759.4 1260 660 1260H420C320.6 1260 240 1179.4 240 1080H180C80.6 1080 0 999.4 0 900V420C0 320.5999999999999 80.6 240 180 240H900C999.4 240 1080 320.5999999999999 1080 420V900C1080 999.4 999.4 1080 900 1080zM540 420C374.3 420 240 554.3 240 720S374.3 1020 540 1020S840 885.7 840 720S705.7 420 540 420zM540 540C440.6 540 360 620.6 360 720S440.6 900 540 900S720 819.4 720 720S639.4 540 540 540z" />
    <glyph glyph-name="cancel"
      unicode="&#xE013;"
      horiz-adv-x="720" d=" M693.6 513.6C728.7 478.5 728.7 421.5 693.6 386.3C676 368.7000000000001 653 359.8999999999999 630 359.8999999999999S583.9 368.6999999999998 566.4 386.3L360 592.7L153.6 386.3C136.1 368.8 113 360 90 360S43.9 368.8 26.4 386.4000000000001C-8.7 421.5000000000001 -8.7 478.5000000000001 26.4 513.7L232.7 720L26.4 926.4C-8.7 961.5 -8.7 1018.5 26.4 1053.7C61.5 1088.8 118.5 1088.8 153.7 1053.7L360 847.3L566.4 1053.6999999999998C601.5 1088.8 658.5 1088.8 693.6999999999999 1053.6999999999998C728.8 1018.6 728.8 961.6 693.6999999999999 926.4L487.3 720L693.6 513.6z" />
    <glyph glyph-name="cart"
      unicode="&#xE014;"
      horiz-adv-x="960" d=" M957.7 1004L957.7 1004C924.7 888 870.7 699 837.7 584H837.7C830.5 558 807.4000000000001 540 780 540C660 540 420 540 300 540C269.7 540 244.7 562 240.6 592H240.6C224.1 707 199 883.3 182 1002.1C162.5 1041.2 156.9 1052 142.9 1080C115.8 1080 104.2 1080 60 1080C26.9 1080 0 1106.9 0 1140S26.9 1200 60 1200C120 1200 120 1200 180 1200C203.5 1200 223.8 1186 233.7 1167H233.7C233.7 1167 233.8 1166.8 233.8 1166.7C233.9 1166.4 234.1 1166.1 234.2 1165.8C256.9 1120.3 262.3 1109.7 277.1 1079.9C429.8 1079.9 790.3 1079.9 900 1079.9C933.1 1079.9 960 1053.3 960 1020.1C960 1014.5 959.2 1009 957.7 1004zM330 420C280.3 420 240 379.7000000000001 240 330S280.3 240 330 240S420 280.3 420 330S379.7 420 330 420zM810 420C760.3 420 720 379.7000000000001 720 330S760.3 240 810 240S900 280.3 900 330S859.7 420 810 420z" />
    <glyph glyph-name="checkbox-checked"
      unicode="&#xE015;"
      horiz-adv-x="960" d=" M840 1200H120C53.7 1200 0 1146.3 0 1080V360C0 293.7000000000001 53.7 240 120 240H840C906.3 240 960 293.7000000000001 960 360V1080C960 1146.3 906.3 1200 840 1200zM360 455.1L137.6 677.6L222.5 762.5L360 624.9L737.6 1002.5L822.5 917.6L360 455.1z" />
    <glyph glyph-name="checkbox-indeterminate"
      unicode="&#xE016;"
      horiz-adv-x="960" d=" M960 1080C960 1146.3 906.3 1200 840 1200H120C53.7 1200 0 1146.3 0 1080V360C0 293.7000000000001 53.7 240 120 240H840C906.3 240 960 293.7000000000001 960 360V1080zM780 660H180V780H780V660z" />
    <glyph glyph-name="checkbox-unchecked"
      unicode="&#xE017;"
      horiz-adv-x="960" d=" M840 1140C873.1 1140 900 1113.1 900 1080V360C900 326.9000000000001 873.1 300 840 300H120C86.9 300 60 326.9000000000001 60 360V1080C60 1113.1 86.9 1140 120 1140H840M840 1200H120C53.7 1200 0 1146.3 0 1080V360C0 293.7000000000001 53.7 240 120 240H840C906.3 240 960 293.7000000000001 960 360V1080C960 1146.3 906.3 1200 840 1200L840 1200z" />
    <glyph glyph-name="checkmark"
      unicode="&#xE018;"
      horiz-adv-x="900" d=" M873.6 866.4L873.6 866.4C746.3000000000001 739.1 520.9000000000001 513.7 393.6 386.4000000000001V386.4000000000001C377.3 370.1000000000002 354.8 360 330 360C305.1 360 282.6 370.0999999999999 266.4 386.4000000000001C146.4 506.4000000000001 146.4 506.4000000000001 26.4 626.4000000000001C10.1 642.6 0 665.1 0 690C0 739.7 40.3 780 90 780C114.9 780 137.4 769.9 153.6 753.6L153.6 753.6C247.6 659.7 268 639.3 330 577.3C459.4 706.6999999999999 638.3 885.5999999999999 746.4 993.7C762.6999999999999 1010 785.1999999999999 1020.1 810 1020.1C859.7 1020.1 900 979.8 900 930.1C900 905.1 889.9 882.6 873.6 866.4z" />
    <glyph glyph-name="circle-arrow"
      unicode="&#xE019;"
      horiz-adv-x="960" d=" M960 720C960 655.2 947.3 592.4 922.3 533.1C898.0999999999999 475.9 863.5 424.6 819.5 380.5C775.4 336.4000000000001 724.1 301.8 666.9 277.7000000000001C607.6999999999999 252.7000000000001 544.8 240 480 240S352.4 252.7000000000001 293.1 277.7000000000001C235.9000000000001 301.9000000000001 184.6 336.5 140.5 380.5C117.1 403.9000000000001 117.1 441.9 140.5 465.4L455.1 780H360C326.9 780 300 806.9 300 840S326.9 900 360 900H600C633.1 900 660 873.1 660 840V600C660 566.9 633.1 540 600 540S540 566.9 540 600V695.1L271.4 426.5C331.9 383.3 404.2 360 480 360C576.2 360 666.6 397.4000000000001 734.6 465.4S840 623.8 840 720S802.6 906.6 734.6 974.6C666.6 1042.6 576.2 1080 480 1080S293.4 1042.6 225.4 974.6C157.4 906.6 120 816.2 120 720C120 688.4 124.1 657 132.2 626.8C140.8 594.8 121.7 561.9 89.7 553.3C57.7 544.6999999999999 24.8 563.8 16.2 595.8C5.5 636.1 0 677.9 0 720C0 784.8 12.7 847.6 37.7 906.9C61.9 964 96.5 1015.3 140.6 1059.4C184.7 1103.5 236 1138.1 293.2 1162.2C352.4 1187.2 415.3 1199.9 480.1 1199.9S607.7 1187.2 667 1162.2C724.2 1138 775.5 1103.4 819.6 1059.4C863.7 1015.3 898.3000000000001 964 922.4 906.8C947.3 847.6 960 784.8 960 720z" />
    <glyph glyph-name="clear"
      unicode="&#xE01A;"
      horiz-adv-x="1080" d=" M540 1260C241.8 1260 0 1018.2 0 720S241.8 180 540 180S1080 421.8 1080 720S838.2 1260 540 1260zM762.4 582.4C785.8 559 785.8 521 762.4 497.5C750.6999999999999 485.9 735.4 480 720 480S689.3 485.9 677.6 497.6L540 635.1L402.4 497.6C390.7 485.9 375.4 480 360 480S329.3 485.9 317.6 497.6C294.2000000000001 521 294.2000000000001 559 317.6 582.5L455.1 720L317.6 857.6C294.2000000000001 881 294.2000000000001 919 317.6 942.5C341 965.9 379 965.9 402.5 942.5L540 804.9L677.6 942.5C701 965.9 739 965.9 762.5 942.5C785.9 919.1 785.9 881.1 762.5 857.6L624.9 720L762.4 582.4L762.4 582.4z" />
    <glyph glyph-name="clip"
      unicode="&#xE01B;"
      horiz-adv-x="600" d=" M600 961C600 894.3 600 726.9 600 660C600 560.6 519.4 480 420 480S240 560.6 240 660C240 779.9 240 780 240 900C240 933.1 266.9 960 300 960S360 933.1 360 900C360 780 360 779.9 360 660C360 626.9 386.9 600 420 600S480 626.9 480 660C480 726.6 480 892.6 480 960C480 1059.4 399.4 1140 300 1140S120 1059.4 120 960C120 852.7 120 586.6 120 480C120 380.5999999999999 200.6 300 300 300C365.7 300 423.2 335.2000000000001 454.6 387.9000000000001C509.6 393.9000000000001 559.4 416.9000000000001 598.6 451.7C584.4 299.3 456.1 180 300 180C134.3 180 0 314.3 0 480C0 586.9 0 854.4 0 961H0C0.5 1126.2 134.6 1260 300 1260S599.4 1126.2 600 961L600 961z" />
    <glyph glyph-name="clock"
      unicode="&#xE01C;"
      horiz-adv-x="960" d=" M480 1200C214.9 1200 0 985.1 0 720S214.9 240 480 240S960 454.9 960 720S745.1 1200 480 1200zM600 600C510 600 510 600 420 600C386.9 600 360 626.9 360 660C360 756 360 804 360 900C360 933.1 386.9 960 420 960S480 933.1 480 900C480 826.2 480 780.7 480 720C518 720 536.1 720 600 720C633.1 720 660 693.1 660 660S633.1 600 600 600z" />
    <glyph glyph-name="cloud"
      unicode="&#xE01D;"
      horiz-adv-x="1080" d=" M871 360L871 360C577 360 576.5 360 240 360C107.5 360 0 467.5 0 600C0 715.1 81 811.2 189 834.6C183.1 855.4 180 877.4 180 900C180 1032.5 287.5 1140 420 1140C520.8 1140 607 1077.9 642.6 989.9C674.2 1009 711.3 1020 751 1020C867 1020 961 926 961 810C961 793.4 959.1 777.3 955.5 761.9C1028.8 729.1 1080 655.5 1080 570C1080 454.4 987 360.5999999999999 871 360z" />
    <glyph glyph-name="code-file"
      unicode="&#xE01E;"
      horiz-adv-x="1080" d=" M400.3 446.2000000000001C412.6 430.8000000000001 420 411.3 420 390C420 340.3 379.7 300 330 300C301.6 300 276.2 313.2000000000001 259.7 333.8L259.7 333.8C147.3 474.4 132.1 493.1999999999999 19.7 633.8L19.7 633.8C7.4 649.2 0 668.7 0 690S7.4 730.8 19.7 746.2L19.7 746.2C132.1 886.8000000000001 147.3 905.6 259.7 1046.2L259.7 1046.2C276.2 1066.8000000000002 301.5 1080 330 1080C379.7 1080 420 1039.7 420 990C420 968.7 412.6 949.2 400.3 933.8L400.3 933.8C304.9 814.5000000000001 279.5 782.8000000000001 205.3 690C279.5 597.2 304.8 565.5 400.3 446.2000000000001L400.3 446.2000000000001zM679.7 446.2000000000001C667.4000000000001 430.8000000000001 660 411.3 660 390C660 340.3 700.3 300 750 300C778.4 300 803.8 313.2000000000001 820.3 333.8L820.3 333.8C932.7 474.4 947.9 493.1999999999999 1060.3 633.8L1060.3 633.8C1072.6 649.1999999999999 1080 668.6999999999999 1080 690S1072.6 730.8 1060.3 746.2L1060.3 746.2C947.9 886.8000000000001 932.7 905.6 820.3 1046.2L820.3 1046.2C803.8 1066.8 778.4 1080 750 1080C700.3 1080 660 1039.7 660 990C660 968.7 667.4 949.2 679.7 933.8L679.7 933.8C775.1 814.5 800.5 782.8 874.7 690C800.5 597.2 775.2 565.5 679.7 446.2000000000001L679.7 446.2000000000001z" />
    <glyph glyph-name="command-line"
      unicode="&#xE01F;"
      horiz-adv-x="960" d=" M780 300H180C80.7 300 0 380.7000000000001 0 480V960C0 1059.3 80.7 1140 180 1140H780C879.3 1140 960 1059.3 960 960V480C960 380.7000000000001 879.3 300 780 300zM180 1020C146.9 1020 120 993.1 120 960V480C120 446.9 146.9 420 180 420H780C813.1 420 840 446.9 840 480V960C840 993.1 813.1 1020 780 1020H180zM282.4 557.6L402.4 677.6C425.8 701 425.8 739 402.4 762.5L282.4 882.5C259 905.9 221 905.9 197.5 882.5C174.1 859.1 174.1 821.1 197.5 797.6L275.1 720L197.5 642.4C174.1 619 174.1 581 197.5 557.5C209.2 545.8 224.6 539.9 239.9 539.9S270.7 545.9 282.4 557.6zM780 600C780 633.1 753.1 660 720 660H540C506.9 660 480 633.1 480 600S506.9 540 540 540H720C753.1 540 780 566.9 780 600z" />
    <glyph glyph-name="contract"
      unicode="&#xE020;"
      horiz-adv-x="960" d=" M312.5 997.6L102.4 1208.4L17.4 1123.7L227.6 912.8L59.9 745H480V1165.1L312.5 997.6zM732 577.6L899.6 745H480V325.4000000000001L647.4 493L857.2 283L942.1 367.8L732 577.6z" />
    <glyph glyph-name="cup"
      unicode="&#xE021;"
      horiz-adv-x="1200" d=" M990 960C962.4 960 936 954.6 911.8 944.9C833.9 1024.9 669.8 1080 480 1080C214.9 1080 0 972.5 0 840V780C0 514.9 214.9 300 480 300H480C664.9 300 825.3 404.5 905.5 557.7C931.4 546.3000000000001 959.9 540 990 540C1106 540 1200 634 1200 750S1106 960 990 960zM480 720C281.2 720 120 773.7 120 840S281.2 960 480 960S840 906.3 840 840S678.8 720 480 720zM990 660C974.6 660 960.1 663.9 947.5 670.7C955.7 705.8000000000001 960 742.4000000000001 960 780V834.9C969.4 838.1999999999999 979.5 840 990 840C1039.7 840 1080 799.7 1080 750S1039.7 660 990 660z" />
    <glyph glyph-name="database"
      unicode="&#xE022;"
      horiz-adv-x="840" d=" M420 1200C188 1200 0 1092.5 0 960V540C0 407.5 188 300 420 300S840 407.5 840 540V960C840 1092.5 652 1200 420 1200zM420 840C254.3 840 120 893.7 120 960S254.3 1080 420 1080S720 1026.3 720 960S585.7 840 420 840z" />
    <glyph glyph-name="download"
      unicode="&#xE023;"
      horiz-adv-x="900" d=" M900 510C900 390 900 450 900 330C900 280.3 859.7 240 810 240C630 240 270 240 90 240C40.3 240 0 280.3 0 330C0 450 0 390 0 510C0 559.7 40.3 600 90 600S180 559.7 180 510C180 450 180 435 180 420C339 420 561 420 720 420C720 435 720 450 720 510C720 559.7 760.3 600 810 600S900 559.7 900 510zM386.4 506.4C402.7 490.1 425.2 480 450 480S497.4 490.1 513.6 506.4C633.6 626.4 633.6 626.4 753.6 746.4C769.9 762.6999999999999 780 785.1999999999999 780 810C780 859.7 739.7 900 690 900C665.1 900 642.6 889.9 626.4 873.6C587.9 835.1 562 809 540 787.3C540 918.7 540 1056.3 540 1170C540 1219.6999999999998 499.7 1260 450 1260S360 1219.6999999999998 360 1170C360 1056.3 360 918.6 360 787.3C338 809 312.1 835.1999999999999 273.6 873.6999999999999C257.4 889.9 234.9 900 210 900C160.3 900 120 859.7 120 810C120 785.1 130.1 762.6 146.4 746.4C266.4 626.4 266.4 626.4 386.4 506.4z" />
    <glyph glyph-name="dribbble"
      unicode="&#xE024;"
      horiz-adv-x="960" d=" M895.6 961.2C938.8 887.5 960 806.9 960 720C960 545.6 868.1 390 721.2 304.4000000000001C647.4000000000001 261.3000000000002 566.8000000000001 240 480.0000000000001 240C305.6 240 150.0000000000001 331.9000000000001 64.4 479.4C21.2 552.5 0 633.1 0 720C0 894.4 91.9 1050 239.4 1135.6C312.5 1178.8 393.1 1200 480 1200C654.4 1200 810 1108.1 895.6 961.2zM883.8 725.6L890 724.4C888.8 821.3 857.5 906.3 796.9 980.6L796.3 980C792.5 975 788.8 970 784.4 965C776.3 954.3999999999997 744.4 923.1 713.1999999999999 899.4S625.6999999999999 841.3 568.1999999999999 818.1999999999999C578.8 796.3 587.5999999999999 776.3 595.6999999999999 758.8C597.5999999999999 753.8 601.9 741.9 604.4999999999999 737.5999999999999C634.4999999999999 741.9999999999999 667.5999999999999 743.1999999999999 696.9999999999999 743.1999999999999S755.0999999999999 741.9999999999999 780.0999999999999 740.0999999999999C805.0999999999999 737.5999999999999 827.5999999999999 735.0999999999999 845.6999999999999 732.5999999999999C863.1 729.4 875.6 727.5 883.8 725.6zM750.6 1027.5C673.8 1095.6 583.1 1130 480 1130C448.1 1130 416.2 1126.2 383.1 1118.1C437.5 1047.5 488.7 967.5 536.9000000000001 879.3C594.4000000000001 901.2 648.8000000000001 933.1 678.8000000000001 955.5C708.2 978 736.9000000000001 1008 743.2 1016.7C746.2 1021.2 748.8 1024.4 750.6 1027.5zM381.9 1118.1C381.3 1118.1 381.3 1118.1 380.7 1117.5C381.2 1118.1 381.2 1118.1 381.9 1118.1zM885 655C797.5 680 712.5 686.2 629.4 673.1C665.6 573.7 692.5 475.6 709.4 380C801.9 442.5 866.9 541.9 885 655zM457.5 854.4C407.5 943.2 356.9 1021.9 305 1090.6C190 1036.2 105.6 930 78.8 804.4C204.4 804.4 330.6 821.2 457.5 854.4zM524.4 721.9C515.6 742.5 504.4 765.6999999999999 491.3 791.3C361.9 752.5 221.3 733.1999999999999 70.6999999999999 733.1999999999999C70 730 70 725.6 70 720C70 616.9 108.1 520.6 175 446.2000000000001C216.9 520.6 283.8 588.7 341.2 628.1S453.1 696.9 485 708.7L508.1 716.8000000000001C511.2 717.5 521.2 720 524.4 721.9zM640 342.5C622.5 443.1 593.1 546.9 552.5 653.7H551.3L550.0999999999999 653.1C543.1999999999999 650.6 534.4999999999999 647.5 523.1999999999999 643.1C500.6999999999999 634.3000000000001 427 597.5 374.3999999999999 561.2S257.4999999999999 461.2 228.2 396.8L218.7999999999999 403.7000000000001C295.7 341.2000000000001 382.5999999999999 309.9000000000001 479.9999999999999 309.9000000000001C535 310 588.1 320.5999999999999 640 342.5z" />
    <glyph glyph-name="ellipsis-vertical"
      unicode="&#xE025;"
      horiz-adv-x="300" d=" M300 330C300 247.2000000000001 232.8 180 150 180S0 247.2000000000001 0 330S67.2 480 150 480S300 412.8 300 330zM150 1020C232.8 1020 300 1087.2 300 1170S232.8 1320 150 1320S0 1252.8 0 1170S67.2 1020 150 1020zM150 900C67.2 900 0 832.8 0 750S67.2 600 150 600S300 667.2 300 750S232.8 900 150 900z" />
    <glyph glyph-name="ellipsis"
      unicode="&#xE026;"
      horiz-adv-x="1320" d=" M360 720C360 620.6 279.4 540 180 540S0 620.6 0 720S80.6 900 180 900S360 819.4 360 720zM660 900C560.6 900 480 819.4 480 720S560.6 540 660 540S840 620.6 840 720S759.4 900 660 900zM1140 900C1040.6 900 960 819.4 960 720S1040.6 540 1140 540S1320 620.6 1320 720S1239.4 900 1140 900z" />
    <glyph glyph-name="expand"
      unicode="&#xE027;"
      horiz-adv-x="960" d=" M420 1200H0V780L167.7 947.7L378.6 737.5L463.3 822.5L252.6 1032.6L420 1200zM792.4 492.4L582.4 702.4L497.5 617.5L707.5 407.5L540 240H960V660L792.4 492.4z" />
    <glyph glyph-name="external"
      unicode="&#xE028;"
      horiz-adv-x="960" d=" M780 1200C480 1200 480 1200 180 1200C80.6 1200 0 1119.4 0 1020C0 720 0 720 0 420C0 320.5999999999999 80.6 240 180 240C480 240 480 240 780 240C879.4 240 960 320.5999999999999 960 420C960 720 960 720 960 1020C960 1119.4 879.4 1200 780 1200zM780 510C780 460.3 739.7 420 690 420S600 460.3 600 510C600 596.4 600 655.1 600 712.7C508.8 621.5 413.7 526.4000000000001 333.6 446.3000000000001C317.3 430.0000000000001 294.8 419.9000000000001 270 419.9000000000001C220.3 419.9000000000001 180 460.2 180 509.9000000000001C180 534.8000000000001 190.1 557.3000000000001 206.4 573.5000000000001L206.4 573.5000000000001C286.4 653.5000000000001 381.5 748.6000000000001 472.8 839.9000000000001C415.2 839.9000000000001 356.4 839.9000000000001 270.1 839.9000000000001C220.4 839.9000000000001 180.1 880.2 180.1 929.9S220.4 1019.9 270.1 1019.9C450.1 1019.9 510.1 1019.9 690.0999999999999 1019.9C739.8 1019.9 780.0999999999999 979.6000000000003 780.0999999999999 929.9C780 750 780 690 780 510z" />
    <glyph glyph-name="eye"
      unicode="&#xE029;"
      horiz-adv-x="1080" d=" M540 521C407.5 521 300 628.5 300 761S407.5 1001 540 1001S780 893.5 780 761S672.5 521 540 521zM785.7 377.4000000000001C852.4000000000001 399.8000000000002 909.6 432.6000000000002 955.6 474.9000000000001C997.8 513.7 1030.1 559.9000000000001 1051.5 612.1000000000001C1070.8 659.1000000000001 1080.5 709.2000000000002 1080.5 760.8000000000002C1080.5 812.4000000000002 1070.6 862.5000000000002 1051 909.9000000000002C1029.4 962.1000000000003 997 1008.3000000000002 954.6 1047.3000000000002C908.5 1089.7000000000003 851.3000000000001 1122.6000000000001 784.7 1145.1000000000001C713.6 1169.1000000000001 631.2 1181.3000000000002 540 1181.3000000000002C448.7 1181.3000000000002 366.5 1169.1000000000001 295.4 1145.1000000000001C228.9 1122.6000000000001 171.9 1089.7000000000003 125.8 1047.2000000000003C83.5 1008.2000000000002 51.2 962.0000000000002 29.7 909.8000000000002C10.4 862.5 0.5 812.4 0.5 760.8C0.5 567.3 141.8 341.3 540 341.3C631.8 341.3 714.5 353.5 785.7 377.4000000000001zM746.3 1031.5C796.9 1014.4 839.5999999999999 990 873.4 959C949.2 889.3 960.6 804.9 960.6 760.9C960.6 716.6999999999999 949.4 632.2 874.4 563.2C840.9 532.4000000000001 798.1999999999999 508.1 747.6 491.1C688.7 471.3000000000001 618.9000000000001 461.3000000000001 540.1 461.3000000000001C461.3 461.3000000000001 391.5 471.3000000000001 332.8 491.1C282.3 508.1 239.8 532.3000000000001 206.4 563.1C131.8 632 120.6 716.5 120.6 760.8C120.6 805 131.9 889.4 207.3 959C240.9 990 283.5 1014.3999999999997 334 1031.4C392.6 1051.2 462 1061.3 540.1 1061.3C618.2 1061.4 687.6 1051.3 746.3 1031.5z" />
    <glyph glyph-name="facebook"
      unicode="&#xE02A;"
      horiz-adv-x="960" d=" M907 1200H53C23.7 1200 0 1176.3 0 1147V293C0 263.7000000000001 23.7 240 53 240H512.8V611.8H387.7V756.6H512.8V863.5C512.8 987.5 588.5 1055 699.0999999999999 1055C752.0999999999999 1055 797.5999999999999 1051.1 810.8999999999999 1049.3V919.7L734.1999999999998 919.7C673.9999999999998 919.7 662.3999999999999 891.1 662.3999999999999 849.2V756.7H805.8999999999999L787.1999999999998 611.8000000000001H662.4V240H907C936.3 240 960 263.7000000000001 960 293V1147C960 1176.3 936.3 1200 907 1200z" />
    <glyph glyph-name="filter"
      unicode="&#xE02B;"
      horiz-adv-x="1080" d=" M1080 1050C1080 1000.3 1039.7 960 990 960C810 960 270 960 90 960C40.3 960 0 1000.3 0 1050S40.3 1140 90 1140C270 1140 810 1140 990 1140C1039.7 1140 1080 1099.7 1080 1050zM870 840C690 840 390 840 210 840C160.3 840 120 799.7 120 750S160.3 660 210 660C390 660 690 660 870 660C919.7 660 960 700.3 960 750S919.7 840 870 840zM750 540C600 540 480 540 330 540C280.3 540 240 499.7 240 450C240 400.3 280.3 360 330 360C480 360 600 360 750 360C799.7 360 840 400.3 840 450C840 499.7 799.7 540 750 540z" />
    <glyph glyph-name="flash-off"
      unicode="&#xE02C;"
      horiz-adv-x="660" d=" M660 480C660 446.9 633.1 420 600 420C582.3 420 566.4 427.7000000000001 555.4 439.9L555.4 439.9C475.1 529.1 95.7 950.7 15.4 1039.9L15.4 1039.9C5.8 1050.5 0 1064.6 0 1080C0 1113.1 26.9 1140 60 1140C77.7 1140 93.6 1132.3 104.6 1120.1L104.6 1120.1C122 1100.8 153.5 1065.8 192.9 1022C241 1108.6 285.3 1188.3 306.7 1226.7C316.5 1246.5 336.5 1260 360.1 1260C393.3 1260 420.2 1233.1 420.2 1200C420.2 1197.1 419.6 1191.4 419.6 1191.4C419.6 1191.4 382.8 934.4 369.3 840C427.2 840 449.1 840 540.4 840C573.6 840 600 813.1 600 780C600 769.4 597 759.5 592 750.9C592 750.9 567.8 707.3 532.8 644.4C583.0999999999999 588.5 623.8 543.1999999999999 644.5999999999999 520.1999999999999L644.5999999999999 520.1999999999999C654.2 509.5 660 495.4 660 480zM8 689.1C3 680.5 0 670.5 0 660C0 626.9 26.5 600 59.7 600C150.9 600 172.9 600 230.8 600C214.6 487 180.5 248.5999999999999 180.5 248.5999999999999C180.1 245.8 179.9 242.8999999999999 179.9 240C179.9 206.9000000000001 206.8 180 240 180C263.6 180 283.6 193.5999999999999 293.4 213.3C317.8 257.0999999999999 372.1 354.8 427.8 455.0999999999999C339 553.8 196 712.5999999999999 87.9 832.8C42.1 750.6 8 689.1 8 689.1z" />
    <glyph glyph-name="flash"
      unicode="&#xE02D;"
      horiz-adv-x="600" d=" M592 750.9C597 759.5 600 769.5 600 780C600 813.1 573.5 840 540.4 840C449.2 840 427.2 840 369.3 840C382.8 934.4 419.6 1191.4 419.6 1191.4C419.6 1191.4 420.2 1197.1 420.2 1200C420.2 1233.1 393.3 1260 360.1 1260C336.5 1260 316.5 1246.4 306.7 1226.7C247 1119.3 8 689.1 8 689.1C3 680.5 0 670.5 0 660C0 626.9 26.5 600 59.7 600C150.9 600 172.9 600 230.8 600C214.6 487 180.5 248.5999999999999 180.5 248.5999999999999C180.1 245.8 179.9 242.8999999999999 179.9 240C179.9 206.9000000000001 206.8 180 240 180C263.6 180 283.6 193.5999999999999 293.4 213.3C353 320.7000000000001 592 750.9 592 750.9z" />
    <glyph glyph-name="folder"
      unicode="&#xE02E;"
      horiz-adv-x="960" d=" M960 780V360C960 293.7000000000001 906.3 240 840 240H120C53.7 240 0 293.7000000000001 0 360V1020C0 1086.3 53.7 1140 120 1140H360C426.3 1140 480 1086.3 480 1020V900H840C906.3 900 960 846.3 960 780z" />
    <glyph glyph-name="fork"
      unicode="&#xE02F;"
      horiz-adv-x="960" d=" M960 990C960 1106 866 1200 750 1200S540 1106 540 990C540 915.4 578.9 850 637.4 812.7C606.7 757.4 547.7 720 480 720C431.5 720 384.3 710.5 339.8 691.6C326.1 685.8000000000001 312.8 679.2 300 671.8000000000001V920.2C370.9 953.9 420 1026.2 420 1110C420 1226 326 1320 210 1320S0 1226 0 1110C0 1026.2 49.1 953.9 120 920.2V519.8000000000001C49.1 486.1 0 413.8 0 330C0 214 94 120 210 120S420 214 420 330C420 391.7000000000001 393.4 447.1 351.1 485.6C383.8 519.1 429.4 540 480 540C528.5 540 575.7 549.5 620.2 568.4C663.1 586.5 701.6 612.5 734.6 645.5C767.6 678.5 793.5 717 811.7 759.9C816.4000000000001 770.9 820.5 782.1 824 793.5C903.4 823.3 960 900 960 990zM210 1200C259.7 1200 300 1159.7 300 1110S259.7 1020 210 1020S120 1060.3 120 1110S160.3 1200 210 1200zM210 240C160.3 240 120 280.3 120 330S160.3 420 210 420S300 379.7000000000001 300 330S259.7 240 210 240zM750 900C700.3 900 660 940.3 660 990S700.3 1080 750 1080S840 1039.7 840 990S799.7 900 750 900z" />
    <glyph glyph-name="gear"
      unicode="&#xE030;"
      horiz-adv-x="960" d=" M901.2 791.8L763.2 819.4C759.5 829.9 755.3000000000001 840.1 750.5 850L828.6 967.1C846.9 994.6 842.8000000000001 1036.1 819.5 1059.4C796.2 1082.7 754.6 1086.8 727.2 1068.5L610.1 990.4C600.2 995.2 590 999.4 579.5 1003.1000000000003L551.9 1141.1000000000001C545.3 1173.5 513 1200 480 1200S414.7 1173.5 408.2 1141.2L380.6 1003.2C370.1 999.5 359.9 995.3 350 990.5L232.9 1068.6C205.4 1086.9 163.9 1082.8 140.6 1059.5C117.3 1036.2 113.2 994.6 131.5 967.2L209.6 850.1C204.8 840.2 200.6 830 196.9 819.5L58.9 791.9C26.5 785.3 0 753 0 720S26.5 654.7 58.8 648.2L196.8 620.6C200.5 610.1 204.7 599.9 209.5 590L131.4 472.9C113.1 445.4 117.2 403.9000000000001 140.5 380.5999999999999C163.8 357.3 205.4 353.1999999999998 232.8 371.5L349.9 449.6C359.8 444.8000000000001 370 440.6 380.5 436.9L408.1 298.9000000000001C414.6 266.5 446.9000000000001 240.1000000000002 479.9 240.1000000000002S545.2 266.6000000000002 551.7 298.9000000000001L579.3000000000001 436.9000000000001C589.8000000000001 440.6000000000002 600.0000000000001 444.8000000000001 609.9000000000001 449.6000000000002L727.0000000000001 371.5000000000003C754.5000000000001 353.2000000000003 796.0000000000001 357.3000000000002 819.3000000000001 380.6000000000002C842.6 403.9000000000001 846.7 445.5000000000001 828.4000000000001 472.9000000000001L750.3000000000001 590.0000000000001C755.1 599.9000000000001 759.3000000000001 610.1000000000001 763.0000000000001 620.6000000000001L901.0000000000002 648.2000000000002C933.5 654.7 960 687 960 720S933.5 785.3 901.2 791.8zM600 720C600 653.7 546.3 600 480 600S360 653.7 360 720S413.7 840 480 840S600 786.3 600 720z" />
    <glyph glyph-name="github"
      unicode="&#xE031;"
      horiz-adv-x="960" d=" M480 1200C214.9 1200 0 985.1 0 720C0 507.9 137.5 328 328.3 264.5999999999999C352.3 260.1999999999998 361.1 275 361.1 287.6999999999998C361.1 299.0999999999999 360.7000000000001 329.2999999999998 360.5 369.2999999999998C227 340.2999999999998 198.8 433.5999999999997 198.8 433.5999999999997C177 489.0999999999997 145.5 503.7999999999997 145.5 503.7999999999997C101.9 533.5999999999997 148.8 532.9999999999998 148.8 532.9999999999998C197 529.5999999999998 222.3 483.4999999999998 222.3 483.4999999999998C265.1 410.0999999999997 334.6 431.2999999999998 362 443.5999999999998C366.4 474.5999999999998 378.8 495.7999999999998 392.5 507.7999999999998C285.8 520 173.8 561.2 173.8 745.1C173.8 797.5 192.5 840.3000000000001 223.2 873.9000000000001C218.3 886.0000000000001 201.8 934.8 227.9 1000.9C227.9 1000.9 268.2 1013.8 359.9 951.7C398.2 962.3000000000002 439.2 967.7 480.1 967.9C520.9 967.7 561.9 962.4 600.3 951.7C691.9 1013.8000000000002 732.1999999999999 1000.9 732.1999999999999 1000.9C758.4 934.8 741.9 886.0000000000001 736.9999999999999 873.9000000000001C767.7999999999998 840.3000000000001 786.2999999999998 797.5000000000001 786.2999999999998 745.1000000000001C786.2999999999998 560.7000000000002 674.0999999999998 520.1000000000001 567.0999999999999 508.2000000000002C584.3 493.4000000000002 599.6999999999999 464.1000000000001 599.6999999999999 419.3000000000002C599.6999999999999 355.1000000000002 599.0999999999999 303.4000000000001 599.0999999999999 287.6000000000002C599.0999999999999 274.8000000000002 607.6999999999999 259.8000000000002 632.0999999999999 264.5000000000003C822.6 328.2000000000001 960 508 960 720C960 985.1 745.1 1200 480 1200z" />
    <glyph glyph-name="globe"
      unicode="&#xE032;"
      horiz-adv-x="960" d=" M480 1200C214.9 1200 0 985.1 0 720S214.9 240 480 240S960 454.9 960 720S745.1 1200 480 1200zM811.8 579.9C793.6999999999999 537 767.6999999999999 498.5 734.5999999999999 465.4C701.4999999999999 432.3 662.9999999999999 406.3 620.0999999999999 388.2000000000001C613.4999999999999 385.4000000000001 606.8 382.8 599.9999999999999 380.4000000000001V481C633.0999999999999 481 659.9999999999999 507.9 659.9999999999999 541V601C693.0999999999999 601 719.9999999999999 627.9 719.9999999999999 661S693.0999999999999 721 659.9999999999999 721H599.9999999999999C566.8999999999999 721 539.9999999999999 694.1 539.9999999999999 661H420V721H360V661C360 627.9 386.9 601 420 601V541C420 507.9 446.9 481 480 481V361H507.2C498.2 360.3 489.1 360 480 360C431.3 360 384.2 369.5 339.9 388.2000000000001C297 406.3 258.5 432.3000000000001 225.4 465.4000000000001C192.3 498.5000000000001 166.3 537.0000000000001 148.2 579.9000000000001C129.5 624.2 120 671.3 120 720C120 720.3 120 720.7 120 721H360C393.1 721 420 747.9 420 781V841H480C513.1 841 540 867.9 540 901S513.1 961 480 961H450C466.6 961 480 974.4 480 991S466.6 1021 450 1021H420C420 1041.2 410 1059 394.8 1069.9C422.5 1076.6 451 1080 480 1080C528.7 1080 575.8 1070.5 620.1 1051.8C663 1033.7 701.5 1007.7 734.6 974.6C767.7 941.5 793.7 903 811.8000000000001 860.1C830.5 815.8 840 768.7 840 720S830.5 624.2 811.8 579.9z" />
    <glyph glyph-name="google"
      unicode="&#xE033;"
      horiz-adv-x="960" d=" M938.2 720C938.2 414.5 720 240 480.0000000000001 240C213.8 240 0 453.8 0 720C0 986.2 213.8 1200 480 1200C602.2 1200 711.3 1154.2 796.4 1080L656.7 940.4C608.7 979.7 547.6 1003.7 480.0000000000001 1003.7C322.9000000000001 1003.7 196.4 877.2 196.4 720.0999999999999C196.4 562.9999999999999 322.9000000000001 436.4999999999999 480.0000000000001 436.4999999999999C613.1 436.4999999999999 713.5 504.0999999999999 737.5 621.9999999999999H480V807.3H927.3C933.8 778.9 938.2 748.4 938.2 720z" />
    <glyph glyph-name="graph"
      unicode="&#xE034;"
      horiz-adv-x="960" d=" M853.3 1200H106.7C47.8 1200 0 1146.3 0 1080V360C0 293.7000000000001 47.8 240 106.7 240H853.4000000000001C912.3 240 960.1000000000003 293.7000000000001 960.1000000000003 360V1080C960 1146.3 912.2 1200 853.3 1200zM300 480C300 446.9 273.1 420 240 420L240 420C206.9 420 180 446.9 180 480V780C180 813.1 206.9 840 240 840L240 840C273.1 840 300 813.1 300 780V480zM540 480C540 446.9 513.1 420 480 420L480 420C446.9 420 420 446.9 420 480V660C420 693.1 446.9 720 480 720L480 720C513.1 720 540 693.1 540 660V480zM780 480C780 446.9 753.1 420 720 420L720 420C686.9 420 660 446.9 660 480V900C660 933.1 686.9 960 720 960L720 960C753.1 960 780 933.1 780 900V480z" />
    <glyph glyph-name="groups"
      unicode="&#xE035;"
      horiz-adv-x="900" d=" M359 960C359 860.6 278.4 780 179 780S-1 860.6 -1 960S79.6 1140 179 1140S359 1059.4 359 960zM719 780C818.4 780 899 860.6 899 960S818.4 1140 719 1140S539 1059.4 539 960S619.6 780 719 780zM179 600C79.6 600 -1 519.4 -1 420S79.6 240 179 240S359 320.5999999999999 359 420S278.4 600 179 600zM719 600C619.6 600 539 519.4 539 420S619.6 240 719 240S899 320.5999999999999 899 420S818.4 600 719 600z" />
    <glyph glyph-name="hammer"
      unicode="&#xE036;"
      horiz-adv-x="1080" d=" M1030.1 501.7L1030.1 501.7C829.4999999999999 681.6 802.5999999999999 705.7 669.6999999999999 824.9000000000001C792.6999999999999 947.9 905.6 1060.8000000000002 942.3999999999997 1097.6000000000001C953.2999999999998 1108.5 959.9999999999998 1123.5 959.9999999999998 1140C959.9999999999998 1173.1000000000001 933.1 1200 899.9999999999999 1200C816.5999999999999 1200 733.0999999999999 1200 649.6999999999998 1200C564.7999999999998 1200 487.8999999999998 1165.9 431.8999999999998 1110.7L431.8999999999998 1110.7C328.0999999999998 1008.4 255.3999999999998 936.7 202.5999999999998 884.7C206.0999999999998 881.2 209.6999999999998 877.6 213.6999999999998 873.6C229.9999999999998 857.3000000000001 240.0999999999998 834.8000000000001 240.0999999999998 810C240.0999999999998 760.3 199.7999999999998 720 150.0999999999998 720C125.1999999999998 720 102.6999999999998 730.1 86.4999999999998 746.4C82.1999999999998 750.6999999999999 78.1999999999998 754.6999999999999 74.4999999999998 758.4C53.6999999999998 737.9 39.1999999999998 723.6 17.9999999999998 702.8L17.9999999999998 702.8C6.8 691.8 0 676.7 0 660C0 643.4 6.7 628.4 17.6 617.6C102.5 532.7 112.7 522.5 197.6 437.6C208.5 426.7000000000001 223.5 420 240 420S271.6 426.7000000000001 282.4 437.6C294.1 449.3000000000001 313.6 468.8000000000001 338.8 494C335 497.8 330.8 502 326.4 506.4C310.1 522.6 300 545.1 300 570C300 619.7 340.3 660 390 660C414.9 660 437.4 649.9 453.6 633.6C458.1 629.1 462.2 625 466 621.2C475.5 630.7 485.2 640.4000000000001 495.1 650.3000000000001C614.3000000000001 517.4000000000001 638.4000000000001 490.5 818.3 289.9000000000001L818.3 289.9000000000001C845.8 259.3000000000002 885.5999999999999 240 930 240C1012.8 240 1080 307.2000000000001 1080 390C1080 434.4 1060.7 474.2 1030.1 501.7z" />
    <glyph glyph-name="hash"
      unicode="&#xE037;"
      horiz-adv-x="1080" d=" M780 780C813.1 780 840 806.9 840 840S813.1 900 780 900H720V960C720 993.1 693.1 1020 660 1020S600 993.1 600 960V900H480V960C480 993.1 453.1 1020 420 1020S360 993.1 360 960V900H300C266.9 900 240 873.1 240 840S266.9 780 300 780H360V660H300C266.9 660 240 633.1 240 600S266.9 540 300 540H360V480C360 446.9 386.9 420 420 420S480 446.9 480 480V540H600V480C600 446.9 626.9 420 660 420S720 446.9 720 480V540H780C813.1 540 840 566.9 840 600S813.1 660 780 660H720V780H780zM600 660H480V780H600V660zM900 1260C600 1260 480 1260 180 1260C80.6 1260 0 1179.4 0 1080C0 780 0 660 0 360C0 260.5999999999999 80.6 180 180 180C480 180 600 180 900 180C999.4 180 1080 260.5999999999999 1080 360C1080 660 1080 780 1080 1080C1080 1179.4 999.4 1260 900 1260zM960 420C960 353.7000000000001 906.3 300 840 300C600 300 480 300 240 300C173.7 300 120 353.7000000000001 120 420C120 660 120 780 120 1020C120 1086.3 173.7 1140 240 1140C480 1140 600 1140 840 1140C906.3 1140 960 1086.3 960 1020C960 780 960 660 960 420z" />
    <glyph glyph-name="heart-full"
      unicode="&#xE038;"
      horiz-adv-x="1020" d=" M951.6 690.4L951.6 690.4C670.8 375.2000000000001 670.8 375.2000000000001 577.2 270.0999999999999L577.2 270.0999999999999C560.7 251.5999999999999 536.7 240 510.0000000000001 240S459.3000000000001 251.5999999999999 442.8000000000001 270.0999999999999L442.8000000000001 270.0999999999999C349.2000000000001 375.1999999999998 349.2000000000001 375.1999999999998 68.4000000000001 690.3999999999999L68.4000000000001 690.3999999999999C25.9 738.1 0 801 0 870C0 1019.1 120.9 1140 270 1140C374.5 1140 465.1 1080.6 510 993.8C554.9 1080.6 645.5 1140 750 1140C899.1 1140 1020 1019.1 1020 870C1020 801 994.1 738.1 951.6 690.4z" />
    <glyph glyph-name="house"
      unicode="&#xE039;"
      horiz-adv-x="840" d=" M840 780C840 570 840 570 840 360C840 293.7000000000001 786.3 240 720 240C652.2 240 594 240 540 240V540H300V240C246 240 187.8 240 120 240C53.7 240 0 293.7000000000001 0 360C0 570 0 570 0 780C0 817.9 17.6 851.7 45 873.7L45 873.7C195 993.7 195 993.7 345 1113.7L345 1113.7C365.5 1130.2 391.6 1140 420 1140S474.4 1130.2 495 1113.7L495 1113.7C645 993.7 645 993.7 795 873.7L795 873.7C822.4 851.7 840 817.9 840 780z" />
    <glyph glyph-name="image"
      unicode="&#xE03A;"
      horiz-adv-x="1080" d=" M960 1200H120C53.7 1200 0 1146.3 0 1080V360C0 293.7000000000001 53.7 240 120 240H960C1026.3 240 1080 293.7000000000001 1080 360V1080C1080 1146.3 1026.3 1200 960 1200zM390 1020C439.7 1020 480 979.7 480 930S439.7 840 390 840S300 880.3 300 930S340.3 1020 390 1020zM180 420L360 660L480 540L660 780L900 420H180z" />
    <glyph glyph-name="info"
      unicode="&#xE03B;"
      horiz-adv-x="840" d=" M420 1140C188 1140 0 952 0 720S188 300 420 300S840 488 840 720S652 1140 420 1140zM480 540C480 506.9 453.1 480 420 480L420 480C386.9 480 360 506.9 360 540V720C360 753.1 386.9 780 420 780L420 780C453.1 780 480 753.1 480 720V540zM420 840C386.9 840 360 866.9 360 900S386.9 960 420 960S480 933.1 480 900S453.1 840 420 840z" />
    <glyph glyph-name="layout"
      unicode="&#xE03C;"
      horiz-adv-x="840" d=" M750 1140C570 1140 270 1140 90 1140C40.3 1140 0 1099.7 0 1050C0 870 0 870 0 690C0 640.3 40.3 600 90 600C270 600 570 600 750 600C799.7 600 840 640.3 840 690C840 870 840 870 840 1050C840 1099.7 799.7 1140 750 1140zM840 390C840 340.3 799.7 300 750 300C570 300 270 300 90 300C40.3 300 0 340.3 0 390S40.3 480 90 480C270 480 570 480 750 480C799.7 480 840 439.7000000000001 840 390z" />
    <glyph glyph-name="liferay-logo-2-tiny"
      unicode="&#xE03D;"
      horiz-adv-x="900" d=" M840 1200H60C26.9 1200 0 1173.1 0 1140V360C0 326.9000000000001 26.9 300 60 300H840C873.1 300 900 326.9000000000001 900 360V1140C900 1173.1 873.1 1200 840 1200zM240 600H120V720H240V600zM240 780H120V900H240V780zM240 960H120V1080H240V960zM420 420H300V540H420V420zM420 780H300V900H420V780zM420 960H300V1080H420V960zM600 420H480V540H600V420zM600 600H480V720H600V600zM600 960H480V1080H600V960zM780 420H660V540H780V420zM780 600H660V720H780V600zM780 780H660V900H780V780z" />
    <glyph glyph-name="link"
      unicode="&#xE03E;"
      horiz-adv-x="1020" d=" M1019 941.2C1019 856.7 985.4 775.6 925.6 715.8L798.1 588.4C738.4 528.6 657.3 495 572.8 495S407.2 528.6 347.4 588.4C324.2 611.6 305 637.9 290.2 666.4C290.2 666.4 414.6 776.9 417.5 777.8C419.5 769.3 422.1 761 425.5 752.8C433.5 733.4 445.2 716 460 701.0999999999999C474.9 686.1999999999999 492.3 674.5999999999999 511.7 666.5999999999999C531.1 658.5999999999999 551.7 654.4999999999999 572.7 654.4999999999999S614.3000000000001 658.5999999999999 633.7 666.5999999999999C653.1 674.5999999999999 670.5 686.3 685.4000000000001 701.0999999999999L812.9000000000001 828.5999999999999C827.8000000000001 843.4999999999999 839.4000000000001 860.8999999999999 847.4000000000001 880.3C855.4000000000001 899.6999999999999 859.5000000000001 920.3 859.5000000000001 941.3S855.4000000000001 982.9 847.4000000000001 1002.3C839.4000000000001 1021.7 827.7 1039.1 812.9000000000001 1054C798.0000000000001 1068.8999999999999 780.6000000000001 1080.5 761.2 1088.5C741.8000000000001 1096.5 721.2 1100.6 700.2 1100.6S658.6 1096.5 639.2 1088.5C619.8000000000001 1080.5 602.4000000000001 1068.8 587.5 1054L578.4 1044.8999999999999C535.6999999999999 1060.8 491 1068.8999999999999 445.2 1068.8999999999999C419.5 1068.8999999999999 394.2 1066.3999999999999 369.3 1061.3L474.8 1166.8C534.5999999999999 1226.6 615.6999999999999 1260.1999999999998 700.1999999999999 1260.1999999999998S865.8 1226.6 925.6 1166.8C985.4 1106.9 1019 1025.8 1019 941.2zM439.6 455.2L430.5 446.1C415.6 431.2000000000001 398.2 419.6 378.8 411.5999999999999C359.4000000000001 403.5999999999999 338.8 399.5 317.8 399.5C296.8 399.5 276.2 403.5999999999999 256.8 411.5999999999999C237.4 419.5999999999999 220 431.3 205.1 446.0999999999999C190.2 460.9999999999999 178.6 478.3999999999999 170.6 497.8C162.6 517.1999999999999 158.5 537.8 158.5 558.8S162.6 600.4 170.6 619.8C178.6 639.1999999999999 190.3 656.5999999999999 205.1 671.5L332.6 799C347.5 813.9 364.9000000000001 825.5 384.3 833.5C403.7 841.5 424.3 845.6 445.3 845.6C466.3 845.6 486.9 841.5 506.3 833.5C525.7 825.5 543.1 813.8 558 799C572.9 784.1 584.5 766.7 592.5 747.3C595.9 739.0999999999999 598.5 730.8 600.5 722.3C603.5 723.1999999999999 727.8 833.6999999999999 727.8 833.6999999999999C712.9 862.1999999999999 693.6999999999999 888.5999999999999 670.5999999999999 911.7C610.9 971.4 529.8 1005 445.2 1005S279.6 971.4 219.8 911.6L92.4 784.1C32.6 724.4 -1 643.3 -1 558.8S32.6 393.2000000000001 92.4 333.3999999999999C152.2 273.5999999999999 233.3 239.9999999999998 317.8 239.9999999999998S483.4 273.5999999999997 543.2 333.3999999999999L648.7 438.8999999999999C623.9000000000001 433.8999999999999 598.5 431.2999999999999 572.8000000000001 431.2999999999999C527 431.2000000000001 482.3 439.3 439.6 455.2z" />
    <glyph glyph-name="linkedin"
      unicode="&#xE03F;"
      horiz-adv-x="960" d=" M888.9 1200H70.9C31.8 1200 0 1169 0 1130.8V309.2000000000001C0 271 31.8 239.9000000000001 70.9 239.9000000000001H888.9C928 239.9000000000001 960 270.9000000000001 960 309.2000000000001V1130.8C960 1169 928 1200 888.9 1200zM284.7 382H142.3V840.1H284.7000000000001V382zM213.5 902.7C167.9 902.7 131 939.7 131 985.3C131 1030.8000000000002 167.9 1067.8000000000002 213.5 1067.8000000000002C259 1067.8000000000002 296 1030.8000000000002 296 985.3C296 939.7 259 902.7 213.5 902.7zM818 382H675.8V604.7C675.8 657.8000000000001 674.8 726.2 601.8 726.2C527.6999999999999 726.2 516.4 668.3000000000001 516.4 608.6V382H374V840.1H510.6V777.5H512.5C531.5 813.5 578 851.5 647.2 851.5C791.3000000000001 851.5 817.9000000000001 756.6 817.9000000000001 633.2V382z" />
    <glyph glyph-name="lock"
      unicode="&#xE040;"
      horiz-adv-x="960" d=" M840 840H780V960C780 1125.7 645.7 1260 480 1260H480C314.3 1260 180 1125.7 180 960V840H120C53.7 840 0 786.3 0 720V360C0 293.7000000000001 53.7 240 120 240H840C906.3 240 960 293.7000000000001 960 360V720C960 786.3 906.3 840 840 840zM540 480C540 446.9 513.1 420 480 420L480 420C446.9 420 420 446.9 420 480V600C420 633.1 446.9 660 480 660L480 660C513.1 660 540 633.1 540 600V480zM660 840H300V960C300 1008.1 318.7 1053.3 352.7 1087.3C386.7 1121.3 431.9 1140 480 1140C528.1 1140 573.3 1121.3 607.3 1087.3S660 1008.1 660 960V840z" />
    <glyph glyph-name="loop"
      unicode="&#xE041;"
      horiz-adv-x="1200" d=" M840 360L1200 720L840 1080L600.5 840L360 1080C360 1080 3 717 0 720L360 360L540 540L420 660L360 600L240 720L360 840L840 360zM840 840L960 720L840 600L720 720L840 840z" />
    <glyph glyph-name="magnifier"
      unicode="&#xE042;"
      horiz-adv-x="1020" d=" M993.6 393.5999999999999L773.8 613.5C815.7 678.9 840 756.6 840 840C840 1072 652 1260 420 1260S0 1072 0 840S188 420 420 420C503.4 420 581.1 444.3 646.5 486.2L866.4 266.3C884 248.7000000000001 907 239.8999999999999 930 239.8999999999999S976.1 248.6999999999998 993.6 266.3C1028.8 301.5 1028.8 358.5 993.6 393.5999999999999zM250.3 670.3C205 715.6 180 775.9 180 840S205 964.4 250.3 1009.7S355.9 1080 420 1080S544.4 1055 589.7 1009.7S660 904.1 660 840S635 715.6 589.7 670.3S484.1 600 420 600S295.6 625 250.3 670.3z" />
    <glyph glyph-name="mail-full"
      unicode="&#xE043;"
      horiz-adv-x="960" d=" M780 1080H180C80.6 1080 0 999.4 0 900V480C0 380.5999999999999 80.6 300 180 300H780C879.4 300 960 380.5999999999999 960 480V900C960 999.4 879.4 1080 780 1080zM810.7 788.5C708 726.9 614 670.4 511.3 608.8C502.2 603.1999999999999 491.4 600 480 600S457.8 603.2 448.7 608.8C346 670.4 252 726.9 149.3 788.5C131.7 798.9 120 818.1 120 840C120 873.1 146.9 900 180 900C191.5 900 202.2 896.8 211.3 891.2C303.7 835.8 389.1 784.5 480 730C570.9 784.6 656.3 835.8 748.7 891.2C757.8000000000001 896.8000000000001 768.6 900 780 900C813.1 900 840 873.1 840 840C840 818.1 828.3 798.9 810.7 788.5z" />
    <glyph glyph-name="mail-off"
      unicode="&#xE044;"
      horiz-adv-x="1260" d=" M1221.9 403.5C1194.2 423.5 1144.1000000000001 459.7 1080 506V900C1080 999.4 999.4 1080 900 1080H300C295.3 1080 290.6 1079.8 286 1079.5C221.1 1126.4 170.5 1162.9 142.8 1182.9C128 1193.6 109.7 1200 90 1200C40.3 1200 0 1159.7 0 1110C0 1079.6 15 1052.8 38.1 1036.5C185.9 929.7 971.2 362.5999999999999 1117.1999999999998 257.2000000000001C1131.9999999999998 246.4000000000001 1150.2999999999997 240.1000000000002 1169.9999999999998 240.1000000000002C1219.6999999999998 240.1000000000002 1259.9999999999998 280.4000000000001 1259.9999999999998 330.1000000000002C1260 360.4000000000001 1245 387.2000000000001 1221.9 403.5zM868.7 891.2C877.8000000000001 896.8000000000001 888.6 900 900 900C933.1 900 960 873.1 960 840C960 818.1 948.3 798.9 930.7 788.5C885.5 761.4 841.9000000000001 735.3 798.6 709.2C763.8000000000001 734.4000000000001 728.3000000000001 760 692.8000000000001 785.6C750.8 820.4 808.2 854.9 868.7 891.2zM120 830.6C337.2 673.8 660.4 440.4 854.7 300H300C200.6 300 120 380.5999999999999 120 480V830.6z" />
    <glyph glyph-name="markdown"
      unicode="&#xE045;"
      horiz-adv-x="1380" d=" M1260 1142H120C53.7 1142 0 1088.3 0 1022V422C0 355.7000000000001 53.7 302 120 302H1260C1326.3 302 1380 355.7000000000001 1380 422V1022C1380 1088.3 1326.3 1142 1260 1142zM780 482H600V714.7L480 594.7L360 714.7V482H180V962H360L480 842L600 962H780V482zM1080 482L900 722H1020V962H1140V722H1260L1080 482z" />
    <glyph glyph-name="menu"
      unicode="&#xE046;"
      horiz-adv-x="900" d=" M0 990C0 1039.7 40.3 1080 90 1080C270 1080 630 1080 810 1080C859.7 1080 900 1039.7 900 990S859.7 900 810 900C630 900 270 900 90 900C40.3 900 0 940.3 0 990zM810 780C630 780 270 780 90 780C40.3 780 0 739.7 0 690S40.3 600 90 600C270 600 630 600 810 600C859.7 600 900 640.3 900 690S859.7 780 810 780zM810 480C630 480 270 480 90 480C40.3 480 0 439.7000000000001 0 390S40.3 300 90 300C270 300 630 300 810 300C859.7 300 900 340.3 900 390S859.7 480 810 480z" />
    <glyph glyph-name="minus"
      unicode="&#xE047;"
      horiz-adv-x="900" d=" M90 600C40.3 600 0 640.3 0 690S40.3 780 90 780C159.9 780 740.1 780 810 780C859.7 780 900 739.7 900 690S859.7 600 810 600C740.1 600 159.9 600 90 600z" />
    <glyph glyph-name="module"
      unicode="&#xE048;"
      horiz-adv-x="960" d=" M915.3 1007.8C761.6999999999999 1100.3 613.8 1189.4 511.3 1251.2C502.1999999999999 1256.8 491.4 1260.1 479.9 1260.1S457.7 1256.9 448.5 1251.2C346 1189.4 198.1 1100.3 44.5 1007.8C17.9 992.1 0 963.2 0 930C0 750 0 690 0 510C0 476.8 17.9 447.9 44.7 432.2000000000001C198.3 339.7000000000001 346.1 250.6000000000002 448.7 188.8C457.8 183.2000000000001 468.6 179.8999999999999 480.1 179.8999999999999S502.3 183.0999999999999 511.4999999999999 188.8C614 250.5999999999999 761.9 339.7000000000001 915.5 432.2C942.2 447.8 960.2 476.8 960.2 509.9999999999999C960.2 689.9999999999999 960.2 749.9999999999999 960.2 929.9999999999998C960 963.2 942.1 992.1 915.3 1007.8zM810.7 848.5C708 786.9 614 730.4 511.3 668.8C502.2 663.1999999999999 491.4 660 480 660S457.8 663.2 448.7 668.8C346 730.4 252 786.9 149.3 848.5C131.7 858.9 120 878.1 120 900S131.7 941.1 149.3 951.5C252 1013.1 346 1069.6 448.7 1131.2C457.8 1136.8 468.6 1140 480 1140S502.2 1136.8 511.3 1131.2C614 1069.6 708 1013.1 810.7 951.5C828.2 941 840 921.9 840 900S828.3 858.9 810.7 848.5zM360 900C360 866.9 333.1 840 300 840S240 866.9 240 900S266.9 960 300 960S360 933.1 360 900zM540 780C540 746.9 513.1 720 480 720S420 746.9 420 780S446.9 840 480 840S540 813.1 540 780zM720 900C720 866.9 693.1 840 660 840S600 866.9 600 900S626.9 960 660 960S720 933.1 720 900zM540 1020C540 986.9 513.1 960 480 960S420 986.9 420 1020S446.9 1080 480 1080S540 1053.1 540 1020z" />
    <glyph glyph-name="nodejs"
      unicode="&#xE049;"
      horiz-adv-x="840" d=" M540 768.3V671.5C540 660.7 534.2 650.8 524.9 645.5L435.1 594C425.9000000000001 588.7 414.6 588.7 405.3 594L315.1 645.5C305.7000000000001 650.8 300 660.8 300 671.6V768.7C300 779.5 305.8 789.4000000000001 315.1 794.7L404.5 845.9000000000001C413.7 851.2 425 851.2 434.3 845.9000000000001L524.9 794.2C534.2 789 540 779 540 768.3zM840 773.4V942.6C840 953.4 834.2 963.3 824.9 968.7L433.9 1196.1000000000001C424.7 1201.4 413.3 1201.3 404.1 1196.1000000000001L15.1 968.7C5.8 963.3 0 953.4 0 942.6V497.4000000000001C0 486.6000000000001 5.8 476.7 15.1 471.3000000000001L405.4000000000001 243.9000000000001C414.6 238.6000000000002 425.9000000000001 238.6000000000002 435.2000000000001 243.9000000000001L616.6 352.2000000000001C636.8000000000001 363.7000000000001 636.7 392.8 616.6 404.3L255.1 610.7C245.8 616 240 626 240 636.7V803.5C240 814.3 245.8 824.2 255.1 829.5L404.4 915C413.6 920.3 424.9 920.3 434.2 915L584.9 829.1C594.3 823.8000000000001 600 813.8000000000001 600 803V670.5C600 647.5 624.9 633 644.9 644.4L824.9 747.1999999999999C834.2 752.7 840 762.6 840 773.4z" />
    <glyph glyph-name="org_chart"
      unicode="&#xE04A;"
      horiz-adv-x="960" d=" M960 360L960 360C960 260.5999999999999 879.4 180 780 180L780 180C680.6 180 600 260.5999999999999 600 360L600 360C600 438.4 650.1 505 720 529.7V660H480H240V529.7C309.9 505 360 438.3000000000001 360 360L360 360C360 260.5999999999999 279.4 180 180 180L180 180C80.6 180 0 260.5999999999999 0 360L0 360C0 438.4 50.1 505 120 529.7V660C120 726.3 173.7 780 240 780L240 780H420V910.3C350.1 935 300 1001.6 300 1080L300 1080C300 1179.4 380.6 1260 480 1260L480 1260C579.4 1260 660 1179.4 660 1080L660 1080C660 1001.6 609.9 935 540 910.3V780H720L720 780C786.3 780 840 726.3 840 660V529.7C909.9 505 960 438.4 960 360z" />
    <glyph glyph-name="pause"
      unicode="&#xE04B;"
      horiz-adv-x="720" d=" M120 300L120 300C53.7 300 0 353.7000000000001 0 420L0 1020C0 1086.3 53.7 1140 120 1140H120C186.3 1140 240 1086.3 240 1020V420C240 353.7000000000001 186.3 300 120 300zM720 420V1020C720 1086.3 666.3 1140 600 1140H600C533.7 1140 480 1086.3 480 1020V420C480 353.7000000000001 533.7 300 600 300H600C666.3 300 720 353.7000000000001 720 420z" />
    <glyph glyph-name="pen"
      unicode="&#xE04C;"
      horiz-adv-x="960" d=" M960 930C960 905.1 949.9 882.6 933.6 866.4C806.3000000000001 739.1 640.9000000000001 573.7 513.6 446.4C497.3 430.1 474.8 420 450 420C425.1 420 402.6 430.1 386.4 446.4C296.4 536.4 296.4 536.4 206.4 626.4C190.1 642.6 180 665.1 180 690C180 714.9 190.1 737.4 206.4 753.6C333.7 880.9 499.1 1046.3 626.4 1173.6C642.6999999999999 1189.9 665.1999999999999 1200 690 1200C714.9 1200 737.4 1189.9 753.6 1173.6C843.6 1083.6 843.6 1083.6 933.6 993.6C949.9 977.4 960 954.9 960 930zM111.2 591.2C105.8 596.6 98.3 600 90 600C75.4 600 63.3 589.6 60.6 575.8C48.8 517 12.7 337 0.7 276.8C0.3 274.8 0 272.5999999999999 0 270.5C0 253.7000000000001 13.7 240 30.5 240C32.7 240 34.8 240.2000000000001 36.8 240.7000000000001C96.9 252.7000000000001 276.9 288.8 335.7 300.6000000000002C349.5 303.3000000000002 359.9 315.4000000000001 359.9 330.0000000000003C359.9 338.3000000000002 356.5 345.8000000000002 351.1 351.2000000000003C308.8 393.5999999999999 153.6 548.8 111.2 591.2z" />
    <glyph glyph-name="people"
      unicode="&#xE04D;"
      horiz-adv-x="1500" d=" M540 990C540 1106 634 1200 750 1200S960 1106 960 990S866 780 750 780S540 874 540 990zM810 660C775.7 660 724.3 660 690 660C574 660 480 566 480 450C480 286.7000000000001 480 346.7000000000001 480 300C480 266.9000000000001 506.9 240 540 240C660 240 840 240 960 240C993.1 240 1020 266.9000000000001 1020 300C1020 346.7000000000001 1020 286.7000000000001 1020 450C1020 566 926 660 810 660zM180 1080C80.6 1080 0 999.4 0 900S80.6 720 180 720S360 800.6 360 900S279.4 1080 180 1080zM180 600C80.6 600 0 519.4 0 420C0 330 0 330 0 300C0 266.9000000000001 26.9 240 60 240C90 240 90 240 180 240S270 240 300 240C333.1 240 360 266.9000000000001 360 300C360 330 360 330 360 420C360 519.4 279.4 600 180 600zM1320 720C1419.4 720 1500 800.6 1500 900S1419.4 1080 1320 1080S1140 999.4 1140 900S1220.6 720 1320 720zM1320 600C1220.6 600 1140 519.4 1140 420C1140 330 1140 330 1140 300C1140 266.9000000000001 1166.9 240 1200 240C1230 240 1230 240 1320 240S1410 240 1440 240C1473.1 240 1500 266.9000000000001 1500 300C1500 330 1500 330 1500 420C1500 519.4 1419.4 600 1320 600z" />
    <glyph glyph-name="person-card"
      unicode="&#xE04E;"
      horiz-adv-x="1140" d=" M840 690C840 607.2 772.8 540 690 540S540 607.2 540 690S607.2 840 690 840S840 772.8 840 690zM1140 930C1140 660 1140 600 1140 330C1140 247.2000000000001 1072.8 180 990 180C931.6 180 448.4 180 390 180C307.2 180 240 247.2000000000001 240 330C240 362.9000000000001 240 392.5999999999999 240 420C212.6 420 182.9 420 150 420C67.2 420 0 487.2 0 570C0 840 0 900 0 1170C0 1252.8 67.2 1320 150 1320C420 1320 480 1320 750 1320C832.8 1320 900 1252.8 900 1170C900 1137.1 900 1107.4 900 1080C927.4 1080 957.1 1080 990 1080C1072.8 1080 1140 1012.8 1140 930zM390 1080C572.8 1080 659.4 1080 780 1080C780 1102.9 780 1123.2 780 1140C780 1173.1 753.1 1200 720 1200C600 1200 300 1200 180 1200C146.9 1200 120 1173.1 120 1140C120 1020 120 720 120 600C120 566.9 146.9 540 180 540C196.8 540 217.1 540 240 540C240 660.6 240 747.2 240 930C240 1012.8 307.2 1080 390 1080zM1020 900C1020 933.1 993.1 960 960 960C840 960 540 960 420 960C386.9 960 360 933.1 360 900C360 780 360 480 360 360C360 326.9000000000001 386.9 300 420 300C436.8 300 457.1 300 480 300C480 308.0999999999999 480 317.9000000000001 480 330C480 412.8 547.2 480 630 480C678 480 702 480 750 480C832.8 480 900 412.8 900 330C900 317.9000000000001 900 308.0999999999999 900 300C922.9 300 943.2 300 960 300C993.1 300 1020 326.9000000000001 1020 360C1020 480 1020 780 1020 900z" />
    <glyph glyph-name="person"
      unicode="&#xE04F;"
      horiz-adv-x="720" d=" M720 360L720 360C720 293.7000000000001 666.3 240 600 240H120C53.7 240 0 293.7000000000001 0 360V360C0 525.7 134.3 660 300 660H420C585.7 660 720 525.7 720 360zM360 720C492.5 720 600 827.5 600 960S492.5 1200 360 1200S120 1092.5 120 960S227.5 720 360 720z" />
    <glyph glyph-name="persons"
      unicode="&#xE050;"
      horiz-adv-x="1020" d=" M780 600C750 600 690 600 660 600C603.2 600 551.1 580.3 510 547.3C468.9 580.1999999999999 416.8 600 360 600C330 600 270 600 240 600C107.5 600 0 492.5 0 360C0 335.3 0 318.4000000000001 0 307.0999999999999C0 304.3999999999999 0 302.0999999999999 0 300C0 266.9000000000001 26.9 240 60 240C89.2 240 354.8 240 480 240C509.3 240 530.9 240 540 240C661.8 240 921.9 240 960 240C993.1 240 1020 266.9000000000001 1020 300C1020 305.0999999999999 1020 307 1020 307.0999999999999C1020 318.3999999999999 1020 335.3 1020 360C1020 492.5 912.5 600 780 600zM600 360C600 392.3 593.6 423.1 582 451.2C603 469.1 630.2 480 660 480C720 480 720 480 780 480C846.3 480 900 426.3 900 360H600zM300 720C390.4 720 469.1 770 510 843.8C550.9 770 629.6 720 720 720C852.5 720 960 827.5 960 960S852.5 1200 720 1200C629.6 1200 550.9 1150 510 1076.2C469.1 1150 390.4 1200 300 1200C167.5 1200 60 1092.5 60 960S167.5 720 300 720zM720 1080C786.3 1080 840 1026.3 840 960S786.3 840 720 840S600 893.7 600 960S653.7 1080 720 1080z" />
    <glyph glyph-name="phone-business"
      unicode="&#xE051;"
      horiz-adv-x="900" d=" M810 1140H360V300H810C859.7 300 900 340.3 900 390V1050C900 1099.7 859.7 1140 810 1140zM600 480H480V600H600V480zM600 660H480V780H600V660zM780 480H660V600H780V480zM780 660H660V780H780V660zM780 900H480V1020H780V900zM240 1050C240 870 240 570 240 390C240 340.3 199.7 300 150 300C90 300 150 300 90 300C40.3 300 0 340.3 0 390C0 570 0 870 0 1050C0 1099.7 40.3 1140 90 1140C150 1140 90 1140 150 1140C199.7 1140 240 1099.7 240 1050z" />
    <glyph glyph-name="phone-house"
      unicode="&#xE052;"
      horiz-adv-x="840" d=" M420 840C221.2 840 60 678.8 60 480V360H780V480C780 678.8 618.8 840 420 840zM420 480C353.7 480 300 533.7 300 600S353.7 720 420 720S540 666.3 540 600S486.3 480 420 480zM840 960C840 930 840 930 840 900C840 866.9 813.1 840 780 840C720 840 720 840 660 840C626.9 840 600 866.9 600 900C600 947.5 600 957.4 600 989.3C598 990 595.9 990.7 593.9 991.4C538.1 1010.4 479.6 1020 420 1020S301.9 1010.4 246.1 991.4C244.1 990.7 242 990 240 989.3C240 957.4 240 947.6 240 900C240 866.9 213.1 840 180 840C120 840 120 840 60 840C26.9 840 0 866.9 0 900C0 930 0 930 0 960C0 979.5 9.3 996.8 23.7 1007.8L23.7 1007.8C79.6 1049.9 141.5 1082.6 207.5 1105C275.8 1128.2 347.3 1140 420 1140S564.2 1128.2 632.5 1105C698.5 1082.6 760.4 1049.8 816.3 1007.8L816.3 1007.8C830.7 996.8 840 979.5 840 960z" />
    <glyph glyph-name="phone-work"
      unicode="&#xE053;"
      horiz-adv-x="840" d=" M833.7 453L833.7 453C837.7 461 840 470.3 840 479.9C840 506.4 823 529 799 536.9V536.9C799 536.9 798.8 537 798.7 537C798.4000000000001 537.1 798.1 537.2 797.8000000000001 537.3C709 566.9 709 567.1 619 596.9V596.9C613 598.9 606.7 600 600 600C583.4 600 568.4 593.3 557.6 582.4C504.5 529.3 498.4 523.1999999999999 456.2 481C336.7 539.6 239.6 636.7 181 756.1C223.2 798.3000000000001 229.4 804.5 282.4 857.5H282.4C293.3 868.4 300 883.4 300 899.9C300 906.5 298.9 912.9 296.9 918.9H296.9C267 1008.9 266.9 1008.9 237.3 1097.7C237.2 1098 237.1 1098.3 237 1098.6C237 1098.7 236.9 1098.9 236.9 1098.9H236.9C229 1122.9 206.4 1139.9 179.9 1139.9C170.3 1139.9 161 1137.6 153 1133.6V1133.6C93 1103.8 93.1 1103.6 34.1 1074.1C33.8 1074 33.5 1073.8 33.3 1073.7C33.2 1073.7 33 1073.6 33 1073.6V1073.6C14 1063.8 -0.1 1043.5 -0.1 1020C-0.1 1016.6 0.3 1013.2 0.8 1010C6.2 617.3 325.9000000000001 300.5999999999999 719.6999999999999 300C719.8 300 719.9 299.9000000000001 719.9999999999999 299.9000000000001C743.4999999999999 299.9000000000001 763.7999999999998 314 773.6999999999999 333H773.6999999999999C773.6999999999999 333 773.8 333.2000000000001 773.8 333.3C773.9 333.5999999999999 774.0999999999999 333.8 774.1999999999999 334C803.7 393 803.9 393 833.7 453z" />
    <glyph glyph-name="phone"
      unicode="&#xE054;"
      horiz-adv-x="600" d=" M480 1200H120C53.7 1200 0 1146.3 0 1080V420C0 353.7000000000001 53.7 300 120 300H480C546.3 300 600 353.7000000000001 600 420V1080C600 1146.3 546.3 1200 480 1200zM420 420H180V480H420V420zM480 600H120V1080H480V600z" />
    <glyph glyph-name="play"
      unicode="&#xE055;"
      horiz-adv-x="840" d=" M120 1057.6C120 1120.9 188.5 1160.5 243.3 1128.8L784.6 816C858.4 773.3 858.4 666.7 784.6 624.1L243.3000000000001 311.2000000000001C188.5000000000001 279.5 120.0000000000001 319.1000000000002 120.0000000000001 382.4000000000001V1057.6z" />
    <glyph glyph-name="plus"
      unicode="&#xE056;"
      horiz-adv-x="900" d=" M809 840C739.1 840 642 840 539 840C539 943.1 539 1040.1 539 1110C539 1159.7 498.7 1200 449 1200S359 1159.7 359 1110C359 1040.1 359 943.1 359 840C256 840 158.9 840 89 840C39.3 840 -1 799.7 -1 750S39.3 660 89 660C158.9 660 256 660 359 660C359 556.9 359 459.9 359 390C359 340.3 399.3 300 449 300S539 340.3 539 390C539 459.9 539 556.9 539 660C642 660 739.1 660 809 660C858.7 660 899 700.3 899 750S858.7 840 809 840z" />
    <glyph glyph-name="power-button"
      unicode="&#xE057;"
      horiz-adv-x="900" d=" M360 810V1170C360 1219.7 400.3 1260 450 1260S540 1219.7 540 1170V810C540 760.3 499.7 720 450 720S360 760.3 360 810zM768.2 948.2C733.1 983.3 676.1 983.3 640.9000000000001 948.2C605.8000000000001 913.1 605.8000000000001 856.1 640.9000000000001 820.9C746.3000000000001 715.5 746.3000000000001 544.5 640.9000000000001 439.0999999999999S364.5000000000001 333.6999999999998 259.1000000000001 439.0999999999999S153.7000000000001 715.4999999999999 259.1000000000001 820.8999999999999L259.1000000000001 820.8999999999999C259.3000000000001 821.0999999999999 259.6000000000001 821.3999999999999 259.8000000000001 821.5999999999999C294.9000000000001 856.6999999999999 294.9000000000001 913.7 259.8000000000001 948.8999999999997C224.7000000000001 984 167.7000000000001 984 132.5000000000001 948.8999999999997C132.3000000000001 948.7 132.0000000000001 948.3999999999997 131.8000000000001 948.2L131.8000000000001 948.2C-43.8999999999999 772.5 -43.8999999999999 487.5 131.8000000000001 311.8C307.5000000000001 136.0999999999999 592.5 136.0999999999999 768.2 311.8C943.9 487.5 943.9 772.5 768.2 948.2z" />
    <glyph glyph-name="radio-checked"
      unicode="&#xE058;"
      horiz-adv-x="960" d=" M480 1200C214.9 1200 0 985.1 0 720S214.9 240 480 240S960 454.9 960 720S745.1 1200 480 1200zM480 300C248 300 60 488 60 720S248 1140 480 1140S900 952 900 720S712 300 480 300zM780 720C780 554.3 645.7 420 480 420S180 554.3 180 720S314.3 1020 480 1020S780 885.7 780 720z" />
    <glyph glyph-name="radio-unchecked"
      unicode="&#xE059;"
      horiz-adv-x="960" d=" M480 1200C214.9 1200 0 985.1 0 720S214.9 240 480 240S960 454.9 960 720S745.1 1200 480 1200zM480 300C248 300 60 488 60 720S248 1140 480 1140S900 952 900 720S712 300 480 300z" />
    <glyph glyph-name="send"
      unicode="&#xE05A;"
      horiz-adv-x="900" d=" M835.8 613.7C626 499.3 388.8 369.9000000000001 179.1 255.5C161.7 245.5999999999999 141.5 240 120 240C53.7 240 0 293.7000000000001 0 360C0 385.0999999999999 7.7 408.3 20.8 427.6C123.2 581.2 137.9 603.3 215.8 720C137.9 836.8 123.3 858.8 20.8 1012.4C7.7 1031.7 0 1054.9 0 1080C0 1146.3 53.7 1200 120 1200C141.5 1200 161.6 1194.3 179.1 1184.5C388.8 1070.1 626 940.7 835.8 826.3C874 806.2 900 766.1 900 720S874 633.8 835.8 613.7z" />
    <glyph glyph-name="server"
      unicode="&#xE05B;"
      horiz-adv-x="840" d=" M720 660H120C53.7 660 0 606.3 0 540V420C0 353.7000000000001 53.7 300 120 300H720C786.3 300 840 353.7000000000001 840 420V540C840 606.3 786.3 660 720 660zM660 420C626.9 420 600 446.9 600 480S626.9 540 660 540S720 513.1 720 480S693.1 420 660 420zM720 1140H120C53.7 1140 0 1086.3 0 1020V900C0 833.7 53.7 780 120 780H720C786.3 780 840 833.7 840 900V1020C840 1086.3 786.3 1140 720 1140zM660 900C626.9 900 600 926.9 600 960S626.9 1020 660 1020S720 993.1 720 960S693.1 900 660 900z" />
    <glyph glyph-name="skype"
      unicode="&#xE05C;"
      horiz-adv-x="960" d=" M733.1 615.6C733.1 657.5 715 693.1 690.6 715.6C666.2 738.1 625.6 757.5 593.7 767.5C577.4000000000001 772.5 559.3000000000001 777.5 538.7 781.9L473.7 796.9C448.7000000000001 802.5 441.8000000000001 803.8 424.3000000000001 810.6999999999999C406.8000000000001 817.5999999999999 401.8000000000001 823.1999999999999 395.5000000000001 833.8C392.4000000000001 839.4 390.5000000000001 845.6999999999999 390.5000000000001 852.5C390.5000000000001 884.4 420.5000000000001 900.6 480.5000000000001 900.6C516.1 900.6 545.5 889.4 562.4000000000001 875.6C570.5000000000001 868.7 578.7 861.2 586.2 854.4C601.2 840 619.3000000000001 828.8 641.2 828.8C680.6 828.8 706.2 859.4 706.2 896.9C706.2 942.5 654.3000000000001 981.9 582.4000000000001 1001.3C546.8000000000001 1010.7 508.7000000000001 1015.7 468.7000000000001 1015.7C411.8000000000002 1015.7 358.1000000000002 1003.2 311.8000000000001 976.8999999999997C265.5000000000001 950.7 234.9000000000001 902.4999999999998 234.9000000000001 841.8999999999999C234.9000000000001 791.2999999999998 251.1000000000001 753.0999999999999 281.8000000000001 728.0999999999999S346.2000000000001 689.3999999999999 396.2000000000001 677.4999999999999L487.4 654.9999999999999C562.4000000000001 636.8999999999999 577.4000000000001 628.0999999999999 577.4000000000001 594.9999999999999C577.4000000000001 562.4999999999999 541.2 538.6999999999999 486.8000000000001 538.6999999999999C444.3000000000001 538.6999999999999 409.3000000000001 554.3 389.3000000000001 573.0999999999999C378.7000000000001 582.4999999999999 369.3000000000001 591.8 360.6000000000001 601.1999999999999C343.1 620 322.5 635 298.1 635C256.2000000000001 635 235.0000000000001 606.9 235.0000000000001 569.4C235.0000000000001 492.5 352.5 430 493.1 430C553.7 430 611.2 445.6 657.5 475C703.7 504.4 733.1 555 733.1 615.6zM960 480C960 347.5 852.5 240 720 240C665.6 240 616.9 256.9000000000001 573.8 290C541.9 283.0999999999999 510.6999999999999 280 480.1 280C360.7 280 247.6 330 168.8 408.7000000000001C90 487.5 40 600.6 40 720C40 750.6 43.1 781.9 50 813.7C16.9 856.9 0 905.6 0 960C0 1092.5 107.5 1200 240 1200C294.4 1200 343.1 1183.1 386.2 1150C418.1 1156.9 449.3 1160 479.9 1160C599.3 1160 713 1110.6 791.8 1031.9C870.6 953.1 920 839.4 920 720C920 689.4 916.9 658.1 910 626.3C943.1 583.1 960 534.4 960 480z" />
    <glyph glyph-name="speaker_off"
      unicode="&#xE05D;"
      horiz-adv-x="1080" d=" M480 1140H540V300H480L240 540H60C26.9 540 0 566.9 0 600V840C0 873.1 26.9 900 60 900H240L480 1140zM1048.3 871.7L991.7 928.3L840 776.6L688.3 928.3L631.6999999999999 871.7L783.4 720L631.7 568.3L688.3000000000001 511.6999999999999L840 663.4L991.7 511.7L1048.3 568.3000000000001L896.6 720L1048.3 871.7z" />
    <glyph glyph-name="speaker_on"
      unicode="&#xE05E;"
      horiz-adv-x="1080" d=" M480 1140H540V300H480L240 540H60C26.9 540 0 566.9 0 600V840C0 873.1 26.9 900 60 900H240L480 1140zM719.5 821.2C712 839 702.5 855.8000000000001 691.4 871.4000000000001L633.6999999999999 813.7C650.4 786.4000000000001 659.9999999999999 754.3000000000001 659.9999999999999 720S650.3999999999999 653.6 633.6999999999999 626.3L691.4 568.5999999999999C702.6 584.1999999999999 712 600.8999999999999 719.5 618.8C733.1 650.9 740 684.9 740 720S733.1 789.1 719.5 821.2zM880 720C880 771.3 869.9 821 850.1 867.9C834.6 904.5 813.8000000000001 938 788 967.9L731.2 911.1C774.2 859.2 800 792.6 800 719.9000000000001S774.2 580.6000000000001 731.2 528.7L788 472C813.8 501.9 834.7 535.5 850.1 572C869.9 619 880 668.7 880 720zM980.7 914.6C957.3 969.8 924.7 1019.8 883.4000000000001 1063.4L826.8000000000001 1006.8C897 931.7 940 830.9 940 720S897 508.3 826.8 433.2000000000001L883.4 376.6000000000002C924.6 420.2000000000002 957.3 470.1000000000001 980.7 525.4000000000001C1006.8 587 1020 652.5 1020 720S1006.8 853 980.7 914.6z" />
    <glyph glyph-name="speedometer"
      unicode="&#xE05F;"
      horiz-adv-x="960" d=" M480 1200C214.9 1200 0 985.1 0 720S214.9 240 480 240S960 454.9 960 720S745.1 1200 480 1200zM811.8 579.9C793.6999999999999 537 767.6999999999999 498.5 734.5999999999999 465.4S662.9999999999999 406.3 620.0999999999999 388.2000000000001C575.8 369.5 528.6999999999999 360 479.9999999999999 360C431.2999999999999 360 384.1999999999999 369.5 339.8999999999999 388.2000000000001C296.9999999999999 406.3 258.4999999999999 432.3000000000001 225.3999999999999 465.4000000000001C192.2999999999999 498.5000000000001 166.2999999999999 537.0000000000001 148.1999999999999 579.9000000000001C129.5 624.2 120 671.3 120 720S129.5 815.8 148.2 860.1C166.3 903 192.3 941.5 225.4 974.6C258.5 1007.7 297 1033.7 339.9 1051.8C384.2 1070.5 431.3 1080 480 1080C528.7 1080 575.8 1070.5 620.1 1051.8C663 1033.7 701.5 1007.7 734.6 974.6S793.7 903 811.8000000000001 860.1C830.5 815.8 840 768.7 840 720S830.5 624.2 811.8 579.9zM702.4 942.4C679 965.8 641 965.8 617.5 942.4L511.1 835.9C501.2 838.6 490.8 840 480 840C413.7 840 360 786.3 360 720S413.7 600 480 600S600 653.7 600 720C600 730.7 598.6 741.2 595.9 751.1L702.4 857.6C725.9 881 725.9 919 702.4 942.4zM450 960L450 960C466.6 960 480 973.4 480 990L480 990C480 1006.6 466.6 1020 450 1020H450C433.4 1020 420 1006.6 420 990L420 990C420 973.4 433.4 960 450 960zM292.1 848.5C303.8 860.2 303.8 879.2 292.1 890.9C280.4000000000001 902.6 261.4000000000001 902.6 249.7 890.9H249.7C238.0000000000001 879.1999999999999 238.0000000000001 860.1999999999999 249.7 848.5H249.7C261.4 836.8 280.4 836.8 292.1 848.5L292.1 848.5zM210 720L210 720C193.4 720 180 706.6 180 690L180 690C180 673.4 193.4 660 210 660H210C226.6 660 240 673.4 240 690L240 690C240 706.6 226.6 720 210 720zM351.5 529.1C339.8 540.8000000000001 320.8 540.8000000000001 309.1 529.1C297.4000000000001 517.4 297.4000000000001 498.4 309.1 486.7L309.1 486.7C320.8 475 339.8 475 351.5 486.7H351.5C363.2 498.4 363.2 517.4 351.5 529.1L351.5 529.1zM510 480L510 480C493.4 480 480 466.6 480 450L480 450C480 433.4 493.4 420 510 420H510C526.6 420 540 433.4 540 450L540 450C540 466.6 526.6 480 510 480zM710.3 591.5C698.5999999999999 603.2 679.5999999999999 603.2 667.9 591.5L667.9 591.5C656.1999999999999 579.8 656.1999999999999 560.8 667.9 549.1C679.6 537.4 698.6 537.4 710.3 549.1H710.3C722.1 560.8 722.1 579.8 710.3 591.5L710.3 591.5zM750 780L750 780C733.4 780 720 766.6 720 750L720 750C720 733.4 733.4 720 750 720H750C766.6 720 780 733.4 780 750L780 750C780 766.6 766.6 780 750 780z" />
    <glyph glyph-name="spinner-double-arrows"
      unicode="&#xE060;"
      horiz-adv-x="1320" d=" M1230 780C1211.2 780 1193.8 774.2 1179.3 764.4C1163.7 754 1150.8 745.4 1139.6 738C1130.2 994.7 919.1 1200 660 1200C617 1200 575.4 1194.3 535.7 1183.8L535.7 1183.7C487.7 1170.8 459.2 1121.5 472.1 1073.5C485 1025.5 534.3000000000001 997 582.3000000000001 1009.9C583.1 1010.1 583.8000000000001 1010.3 584.6 1010.6C608.7 1016.8 633.9 1020.2 659.9 1020.2C819.4 1020.2 949.7 895.8 959.3 738.8C948.4 746.0999999999999 935.8 754.5 920.6 764.5999999999999C906.2 774.4999999999999 888.6999999999999 780.1999999999999 869.8999999999999 780.1999999999999C820.1999999999998 780.1999999999999 779.8999999999999 739.9 779.8999999999999 690.1999999999999C779.8999999999999 658.6999999999999 796.0999999999999 630.9 820.6999999999998 614.8C909.6999999999998 555.5 910.1999999999998 555.0999999999999 999.1999999999998 495.8C1013.5999999999998 485.9 1031.1 480.1999999999999 1049.8999999999999 480.1999999999999C1068.6999999999998 480.1999999999999 1086.1 485.9999999999999 1100.6 495.8C1189.6 555.0999999999999 1190.1 555.5 1279.1 614.8C1303.6999999999998 630.9 1319.8999999999999 658.5999999999999 1319.8999999999999 690.1999999999999C1320 739.7 1279.7 780 1230 780zM847.9 366.5999999999999C860.8 318.5999999999999 832.3 269.1999999999998 784.3 256.3999999999999L784.3 256.3C744.7 245.7000000000001 703 240 660 240C400.9 240 189.8 445.3 180.3 702.1C169.2 694.7 156.3 686.1 140.6 675.7C126.2 665.8 108.8 660 90 660C40.3 660 0 700.3 0 750C0 781.5 16.2 809.3 40.8 825.4C129.8 884.6999999999999 130.3 885.1 219.3 944.4C233.7 954.3 251.2 960 270 960C288.8 960 306.2 954.2 320.7 944.4C409.7 885.1 410.2 884.6999999999999 499.2 825.4C523.8 809.3 540 781.6 540 750C540 700.3 499.7 660 450 660C431.2 660 413.8 665.8 399.3 675.6C384.1 685.7 371.5 694.1 360.6 701.4C370.2000000000001 544.4 500.6 420 660 420C686 420 711 423.3 735.3 429.6C736.0999999999999 429.8000000000001 736.8 430 737.5999999999999 430.3000000000001C785.7 443.1 835 414.5999999999999 847.9 366.5999999999999z" />
    <glyph glyph-name="spinner-single-arrow"
      unicode="&#xE061;"
      horiz-adv-x="960" d=" M485.5 1376.9C437.5 1364 409 1314.7 421.9 1266.7C424.5 1256.9 428.7 1247.9 434 1239.9C444.6 1224 453.3 1210.9 460.9 1199.7C204.2 1190.1 -1.1 978.9 -1 719.8C-1 676.8 4.7 635.1999999999999 15.3 595.5C70.1 390.7000000000001 257.1 239.9000000000001 479.2 239.9000000000001C744.3 240 959.1 455.0000000000001 959 720.1000000000001C959 763.1000000000001 953.3 804.8000000000002 942.7 844.4000000000001L942.6 844.4000000000001C940.6 851.8000000000001 937.6 859.1000000000001 933.6 866.1000000000001C908.7 909.1000000000003 853.7 923.9 810.7 899.0000000000001C774 877.8000000000001 757.9000000000001 834.6000000000001 769.4000000000001 795.7000000000002C775.8000000000001 771.3000000000002 779.0000000000001 746.3000000000002 779.1000000000001 720.1000000000001C779.2000000000002 554.4000000000001 644.9000000000001 420.0000000000001 479.2000000000002 420.0000000000001C340.4000000000002 419.9000000000001 223.6000000000002 514.2000000000002 189.3000000000002 642.2C182.6 667 179 693 179 719.9C178.9 879.4 303 1009.8 460.3 1019.4C452.9 1008.3 444.3 995.4 434 979.9L434 979.9C420.2 959.1 415 932.7 422 906.7C434.9 858.6999999999999 484.2 830.1999999999999 532.2 843.0999999999999C554.2 848.9999999999999 572.1 862.5999999999999 583.8000000000001 880.0999999999999L583.8000000000001 880.0999999999999C643.8000000000001 970.1 643.8000000000001 970.1 703.7 1060.1L703.7 1060.1C717.5 1080.8999999999999 722.7 1107.3 715.7 1133.3C713.1 1143.1 708.9000000000001 1152.1 703.6 1160.1C643.7 1249.8999999999999 643.6 1250 583.7 1339.8C563 1371.1 523.8 1387.2 485.5 1376.9z" />
    <glyph glyph-name="star"
      unicode="&#xE062;"
      horiz-adv-x="1080" d=" M1080 840C1080 873.1 1053.1 900 1020 900C975.8 900 850.2 900 703.2 900C654.7 1045.6 612.3000000000001 1172.6 597.3000000000001 1217.8C597.2 1218.1 597.1 1218.4 597.0000000000001 1218.7C597.0000000000001 1218.8 596.9000000000001 1218.9 596.9000000000001 1219L596.9000000000001 1219C589.0000000000001 1242.8 566.5000000000001 1260 540.0000000000001 1260S491.0000000000001 1242.8 483.1000000000001 1219L483.1000000000001 1219C483.1000000000001 1218.9 483.0000000000001 1218.8 483.0000000000001 1218.7C482.9000000000001 1218.4 482.8000000000001 1218.1 482.7000000000001 1217.7C467.6000000000001 1172.5 425.3000000000002 1045.5 376.8000000000001 899.9C229.8000000000001 899.9 104.2000000000001 899.9 60.0000000000001 899.9C26.9000000000001 899.9 1e-13 873 1e-13 839.9C1e-13 819.5 10.2000000000001 801.4 25.9000000000001 790.6L25.9000000000001 790.6C26.1000000000001 790.5 26.2000000000001 790.4 26.4000000000001 790.2C26.4000000000001 790.2 26.5000000000001 790.1 26.5000000000001 790.1C63.2000000000001 764.7 163.7000000000001 695.1 281.4000000000001 613.7C235.9000000000001 477.1 197.0000000000001 360.6000000000002 183.1000000000001 318.9000000000001L183.1000000000001 318.9000000000001C181.1000000000001 312.9000000000001 180.0000000000001 306.6000000000002 180.0000000000001 299.9000000000001C180.0000000000001 266.8000000000002 206.9000000000001 239.9000000000001 240.0000000000001 239.9000000000001C252.7000000000001 239.9000000000001 264.5000000000001 243.9000000000001 274.1000000000001 250.6000000000002L274.1000000000001 250.6000000000002C311.3000000000001 276.3000000000002 417.1000000000001 349.6000000000002 539.9000000000001 434.6000000000002C662.7 349.6000000000002 768.6000000000001 276.3000000000002 805.7 250.6000000000002L805.7 250.6000000000002C815.4000000000001 243.9000000000001 827.2 239.9000000000001 839.8000000000001 239.9000000000001C872.9000000000001 239.9000000000001 899.8000000000001 266.8000000000002 899.8000000000001 299.9000000000001C899.8000000000001 306.5 898.7 312.9000000000001 896.7 318.9000000000001L896.7 318.9000000000001C882.8000000000001 360.6000000000002 844 477.1000000000001 798.4000000000001 613.7C916.1000000000003 695.2 1016.6000000000003 764.8000000000001 1053.3000000000002 790.1C1053.3000000000002 790.1 1053.4 790.2 1053.4 790.2C1053.6000000000001 790.3000000000001 1053.7 790.4000000000001 1053.9 790.6L1053.9 790.6C1069.8 801.5 1080 819.6 1080 840z" />
    <glyph glyph-name="streams"
      unicode="&#xE063;"
      horiz-adv-x="960" d=" M120 1140V1020H0V240H840V360H960V1140H120zM780 300H60V960H120V360H780V300zM900 420H180V1080H900V420zM420 840H240V1020H420V840zM420 600H240V780H420V600zM840 960H480V1020H840V960zM840 840H480V900H840V840zM840 720H480V780H840V720zM840 600H480V660H840V600zM840 480H240V540H840V480z" />
    <glyph glyph-name="swift"
      unicode="&#xE064;"
      horiz-adv-x="960" d=" M724.1 419.5C611 354.2000000000001 455.5 347.5 299.1 414.5C172.5 468.4 67.4 562.7 0 670.5C32.3 643.6 70.1 622 110.5 603.1C272 527.4 433.6 532.6 547.2 602.9C547.1 603 547.1 603 547 603.1C385.3 727.1 247.9 888.7 145.5 1020.8C123.9 1042.4 107.8 1069.3 91.6 1093.6C215.6 980.4 412.3 837.6 482.3 797.2C334.2 953.5 202.1 1147.5 207.5 1142.1C441.9 905 660.2 770.2 660.2 770.2C667.4000000000001 766.1 673 762.7 677.5 759.7C682.2 771.7 686.4 784.2 689.9 797.1C727.6 934.5 684.5 1090.8 590.1999999999999 1220.2C808.5 1088.2 937.8 840.2 883.8999999999999 632.7C882.4999999999999 627.1 880.9999999999999 621.6 879.2999999999998 616.2C879.8999999999999 615.4000000000001 880.5999999999998 614.7 881.1999999999998 613.9000000000001C988.9999999999998 479.2 959.2999999999998 336.3000000000002 945.8999999999997 363.3000000000002C887.4 477.7 779.1 442.7000000000001 724.1 419.5L724.1 419.5z" />
    <glyph glyph-name="table"
      unicode="&#xE065;"
      horiz-adv-x="960" d=" M960 1080C960 1146.3 906.3 1200 840 1200H120C53.7 1200 0 1146.3 0 1080V360C0 293.7000000000001 53.7 240 120 240H840C906.3 240 960 293.7000000000001 960 360V1080zM780 780H540V1020H780V780zM420 1020V780H180V1020H420zM180 660H420V420H180V660zM540 420V660H780V420H540z" />
    <glyph glyph-name="tag"
      unicode="&#xE066;"
      horiz-adv-x="960" d=" M933.6 753.6C806.3000000000001 880.9 640.9000000000001 1046.3 513.6 1173.6C497.4 1189.9 474.9 1200 450 1200C270 1200 270 1200 90 1200C40.3 1200 0 1159.7 0 1110C0 930 0 930 0 750C0 725.1 10.1 702.6 26.4 686.4C153.7 559.1 319.1 393.7000000000001 446.4 266.4000000000001C462.7 250.1000000000002 485.2 240 510 240C534.9 240 557.4 250.0999999999999 573.6 266.4000000000001C700.9 393.7000000000001 806.3 499.1000000000001 933.6 626.4000000000001C949.9 642.7 960 665.2 960 690.0000000000001S949.9 737.4 933.6 753.6zM270 840C220.3 840 180 880.3 180 930S220.3 1020 270 1020S360 979.7 360 930S319.7 840 270 840z" />
    <glyph glyph-name="thumb-down"
      unicode="&#xE067;"
      horiz-adv-x="780" d=" M780 780C780 746.9 753.1 720 720 720H660C626.9 720 600 746.9 600 780V1080C600 1113.1 626.9 1140 660 1140H720C753.1 1140 780 1113.1 780 1080V780zM0 660C0 626.9 26.9 600 60 600C176.9 600 206.8 600 290.9 600C261.6 466 259.7 456.6 241.4 372.8L241.4 372.8C240.5 368.7000000000001 240 364.3999999999999 240 360L300 300C320 300 337.8 309.8 348.7 324.9000000000001L348.7 324.9000000000001C404.9 402.8000000000002 404.9 402.9000000000001 517.2 558.6000000000001C531.6 578.4000000000001 540 602.7000000000002 540 629.0000000000001C540 869.0000000000001 540 960.0000000000002 540 1080C540 1113.1000000000001 513.1 1140 480 1140H240C223.4 1140 208.4 1133 197.6 1122H197.8C167.8 1092 168 1092.4 138 1062.4V1062.4C131 1055.9 126.1 1048 123.1 1039H123.1C123.1 1039 123 1038.8000000000002 123 1038.7C122.9 1038.4 122.8 1038.1000000000001 122.7 1037.8000000000002C94.7 953.7000000000002 93.1 948.9 67.6 872.5000000000001C47.1 852.0000000000001 43.8 848.7000000000002 17.6 822.5000000000001L17.6 822.5000000000001C6.7 811.6 0 796.6 0 780V660z" />
    <glyph glyph-name="thumb-up"
      unicode="&#xE068;"
      horiz-adv-x="780" d=" M180 660V360C180 326.9000000000001 153.1 300 120 300H60C26.9 300 0 326.9000000000001 0 360V660C0 693.1 26.9 720 60 720H120C153.1 720 180 693.1 180 660zM780 780C780 813.1 753.1 840 720 840C603.1 840 573.2 840 489.1 840C518.4 974.4 520.3000000000001 983.4 538.6 1067.2L538.6 1067.2C539.5 1071.3 540 1075.6 540 1080L480 1140C460 1140 442.2 1130.2 431.3 1115.1L431.3 1115.1C375.1 1037.2 375.1 1037.1 262.8 881.4000000000001C248.5 861.6 240 837.3 240 811C240 571 240 480 240 360C240 326.9000000000001 266.9 300 300 300H540C556.6 300 571.6 307 582.4 318H582.1999999999999C612.1999999999999 348 611.9999999999999 347.5999999999999 641.9999999999999 377.5999999999999V377.5999999999999C648.9999999999999 384.0999999999999 653.8999999999999 392 656.8999999999999 401H656.8999999999999C656.8999999999999 401 656.9999999999999 401.2000000000001 656.9999999999999 401.3C657.0999999999999 401.5999999999999 657.1999999999999 401.8999999999999 657.2999999999998 402.2000000000001C685.2999999999998 486.3000000000001 686.8999999999999 491.1 712.3999999999999 567.5C732.8999999999999 588 736.1999999999998 591.3 762.3999999999999 617.5L762.3999999999999 617.5C773.2999999999998 628.4 779.9999999999999 643.4 779.9999999999999 659.9V780z" />
    <glyph glyph-name="trash"
      unicode="&#xE069;"
      horiz-adv-x="900" d=" M123 780H780V300C780 233.7000000000001 726.5 180 660.2 180H243.4C177.1 180 123 233.7000000000001 123 300V780zM900.2 930C900.2 880.3 859.9000000000001 840 810.2 840H90.2000000000001C40.5 840 0.2 880.3 0.2 930S40.5 1020 90.2000000000001 1020H242.3000000000001C240.9000000000001 1029.8 240.2000000000001 1039.8 240.2000000000001 1050C240.2000000000001 1166 334.2000000000001 1260 450.2000000000001 1260S660.2 1166 660.2 1050C660.2 1039.8 659.5 1029.8 658.1 1020H810.2C859.9 1020 900.2 979.7 900.2 930zM540.2 1050C540.2 1074 530.8000000000001 1096.6 513.8000000000001 1113.6C496.8000000000001 1130.6 474.2 1140 450.2000000000001 1140S403.6 1130.6 386.6 1113.6C369.6 1096.6 360.2000000000001 1074 360.2000000000001 1050C360.2000000000001 1039.6 362.0000000000001 1029.5 365.3000000000001 1020H535.1000000000001C538.5 1029.5 540.2 1039.6 540.2 1050z" />
    <glyph glyph-name="twitter"
      unicode="&#xE06A;"
      horiz-adv-x="960" d=" M960 1047.4C932.6 1007.8 899.7 973.7 861.3 945.6C861.9 940.1 861.9 931.6 861.9 920C861.9 814.6 831.4 707.3 768.6999999999999 610.4C705.3 513.5 621.3 437.3 498.8999999999999 393.5C437.3999999999999 371 372.2 360 302.0999999999999 360C191.7999999999999 360 91.2999999999999 389.2000000000001 -1e-13 448.4C13.9999999999999 446.6 29.7999999999999 446 47.4999999999999 446C138.8999999999999 446 220.4999999999999 474 291.7999999999999 530.1C206.4999999999999 531.9 132.7999999999999 588 107.7999999999999 666.6C121.1999999999999 664.8000000000001 133.3999999999999 663.6 144.9999999999999 663.6C162.6999999999999 663.6 179.6999999999999 666 196.7999999999999 670.3000000000001C106 689.1 39 768.3 39 863.3V865.6999999999999C66.4 850.4999999999999 96.3 841.9 127.9 840.6999999999999C74.3 876.6999999999999 40.2 937 40.2 1004.6C40.2 1040.6 49.3 1073.5 67 1103.8999999999999C165.1 982.6 311.9 905.8999999999997 472.7 897.8999999999999C469.7 913.1 467.8 928.3999999999997 467.8 942.9999999999998C467.8 1052.1 555.5 1139.8 664.6 1139.8C721.2 1139.8 769.4 1119.1 808.4000000000001 1077.6C852.9000000000001 1086.1 894.3000000000001 1102 933.3 1125.1C918.1 1078.1999999999998 889.4000000000001 1042.1999999999998 846.8000000000001 1016.6C884.5 1021.2 922.2 1030.9 960 1047.4z" />
    <glyph glyph-name="upload-file"
      unicode="&#xE06B;"
      horiz-adv-x="840" d=" M804.9 984.9C684.9 1104.9 684.9 1104.9 564.9 1224.9C543.1 1246.6 513.1 1260 480 1260C240 1260 360 1260 120 1260C53.7 1260 0 1206.3 0 1140C0 900 0 540 0 300C0 233.7000000000001 53.7 180 120 180C213.5 180 289 180 360 180C360 259.8 360 363.5 360 455.1C355 449.8000000000001 348.9 444 342.4 437.5C331.5 426.6 316.5 419.9 300 419.9C266.9 419.9 240 446.8 240 479.9C240 496.5 246.7 511.5 257.6 522.3C317.6 582.3 317.6 582.3 377.6 642.3C388.5 653.1999999999999 403.5 659.9 420 659.9S451.6 653.1999999999999 462.4 642.3C522.4 582.3 522.4 582.3 582.4 522.3C593.3 511.4 600 496.4 600 479.9C600 446.8 573.1 419.9 540 419.9C523.4 419.9 508.4 426.6 497.6 437.5C491.1 444 485 449.8 480 455.1C480 363.5 480 259.8 480 180C551 180 626.5 180 720 180C786.3 180 840 233.7000000000001 840 300C840 540 840 660 840 900C840 933.1 826.6 963.1 804.9 984.9zM600 840C540 840 540 840 480 840C446.9 840 420 866.9 420 900C420 960 420 960 420 1020C420 1053.1 446.9 1080 480 1080C496.6 1080 511.6 1073.3 522.4 1062.4C582.4 1002.4 582.4 1002.4 642.4 942.4C653.3 931.5 660 916.5 660 900C660 866.9 633.1 840 600 840z" />
    <glyph glyph-name="upload"
      unicode="&#xE06C;"
      horiz-adv-x="900" d=" M0 930C0 1050 0 990 0 1110C0 1159.7 40.3 1200 90 1200C270 1200 630 1200 810 1200C859.7 1200 900 1159.7 900 1110C900 990 900 1050 900 930C900 880.3 859.7 840 810 840S720 880.3 720 930C720 990 720 1005 720 1020C561 1020 339 1020 180 1020C180 1005 180 990 180 930C180 880.3 139.7 840 90 840S0 880.3 0 930zM513.6 933.6C497.4 949.9 474.9 960 450 960S402.6 949.9 386.4 933.6C266.4 813.6 266.4 813.6 146.4 693.6C130.1 677.4 120 654.9 120 630C120 580.3 160.3 540 210 540C234.9 540 257.4 550.1 273.6 566.4C312.1 604.9 338 631 360 652.8C360 521.4 360 383.8 360 270.0999999999999C360 220.3999999999999 400.3 180.0999999999999 450 180.0999999999999S540 220.3999999999999 540 270.0999999999999C540 383.8 540 521.4999999999999 540 652.8C562 631.0999999999999 587.9 604.9 626.4 566.4C642.6999999999999 550.1 665.1999999999999 540 690 540C739.7 540 780 580.3 780 630C780 654.9 769.9 677.4 753.6 693.6C633.6 813.6 633.6 813.6 513.6 933.6z" />
  </font>
</defs>
</svg>
