<?xml version="1.0" standalone="no"?>
<!DOCTYPE svg PUBLIC "-//W3C//DTD SVG 1.1//EN" "http://www.w3.org/Graphics/SVG/1.1/DTD/svg11.dtd" >
<svg xmlns="http://www.w3.org/2000/svg">
<metadata></metadata>
<defs>
<font id="galano_grotesquebold" horiz-adv-x="1318" >
<font-face units-per-em="2048" ascent="1638" descent="-410" />
<missing-glyph horiz-adv-x="475" />
<glyph unicode="&#xfb01;" horiz-adv-x="1343" d="M31 768v260h147v80q0 181 114 288t304 107q96 0 186 -35l-59 -258q-63 13 -82 13q-62 0 -99.5 -34t-37.5 -95v-66h704v-1028h-327v768h-377v-768h-326v768h-147zM854 1331q0 77 53.5 132t136.5 55q80 0 134.5 -55.5t54.5 -131.5q0 -78 -53.5 -130t-135.5 -52 q-84 0 -137 51.5t-53 130.5z" />
<glyph unicode="&#xfb02;" horiz-adv-x="1337" d="M31 768v260h147v80q0 181 113.5 288t300.5 107q105 0 203 -43l-70 -254q-53 17 -88 17q-60 0 -96.5 -34.5t-36.5 -94.5v-66h282v-260h-282v-768h-326v768h-147zM891 0v1475h328v-1475h-328z" />
<glyph horiz-adv-x="0" />
<glyph horiz-adv-x="682" />
<glyph unicode=" "  horiz-adv-x="475" />
<glyph unicode="&#x09;" horiz-adv-x="475" />
<glyph unicode="&#xa0;" horiz-adv-x="475" />
<glyph unicode="!" horiz-adv-x="608" d="M121 170q0 75 53 128.5t135 53.5q80 0 133.5 -53.5t53.5 -128.5q0 -77 -53 -128.5t-134 -51.5q-82 0 -135 51.5t-53 128.5zM123 1309v63h364v-63l-20 -840h-324z" />
<glyph unicode="&#x22;" horiz-adv-x="917" d="M96 727v645h310v-645h-310zM512 727v645h309v-645h-309z" />
<glyph unicode="#" horiz-adv-x="1456" d="M37 299l67 252h203l60 240h-207l65 251h203l82 330h270l-82 -330h240l82 330h270l-82 -330h209l-69 -251h-201l-60 -240h209l-69 -252h-203l-74 -299h-270l74 299h-238l-74 -299h-270l74 299h-209zM578 551h237l59 240h-237z" />
<glyph unicode="$" horiz-adv-x="1243" d="M76 436l319 62q9 -79 49.5 -129.5t91 -69t111.5 -18.5q84 0 136.5 37t52.5 94q0 42 -26.5 70t-90.5 42l-260 58q-75 16 -136 43.5t-111 70.5t-78 106.5t-28 143.5q0 163 106 269.5t282 134.5v227h272v-234q164 -36 267 -140.5t118 -258.5l-311 -53q-4 59 -26 102 t-56 65.5t-69.5 33t-74.5 10.5q-76 0 -123 -36.5t-47 -92.5q0 -85 101 -107l264 -59q352 -80 352 -375q0 -169 -110.5 -274t-284.5 -133v-230h-272v236q-170 37 -285.5 143t-132.5 262z" />
<glyph unicode="%" horiz-adv-x="1771" d="M82 1059q0 154 103.5 249t252.5 95q148 0 251.5 -95t103.5 -249q0 -151 -104 -246.5t-251 -95.5q-149 0 -252.5 95t-103.5 247zM289 0l991 1372h193l-994 -1372h-190zM303 1061q0 -65 40 -103t95 -38q53 0 93 38.5t40 102.5q0 63 -40 101t-93 38q-55 0 -95 -38t-40 -101z M979 311q0 154 103.5 249t252.5 95q148 0 251.5 -95t103.5 -249q0 -151 -104 -246.5t-251 -95.5q-149 0 -252.5 95t-103.5 247zM1200 313q0 -65 40 -103t95 -38q53 0 93 38.5t40 102.5q0 63 -40 101.5t-93 38.5q-55 0 -95 -38.5t-40 -101.5z" />
<glyph unicode="&#x26;" horiz-adv-x="1429" d="M82 399q0 112 61 201.5t170 149.5q-96 125 -96 270q0 169 128.5 276t326.5 107q200 0 315 -106t141 -283l-303 -53q-7 96 -45.5 138t-107.5 42q-62 0 -101 -34t-39 -95q0 -56 33.5 -107t120.5 -129l291 -252q12 53 12 119v92h297v-92q0 -187 -67 -330l184 -159l-191 -211 l-174 153q-173 -127 -409 -127q-244 0 -395.5 118t-151.5 312zM403 412q0 -79 65 -129t173 -50q95 0 178 54l-317 276q-99 -63 -99 -151z" />
<glyph unicode="'" horiz-adv-x="499" d="M96 727v645h310v-645h-310z" />
<glyph unicode="(" horiz-adv-x="778" d="M72 688q0 481 403 856l225 -203q-149 -163 -215.5 -312t-66.5 -341t68 -341.5t221 -311.5l-232 -203q-403 375 -403 856z" />
<glyph unicode=")" horiz-adv-x="778" d="M72 35q152 163 220 312.5t68 340.5q0 190 -67 339.5t-215 313.5l223 203q406 -375 406 -856t-406 -856z" />
<glyph unicode="*" horiz-adv-x="915" d="M68 977l208 121l-208 119l90 157l200 -114v215h199v-215l201 114l90 -157l-209 -119l209 -121l-90 -158l-201 115v-217h-199v217l-200 -115z" />
<glyph unicode="+" horiz-adv-x="1173" d="M102 487v269h351v356h268v-356h350v-269h-350v-356h-268v356h-351z" />
<glyph unicode="," horiz-adv-x="540" d="M6 -270l121 589h362v-8l-235 -581h-248z" />
<glyph unicode="-" horiz-adv-x="923" d="M123 399v277h678v-277h-678z" />
<glyph unicode="." horiz-adv-x="503" d="M66 174q0 75 53 129.5t133 54.5t134 -54.5t54 -129.5q0 -78 -53.5 -131t-134.5 -53t-133.5 52.5t-52.5 131.5z" />
<glyph unicode="/" horiz-adv-x="890" d="M31 -147l590 1665h239l-590 -1665h-239z" />
<glyph unicode="0" horiz-adv-x="1359" d="M76 686q0 321 166.5 519t437.5 198t438.5 -198t167.5 -519t-167.5 -519t-438.5 -198t-437.5 198t-166.5 519zM416 686q0 -193 71 -306.5t193 -113.5t194 113.5t72 306.5q0 192 -72 306t-194 114q-121 0 -192.5 -114t-71.5 -306z" />
<glyph unicode="1" horiz-adv-x="796" d="M4 815v303l442 254h213v-1372h-327v983z" />
<glyph unicode="2" horiz-adv-x="1122" d="M37 958q10 205 149 325t359 120t357.5 -121.5t137.5 -323.5q0 -92 -36.5 -174t-92 -146.5t-159.5 -162.5l-197 -180h500v-295h-996v221l473 445q89 84 118 119q67 83 67 171q0 73 -47.5 118.5t-122.5 45.5q-180 0 -197 -221z" />
<glyph unicode="3" horiz-adv-x="1181" d="M66 403l319 60q14 -102 68.5 -157.5t144.5 -55.5q87 0 142 46t55 120q0 68 -49 105.5t-138 37.5h-184v268h170q88 0 136 37t48 103q0 71 -49.5 114t-132.5 43q-87 0 -141.5 -55t-63.5 -166l-309 60q23 203 162.5 321.5t349.5 118.5q219 0 355 -121t136 -311 q0 -93 -38 -164.5t-109 -112.5q170 -86 170 -282q0 -195 -143 -319t-369 -124q-218 0 -362.5 117.5t-167.5 316.5z" />
<glyph unicode="4" horiz-adv-x="1282" d="M37 252v303l612 817h418v-850h166v-270h-166v-252h-317v252h-713zM379 522h371v525z" />
<glyph unicode="5" horiz-adv-x="1179" d="M61 440l320 64q1 -125 62.5 -186.5t154.5 -61.5q88 0 142.5 51.5t54.5 136.5q0 77 -54 123.5t-143 46.5h-471l25 758h901v-293h-607l-8 -188h191q225 0 354 -119.5t129 -322.5q0 -214 -142.5 -347t-377.5 -133q-107 0 -201.5 30.5t-167 88.5t-116 148.5t-46.5 203.5z" />
<glyph unicode="6" horiz-adv-x="1251" d="M76 662q0 389 190 579q156 162 396 162q185 0 314 -87.5t171 -248.5l-318 -61q-21 64 -64.5 90t-115.5 26q-97 0 -168 -78q-92 -102 -92 -278q56 59 138 92t171 33q218 0 348 -126t130 -329q0 -204 -146 -335.5t-373 -131.5q-266 0 -423.5 183t-157.5 510zM449 442 q0 -84 59 -140t141 -56t143.5 57.5t61.5 142.5t-61.5 142t-143.5 57t-141 -57.5t-59 -145.5z" />
<glyph unicode="7" horiz-adv-x="1050" d="M27 1077v295h983v-244l-449 -1128h-362l446 1077h-618z" />
<glyph unicode="8" horiz-adv-x="1173" d="M47 375q0 114 65 198.5t185 128.5q-98 45 -150.5 126t-52.5 190q0 169 138 277t356 108t355.5 -108t137.5 -277q0 -108 -53.5 -189.5t-150.5 -126.5q119 -46 183 -130.5t64 -196.5q0 -180 -148 -293t-388 -113q-242 0 -391.5 113.5t-149.5 292.5zM399 399 q0 -76 54 -119.5t133 -43.5q78 0 134 44.5t56 122.5q0 76 -56 120t-134 44q-79 0 -133 -44t-54 -124zM408 989q0 -73 52 -115.5t126 -42.5q75 0 128.5 43.5t53.5 116.5t-53.5 115.5t-128.5 42.5t-126.5 -42.5t-51.5 -117.5z" />
<glyph unicode="9" horiz-adv-x="1251" d="M76 936q0 204 145.5 335.5t372.5 131.5q266 0 424 -182.5t158 -509.5q0 -386 -191 -580q-159 -162 -395 -162q-185 0 -314.5 87.5t-171.5 248.5l318 62q20 -64 64 -90.5t116 -26.5q97 0 168 78q89 99 92 278q-57 -59 -138.5 -92t-170.5 -33q-218 0 -347.5 126t-129.5 329 zM395 926q0 -85 62.5 -142t144.5 -57q81 0 141 57.5t60 145.5q0 84 -60.5 140t-140.5 56q-82 0 -144.5 -57.5t-62.5 -142.5z" />
<glyph unicode=":" horiz-adv-x="503" d="M66 174q0 75 53 129.5t133 54.5t134 -54.5t54 -129.5q0 -78 -53.5 -131t-134.5 -53t-133.5 52.5t-52.5 131.5zM66 831q0 75 53 130t133 55t134 -55t54 -130q0 -78 -53.5 -131t-134.5 -53t-133.5 52.5t-52.5 131.5z" />
<glyph unicode=";" horiz-adv-x="573" d="M6 -270l121 589h362v-8l-235 -581h-248zM133 831q0 75 54 130t135 55q80 0 133 -55t53 -130q0 -79 -52.5 -131.5t-133.5 -52.5q-83 0 -136 52.5t-53 131.5z" />
<glyph unicode="&#x3c;" horiz-adv-x="956" d="M66 510v317l813 293v-315l-467 -133l467 -140v-311z" />
<glyph unicode="=" horiz-adv-x="1173" d="M102 313v260h969v-260h-969zM102 719v260h969v-260h-969z" />
<glyph unicode="&#x3e;" horiz-adv-x="956" d="M82 221v311l467 140l-467 133v315l813 -293v-317z" />
<glyph unicode="?" horiz-adv-x="1112" d="M55 987q23 177 164.5 296.5t364.5 119.5q216 0 349.5 -124t133.5 -318q0 -150 -97.5 -252t-267.5 -134v-102h-311v330h164q85 0 136.5 40.5t51.5 106.5q0 73 -47.5 119.5t-122.5 46.5q-82 0 -134 -51.5t-66 -140.5zM354 170q0 75 53.5 128.5t135.5 53.5q80 0 133 -53.5 t53 -128.5q0 -77 -52.5 -128.5t-133.5 -51.5q-83 0 -136 51.5t-53 128.5z" />
<glyph unicode="@" horiz-adv-x="1916" d="M96 553q0 242 115.5 437t316.5 304t447 109q231 0 424 -97.5t307.5 -275t114.5 -397.5q0 -70 -11.5 -137.5t-41 -134.5t-73.5 -117t-114 -81.5t-158 -31.5q-181 0 -247 125q-98 -121 -279 -121q-174 0 -289.5 115t-115.5 305q0 193 116 308.5t289 115.5q153 0 250 -94v76 h227v-570q0 -44 30 -69t73 -25q54 0 93 51t55.5 123t16.5 154q0 181 -90 322.5t-241.5 216.5t-335.5 75q-197 0 -357.5 -88t-252 -244.5t-91.5 -349.5q0 -144 53.5 -269.5t145.5 -213.5t219.5 -138.5t270.5 -50.5q269 0 491 170l92 -145q-114 -92 -264.5 -142.5 t-314.5 -50.5q-183 0 -344 62.5t-277 172t-183 266t-67 335.5zM756 557q0 -94 57.5 -151.5t136.5 -57.5q80 0 138.5 58t58.5 151t-58.5 150t-138.5 57q-79 0 -136.5 -56.5t-57.5 -150.5z" />
<glyph unicode="A" horiz-adv-x="1492" d="M0 0l573 1372h347l573 -1372h-360l-97 250h-577l-97 -250h-362zM573 541h351l-176 450z" />
<glyph unicode="B" horiz-adv-x="1355" d="M119 0v1372h710q189 0 302.5 -103t113.5 -272q0 -128 -71.5 -203.5t-153.5 -84.5v-9q49 -4 95 -25t84.5 -58t61.5 -97.5t23 -134.5q0 -175 -117 -280t-336 -105h-712zM457 272h315q81 0 124.5 41t43.5 113q0 67 -44.5 107t-117.5 40h-321v-301zM457 805h295 q75 0 120.5 42t45.5 111q0 63 -44 102.5t-110 39.5h-307v-295z" />
<glyph unicode="C" horiz-adv-x="1564" d="M72 686q0 197 96.5 362t264 260t368.5 95q258 0 449.5 -142.5t240.5 -383.5l-332 -78q-31 145 -126.5 220t-231.5 75q-164 0 -277.5 -117t-113.5 -291t113.5 -292t277.5 -118q135 0 230.5 77t129.5 227l332 -66q-47 -254 -235.5 -399.5t-456.5 -145.5q-151 0 -286 56 t-232 151t-154 228t-57 282z" />
<glyph unicode="D" horiz-adv-x="1484" d="M119 0v1372h543q168 0 308 -50t237.5 -139.5t151.5 -217.5t54 -279t-54 -279t-151.5 -217.5t-237.5 -139.5t-308 -50h-543zM457 293h192q192 0 308 107.5t116 285.5t-116 285.5t-308 107.5h-192v-786z" />
<glyph unicode="E" horiz-adv-x="1280" d="M119 0v1372h1063v-291h-725v-258h665v-274h-665v-258h731v-291h-1069z" />
<glyph unicode="F" horiz-adv-x="1224" d="M119 0v1372h1061v-297h-723v-289h643v-294h-643v-492h-338z" />
<glyph unicode="G" horiz-adv-x="1593" d="M72 686q0 148 57 281t154.5 228.5t233.5 151.5t288 56q235 0 417.5 -108t252.5 -304l-326 -94q-101 197 -344 197q-167 0 -280 -117.5t-113 -290.5q0 -175 115.5 -292.5t287.5 -117.5q134 0 229 65.5t134 180.5h-420v287h755q9 -74 9 -125q0 -205 -91 -368.5t-253.5 -255 t-366.5 -91.5q-205 0 -374.5 94.5t-267 259t-97.5 363.5z" />
<glyph unicode="H" horiz-adv-x="1490" d="M119 0v1372h338v-534h577v534h336v-1372h-336v543h-577v-543h-338z" />
<glyph unicode="I" horiz-adv-x="575" d="M119 0v1372h338v-1372h-338z" />
<glyph unicode="J" horiz-adv-x="1245" d="M29 430l327 66q11 -106 68 -166t154 -60q96 0 155.5 62.5t59.5 161.5v878h337v-878q0 -232 -152.5 -378.5t-399.5 -146.5q-229 0 -373.5 125.5t-175.5 335.5z" />
<glyph unicode="K" horiz-adv-x="1413" d="M119 0v1372h338v-545h49l467 545h405l-583 -688l624 -684h-442l-449 516h-71v-516h-338z" />
<glyph unicode="L" horiz-adv-x="1202" d="M119 0v1372h338v-1077h676v-295h-1014z" />
<glyph unicode="M" horiz-adv-x="1820" d="M119 0v1372h332l460 -870l461 870h330v-1372h-328v731l-385 -731h-155l-388 735v-735h-327z" />
<glyph unicode="N" horiz-adv-x="1550" d="M119 0v1372h280l695 -819v819h336v-1372h-279l-694 795v-795h-338z" />
<glyph unicode="O" horiz-adv-x="1605" d="M72 684q0 148 57 281t154.5 229t233 152.5t286.5 56.5t286.5 -56.5t233 -152.5t154.5 -229t57 -281q0 -147 -57 -279.5t-154.5 -228t-233 -151.5t-286.5 -56t-286.5 56t-233 151.5t-154.5 228t-57 279.5zM410 684q0 -174 112.5 -289.5t280.5 -115.5t280.5 115.5 t112.5 289.5q0 176 -112.5 293t-280.5 117t-280.5 -117t-112.5 -293z" />
<glyph unicode="P" horiz-adv-x="1359" d="M119 0v1372h676q230 0 366.5 -129.5t136.5 -343.5q0 -217 -140.5 -348t-377.5 -131h-323v-420h-338zM457 702h299q98 0 154.5 52.5t56.5 140.5q0 84 -57 136t-154 52h-299v-381z" />
<glyph unicode="Q" horiz-adv-x="1605" d="M72 684q0 148 57 281t154.5 229t233 152.5t286.5 56.5t286.5 -56.5t233 -152.5t154.5 -229t57 -281q0 -156 -63.5 -293.5t-176.5 -238.5l226 -271l-254 -225l-281 334q-103 -21 -182 -21q-151 0 -286.5 56t-233 151.5t-154.5 228t-57 279.5zM410 684q0 -174 112.5 -289.5 t280.5 -115.5t280.5 115.5t112.5 289.5q0 176 -112.5 293t-280.5 117t-280.5 -117t-112.5 -293z" />
<glyph unicode="R" horiz-adv-x="1390" d="M119 0v1372h694q222 0 358 -123.5t136 -324.5q0 -168 -97 -284t-264 -153l430 -487h-407l-414 471h-98v-471h-338zM457 754h319q91 0 145 45.5t54 120.5q0 74 -54 118.5t-145 44.5h-319v-329z" />
<glyph unicode="S" horiz-adv-x="1323" d="M76 385l348 68q50 -203 270 -203q94 0 148.5 38.5t54.5 102.5q0 48 -28.5 77.5t-98.5 43.5l-287 61q-368 84 -368 398q0 198 149 315t393 117q226 0 378 -105.5t190 -291.5l-332 -68q-18 92 -85.5 142t-154.5 50q-83 0 -133.5 -39.5t-50.5 -99.5q0 -44 25 -72.5t86 -41.5 l284 -64q377 -84 377 -399q0 -141 -78.5 -244t-204.5 -152t-282 -49t-284 47.5t-213 142.5t-103 226z" />
<glyph unicode="T" horiz-adv-x="1306" d="M41 1077v295h1225v-295h-445v-1077h-336v1077h-444z" />
<glyph unicode="U" horiz-adv-x="1460" d="M115 618v754h338v-754q0 -156 77 -246.5t207 -90.5q123 0 197 91t74 246v754h338v-754q0 -294 -167.5 -471.5t-441.5 -177.5q-280 0 -451 177.5t-171 471.5z" />
<glyph unicode="V" horiz-adv-x="1521" d="M14 1372h373l373 -909l375 909h372l-583 -1372h-326z" />
<glyph unicode="W" horiz-adv-x="1992" d="M14 1372h346l240 -864l236 864h321l236 -864l239 864h348l-391 -1372h-362l-230 848l-231 -848h-360z" />
<glyph unicode="X" horiz-adv-x="1398" d="M14 0l430 688l-426 684h400l280 -463l283 463h399l-426 -684l430 -688h-399l-287 467l-284 -467h-400z" />
<glyph unicode="Y" horiz-adv-x="1445" d="M14 1372h369l338 -602l334 602h377l-543 -942v-430h-344v426z" />
<glyph unicode="Z" horiz-adv-x="1300" d="M84 0v217l692 870h-672v285h1102v-258l-641 -829h658v-285h-1139z" />
<glyph unicode="[" horiz-adv-x="839" d="M119 -168v1686h645v-269h-340v-1149h340v-268h-645z" />
<glyph unicode="\" horiz-adv-x="890" d="M31 1518h239l590 -1665h-239z" />
<glyph unicode="]" horiz-adv-x="839" d="M76 100h340v1149h-340v269h645v-1686h-645v268z" />
<glyph unicode="^" horiz-adv-x="950" d="M35 862l319 510h242l319 -510h-278l-162 258l-162 -258h-278z" />
<glyph unicode="_" horiz-adv-x="1105" d="M41 -115h1024v-243h-1024v243z" />
<glyph unicode="`" horiz-adv-x="1228" d="M266 1473h389l146 -312h-291z" />
<glyph unicode="a" d="M51 514q0 119 40.5 221.5t108.5 173t160 110.5t193 40q193 0 319 -113v82h328v-1028h-328v82q-126 -113 -319 -113q-136 0 -250 67.5t-183 193t-69 284.5zM373 514q0 -119 70 -192.5t178 -73.5q103 0 177 74.5t74 191.5q0 116 -74 191t-177 75q-108 0 -178 -74t-70 -192z " />
<glyph unicode="b" d="M119 0v1475h327v-529q126 113 320 113q101 0 193 -40t160 -110.5t108.5 -173t40.5 -221.5q0 -159 -69 -284.5t-183 -193t-250 -67.5q-194 0 -320 113v-82h-327zM446 514q0 -117 74.5 -191.5t177.5 -74.5q108 0 178 73.5t70 192.5q0 118 -70 192t-178 74 q-103 0 -177.5 -75t-74.5 -191z" />
<glyph unicode="c" horiz-adv-x="1187" d="M51 514q0 158 76 283.5t204 193.5t281 68q190 0 336.5 -108t188.5 -287l-308 -74q-21 91 -78.5 136.5t-138.5 45.5q-109 0 -177 -72.5t-68 -185.5q0 -114 67.5 -186t177.5 -72q81 0 140 44.5t84 135.5l301 -65q-38 -181 -184.5 -291.5t-340.5 -110.5q-153 0 -280.5 67.5 t-204 193t-76.5 284.5z" />
<glyph unicode="d" d="M51 514q0 119 40.5 221.5t108.5 173t160 110.5t193 40q193 0 319 -113v529h328v-1475h-328v82q-126 -113 -319 -113q-136 0 -250 67.5t-183 193t-69 284.5zM373 514q0 -119 70 -192.5t178 -73.5q103 0 177 74.5t74 191.5q0 116 -74 191t-177 75q-108 0 -178 -74t-70 -192 z" />
<glyph unicode="e" horiz-adv-x="1177" d="M51 514q0 158 74 283.5t198 193.5t273 68q109 0 205 -38.5t167 -107.5t113.5 -172.5t44.5 -226.5v-84h-753q20 -93 79 -146t142 -53q154 0 219 119l291 -59q-65 -160 -197 -241t-313 -81q-148 0 -271.5 67.5t-197.5 193t-74 284.5zM379 631h424q-22 80 -77.5 121 t-129.5 41q-72 0 -133.5 -43.5t-83.5 -118.5z" />
<glyph unicode="f" horiz-adv-x="772" d="M31 768v260h147v80q0 181 113.5 288t300.5 107q105 0 203 -43l-70 -254q-53 17 -88 17q-60 0 -96.5 -34.5t-36.5 -94.5v-66h282v-260h-282v-768h-326v768h-147z" />
<glyph unicode="g" horiz-adv-x="1298" d="M51 563q0 139 68 253.5t181.5 178.5t246.5 64q194 0 309 -98v67h322v-926q0 -232 -159.5 -361.5t-416.5 -129.5q-367 0 -516 248l272 147q60 -71 112 -99t130 -28q115 0 185.5 65.5t70.5 184.5v29q-116 -99 -309 -99q-133 0 -246.5 64.5t-181.5 181t-68 258.5zM371 563 q0 -103 69 -169t176 -66q100 0 170 67t70 168t-70 167.5t-170 66.5q-107 0 -176 -65.5t-69 -168.5z" />
<glyph unicode="h" horiz-adv-x="1267" d="M119 0v1475h327v-545q126 129 318 129q179 0 288 -117.5t109 -310.5v-631h-325v561q0 91 -49.5 147t-129.5 56q-99 0 -155 -71t-56 -216v-477h-327z" />
<glyph unicode="i" horiz-adv-x="598" d="M111 1331q0 77 53.5 132t134.5 55q82 0 136 -55t54 -132q0 -78 -53.5 -130t-136.5 -52t-135.5 51.5t-52.5 130.5zM135 0v1028h328v-1028h-328z" />
<glyph unicode="j" horiz-adv-x="620" d="M-55 -326l49 258q53 -16 82 -16q38 0 62 22.5t24 59.5v1030h325v-1067q0 -150 -89 -240t-238 -90q-112 0 -215 43zM133 1331q0 77 53.5 132t135.5 55t136 -55t54 -132q0 -78 -53.5 -130t-136.5 -52t-136 51.5t-53 130.5z" />
<glyph unicode="k" horiz-adv-x="1253" d="M119 0v1475h327v-797h46l325 350h395l-450 -489l498 -539h-420l-334 371h-60v-371h-327z" />
<glyph unicode="l" horiz-adv-x="565" d="M119 0v1475h327v-1475h-327z" />
<glyph unicode="m" horiz-adv-x="1947" d="M119 0v1028h327v-94q112 125 304 125q108 0 195.5 -45t139.5 -129q135 174 365 174q167 0 280 -116t113 -300v-643h-325v573q0 86 -49 138.5t-123 52.5q-93 0 -147 -67t-54 -193v-504h-328v573q0 86 -49.5 138.5t-124.5 52.5q-91 0 -144 -67t-53 -193v-504h-327z" />
<glyph unicode="n" horiz-adv-x="1265" d="M119 0v1028h327v-98q123 129 316 129q180 0 289.5 -117.5t109.5 -310.5v-631h-325v561q0 90 -49.5 146.5t-127.5 56.5q-100 0 -156.5 -71t-56.5 -216v-477h-327z" />
<glyph unicode="o" horiz-adv-x="1234" d="M51 514q0 119 45.5 221t123 171.5t181.5 109t220 39.5q114 0 216.5 -39.5t179.5 -109t122 -171.5t45 -221t-45 -221.5t-122 -172.5t-179.5 -109.5t-216.5 -39.5q-156 0 -285.5 67t-207 192t-77.5 284zM367 514q0 -118 75 -192t179 -74q99 0 173 74.5t74 191.5 q0 116 -74 191t-173 75q-103 0 -178.5 -75t-75.5 -191z" />
<glyph unicode="p" d="M119 -348v1376h327v-82q126 113 320 113q101 0 193 -40t160 -110.5t108.5 -173t40.5 -221.5q0 -159 -69 -284.5t-183 -193t-250 -67.5q-194 0 -320 113v-430h-327zM446 514q0 -117 74.5 -191.5t177.5 -74.5q108 0 178 73.5t70 192.5q0 118 -70 192t-178 74 q-103 0 -177.5 -75t-74.5 -191z" />
<glyph unicode="q" d="M51 514q0 119 40.5 221.5t108.5 173t160 110.5t193 40q193 0 319 -113v82h328v-1376h-328v430q-126 -113 -319 -113q-136 0 -250 67.5t-183 193t-69 284.5zM373 514q0 -119 70 -192.5t178 -73.5q103 0 177 74.5t74 191.5q0 116 -74 191t-177 75q-108 0 -178 -74t-70 -192 z" />
<glyph unicode="r" horiz-adv-x="894" d="M119 0v1028h327v-197q127 211 355 211q40 0 73 -8l-14 -327h-59q-355 0 -355 -385v-322h-327z" />
<glyph unicode="s" horiz-adv-x="1054" d="M49 268l320 66q10 -62 60 -91.5t122 -29.5q62 0 97.5 23.5t35.5 58.5q0 57 -102 76l-209 41q-144 27 -221.5 103t-77.5 196q0 157 123 252.5t319 95.5q189 0 312.5 -79.5t154.5 -215.5l-299 -59q-8 50 -54 85t-118 35q-60 0 -88.5 -24t-28.5 -56q0 -25 16.5 -43t61.5 -28 l242 -49q142 -30 213 -111t71 -199q0 -166 -129 -256t-338 -90q-126 0 -225.5 30t-170 98.5t-87.5 170.5z" />
<glyph unicode="t" horiz-adv-x="886" d="M4 768v260h186v303h328v-303h303v-260h-303v-356q0 -150 137 -150q79 0 150 41l76 -258q-141 -76 -281 -76q-195 0 -302.5 105t-107.5 305v389h-186z" />
<glyph unicode="u" horiz-adv-x="1265" d="M104 397v631h326v-561q0 -91 49 -147t127 -56q100 0 156.5 71t56.5 216v477h328v-1028h-328v98q-123 -129 -315 -129q-180 0 -290 117.5t-110 310.5z" />
<glyph unicode="v" horiz-adv-x="1214" d="M14 1030h346l248 -635l246 635h346l-426 -1030h-334z" />
<glyph unicode="w" horiz-adv-x="1628" d="M14 1028h322l168 -553l194 553h232l194 -555l168 555h322l-330 -1030h-285l-184 557l-186 -557h-285z" />
<glyph unicode="x" horiz-adv-x="1236" d="M45 0l338 498l-338 532h375l198 -319l197 319h377l-340 -532l340 -498h-377l-197 297l-198 -297h-375z" />
<glyph unicode="y" horiz-adv-x="1236" d="M14 1030h353l243 -600l260 600h353l-594 -1378h-355l166 383z" />
<glyph unicode="z" horiz-adv-x="1101" d="M76 0v211l516 557h-504v260h920v-215l-516 -553h534v-260h-950z" />
<glyph unicode="{" horiz-adv-x="862" d="M41 553v242l70 20q63 20 92.5 44.5t29.5 74.5v315q0 120 77.5 194.5t203.5 74.5h272v-267h-194q-25 0 -39 -15.5t-14 -43.5v-301q0 -77 -33 -134t-94 -83q61 -26 94 -83t33 -134v-301q0 -28 14 -44t39 -16h194v-264h-272q-126 0 -203.5 73t-77.5 193v316q0 50 -29.5 74 t-92.5 44z" />
<glyph unicode="|" horiz-adv-x="542" d="M119 -147v1665h305v-1665h-305z" />
<glyph unicode="}" horiz-adv-x="862" d="M76 96h192q25 0 40.5 16.5t15.5 43.5v301q0 77 33 134t94 83q-61 26 -94 83t-33 134v301q0 27 -15.5 43t-40.5 16h-192v267h272q126 0 202.5 -74.5t76.5 -194.5v-315q0 -49 30.5 -74t94.5 -45l69 -20v-242l-69 -21q-64 -20 -94.5 -44.5t-30.5 -73.5v-316 q0 -120 -76.5 -193t-202.5 -73h-272v264z" />
<glyph unicode="~" horiz-adv-x="1038" d="M88 465q0 76 17.5 137t45 98.5t64 62.5t71.5 34.5t70 9.5q65 0 117 -21t90 -42t68 -21q33 0 52 22t17 58h252q0 -96 -27.5 -167.5t-71.5 -108.5t-89.5 -53.5t-91.5 -16.5q-65 0 -116.5 20t-88 40t-64.5 20q-34 0 -53.5 -20t-21.5 -52h-240z" />
<glyph unicode="&#xa1;" horiz-adv-x="608" d="M121 877q0 77 53 128.5t135 51.5q81 0 134 -51.5t53 -128.5q0 -75 -53.5 -129t-133.5 -54q-81 0 -134.5 54t-53.5 129zM123 -262l20 840h324l20 -840v-64h-364v64z" />
<glyph unicode="&#xa2;" horiz-adv-x="1187" d="M51 514q0 200 118 343t304 185v248h272v-246q146 -34 251.5 -134.5t140.5 -245.5l-308 -74q-21 91 -78.5 136.5t-138.5 45.5q-109 0 -177 -72.5t-68 -185.5q0 -114 67.5 -186t177.5 -72q81 0 140 44.5t84 135.5l301 -65q-32 -148 -137.5 -250.5t-254.5 -136.5v-250h-272 v252q-186 42 -304 184.5t-118 343.5z" />
<glyph unicode="&#xa3;" horiz-adv-x="1263" d="M76 0v211l151 45v221h-151v281h151v174q0 211 134.5 341t355.5 130q212 0 343 -127.5t146 -335.5l-315 -57q-20 215 -174 215q-72 0 -116 -45.5t-44 -120.5v-174h340v-281h-340v-184h649v-293h-1130z" />
<glyph unicode="&#xa5;" horiz-adv-x="1429" d="M35 1372h358l316 -569l311 569h375l-410 -694h250v-211h-358v-88h358v-213h-358v-166h-338v166h-342v213h342v88h-342v211h235z" />
<glyph unicode="&#xa7;" horiz-adv-x="1126" d="M41 592q0 184 168 285q-53 75 -53 182q0 113 56 192t147 115.5t208 36.5q195 0 309 -99t123 -260l-278 -49q-4 85 -42 124.5t-97 39.5q-51 0 -85 -29t-34 -77q0 -34 22 -60.5t76 -50.5l254 -100q133 -51 194.5 -129t61.5 -195q0 -192 -168 -287q53 -75 53 -182 q0 -111 -56 -189t-147.5 -114.5t-207.5 -36.5q-206 0 -322 100t-121 269l275 51q7 -96 46.5 -137t106.5 -41q51 0 85 29t34 77q0 34 -22 60.5t-76 50.5l-254 100q-134 53 -195 130t-61 194zM328 623q0 -38 22 -65t76 -54l260 -113l23 -10q40 24 57.5 48t17.5 58 q0 37 -22.5 65t-75.5 54l-260 115l-25 10q-73 -42 -73 -108z" />
<glyph unicode="&#xa8;" horiz-adv-x="1228" d="M199 1317q0 74 52 127t130 53t131 -53.5t53 -126.5q0 -77 -52.5 -127.5t-131.5 -50.5t-130.5 50.5t-51.5 127.5zM666 1317q0 74 52 127t130 53t131 -53.5t53 -126.5q0 -77 -52.5 -127.5t-131.5 -50.5t-130.5 50.5t-51.5 127.5z" />
<glyph unicode="&#xa9;" horiz-adv-x="1548" d="M51 682q0 154 57.5 289t154.5 229.5t229 148.5t278 54q145 0 276.5 -54t228.5 -148.5t154.5 -229.5t57.5 -289q0 -203 -97.5 -367.5t-261.5 -255t-358 -90.5q-195 0 -359.5 90.5t-262 255t-97.5 367.5zM178 684q0 -128 47 -240t127 -190t189 -123t229 -45t228 45t188 123 t127 190t47 240t-47 241.5t-127 192.5t-188.5 124.5t-227.5 45.5q-120 0 -229 -45.5t-189 -124.5t-127 -192.5t-47 -241.5zM387 684q0 112 55 201t144 136.5t194 47.5q155 0 257 -83t114 -208l-197 -37q-15 62 -63 97.5t-113 35.5q-78 0 -130 -53.5t-52 -136.5t52 -136.5 t130 -53.5q68 0 116.5 38t57.5 107l199 -33q-9 -135 -111.5 -221t-259.5 -86q-105 0 -194 47.5t-144 136.5t-55 201z" />
<glyph unicode="&#xaa;" horiz-adv-x="798" d="M66 889q0 97 79.5 155t216.5 58h148v20q2 36 -22 60t-64 24q-76 0 -100 -76l-213 44q26 100 104.5 153t198.5 53q150 0 239.5 -70t89.5 -210v-416h-233v39q-74 -57 -191 -57q-114 0 -183.5 61.5t-69.5 161.5zM301 897q0 -33 23.5 -51.5t62.5 -18.5q55 0 89 29t34 78v31 h-119q-40 0 -65 -18.5t-25 -49.5z" />
<glyph unicode="&#xab;" horiz-adv-x="1034" d="M51 537l215 364h307l-215 -364l215 -365h-307zM461 537l215 364h307l-215 -364l215 -365h-307z" />
<glyph unicode="&#xad;" horiz-adv-x="923" d="M123 399v277h678v-277h-678z" />
<glyph unicode="&#xae;" horiz-adv-x="997" d="M88 991q0 178 119.5 295t290.5 117t290 -117t119 -295q0 -176 -119 -292.5t-290 -116.5t-290.5 116.5t-119.5 292.5zM178 991q0 -137 94 -230t226 -93q134 0 227.5 93t93.5 230q0 140 -93 234t-228 94q-132 0 -226 -94.5t-94 -233.5zM346 817v373h180q70 0 111 -34.5 t41 -90.5q0 -43 -23 -75.5t-63 -47.5l104 -125h-110l-94 115h-52v-115h-94zM440 1012h84q29 0 46.5 14t17.5 37q0 22 -17.5 34.5t-46.5 12.5h-84v-98z" />
<glyph unicode="&#xaf;" horiz-adv-x="1228" d="M274 1167v254h680v-254h-680z" />
<glyph unicode="&#xb0;" horiz-adv-x="876" d="M115 1090q0 139 94.5 226t230.5 87q133 0 227.5 -87t94.5 -226q0 -137 -94.5 -224.5t-227.5 -87.5q-136 0 -230.5 87t-94.5 225zM315 1092q0 -59 37.5 -94t87.5 -35q48 0 84.5 35.5t36.5 93.5q0 57 -37 92t-84 35q-50 0 -87.5 -35t-37.5 -92z" />
<glyph unicode="&#xb1;" horiz-adv-x="1173" d="M102 0v266h969v-266h-969zM102 686v266h351v328h268v-328h350v-266h-350v-289h-268v289h-351z" />
<glyph unicode="&#xb4;" horiz-adv-x="1228" d="M408 1161l145 312h389l-244 -312h-290z" />
<glyph unicode="&#xb6;" horiz-adv-x="1241" d="M41 999q0 181 107.5 277t291.5 96h359v-1372h-228v612h-102q-186 0 -307 105.5t-121 281.5zM895 0v1372h225v-1372h-225z" />
<glyph unicode="&#xb7;" horiz-adv-x="503" d="M66 535q0 75 53 129.5t133 54.5t134 -54.5t54 -129.5q0 -79 -53.5 -132t-134.5 -53t-133.5 53t-52.5 132z" />
<glyph unicode="&#xb8;" horiz-adv-x="1228" d="M371 -328l204 328h236l-100 -328h-340z" />
<glyph unicode="&#xba;" horiz-adv-x="864" d="M55 1022q0 158 109.5 258t265.5 100q159 0 269 -100t110 -258q0 -157 -110 -256.5t-269 -99.5q-156 0 -265.5 100t-109.5 256zM289 1022q0 -63 41 -106.5t100 -43.5q62 0 105 43.5t43 106.5q0 64 -43 108t-105 44q-59 0 -100 -44t-41 -108z" />
<glyph unicode="&#xbb;" horiz-adv-x="1034" d="M51 172l215 365l-215 364h307l215 -364l-215 -365h-307zM461 172l215 365l-215 364h307l215 -364l-215 -365h-307z" />
<glyph unicode="&#xbc;" horiz-adv-x="1536" d="M35 993v228l235 151h148v-784h-223v499zM170 0l991 1372h193l-992 -1372h-192zM782 131v201l348 452h261v-471h98v-182h-98v-131h-207v131h-402zM995 313h189v248z" />
<glyph unicode="&#xbd;" horiz-adv-x="1648" d="M35 993v228l235 151h148v-784h-223v499zM135 0l993 1372h191l-991 -1372h-193zM891 0v141l289 254q57 49 79.5 78t22.5 66q0 34 -23.5 55.5t-62.5 21.5q-46 0 -72.5 -32t-27.5 -95l-199 43q0 122 81.5 197.5t217.5 75.5t218.5 -71t82.5 -195q0 -77 -42 -137.5 t-128 -131.5l-96 -80h262v-190h-602z" />
<glyph unicode="&#xbe;" horiz-adv-x="1689" d="M43 831l195 43q6 -57 36.5 -86.5t81.5 -29.5q43 0 70 22.5t27 57.5q0 34 -27.5 53.5t-71.5 19.5h-86v156h74q45 0 74.5 20t29.5 52q0 35 -26 55t-68 20q-48 0 -75.5 -28.5t-28.5 -81.5l-201 43q12 109 94.5 177.5t208.5 68.5q132 0 216.5 -70.5t84.5 -175.5 q0 -101 -94 -152q107 -53 107 -164q0 -110 -87.5 -183t-222.5 -73q-132 0 -218 69.5t-93 186.5zM309 0l994 1372h190l-991 -1372h-193zM936 131v201l348 452h260v-471h98v-182h-98v-131h-207v131h-401zM1149 313h188v248z" />
<glyph unicode="&#xbf;" horiz-adv-x="1112" d="M45 86q0 150 97.5 251t267.5 134v102h311v-329h-164q-85 0 -136.5 -41t-51.5 -107q0 -74 47 -120t123 -46q80 0 132 52.5t66 140.5l320 -64q-11 -84 -52 -159t-107 -132t-162.5 -90.5t-209.5 -33.5q-215 0 -348 124t-133 318zM381 877q0 77 53.5 128.5t134.5 51.5 t134 -51.5t53 -128.5q0 -74 -53.5 -128.5t-133.5 -54.5t-134 54.5t-54 128.5z" />
<glyph unicode="&#xc0;" horiz-adv-x="1492" d="M0 0l573 1372h347l573 -1372h-360l-97 250h-577l-97 -250h-362zM362 1817h390l145 -312h-291zM573 541h351l-176 450z" />
<glyph unicode="&#xc1;" horiz-adv-x="1492" d="M0 0l573 1372h347l573 -1372h-360l-97 250h-577l-97 -250h-362zM573 541h351l-176 450zM606 1505l146 312h389l-244 -312h-291z" />
<glyph unicode="&#xc2;" horiz-adv-x="1492" d="M0 0l573 1372h347l573 -1372h-360l-97 250h-577l-97 -250h-362zM350 1493l236 317h325l238 -317h-318l-81 115l-84 -115h-316zM573 541h351l-176 450z" />
<glyph unicode="&#xc3;" horiz-adv-x="1492" d="M0 0l573 1372h347l573 -1372h-360l-97 250h-577l-97 -250h-362zM391 1530q0 155 69.5 233t166.5 78q56 0 100 -19t78.5 -38t68.5 -19q54 0 64 74h199q0 -82 -20 -144.5t-54.5 -98.5t-76 -54t-87.5 -18q-45 0 -82.5 11.5t-58.5 25t-49 25t-56 11.5q-53 0 -63 -67h-199z M573 541h351l-176 450z" />
<glyph unicode="&#xc4;" horiz-adv-x="1492" d="M0 0l573 1372h347l573 -1372h-360l-97 250h-577l-97 -250h-362zM332 1661q0 74 52 127t130 53t131 -53.5t53 -126.5q0 -77 -52.5 -127.5t-131.5 -50.5t-130.5 50.5t-51.5 127.5zM573 541h351l-176 450zM799 1661q0 74 52 127t130 53t131 -53.5t53 -126.5 q0 -77 -52.5 -127.5t-131.5 -50.5t-130.5 50.5t-51.5 127.5z" />
<glyph unicode="&#xc5;" horiz-adv-x="1492" d="M0 0l573 1372h347l573 -1372h-360l-97 250h-577l-97 -250h-362zM489 1706q0 106 75 179t184 73t183.5 -73t74.5 -179q0 -105 -75 -177.5t-183 -72.5q-109 0 -184 73t-75 177zM573 541h351l-176 450zM664 1706q0 -33 24.5 -56.5t59.5 -23.5t59 23.5t24 56.5q0 34 -24 58 t-59 24t-59.5 -24t-24.5 -58z" />
<glyph unicode="&#xc6;" horiz-adv-x="2142" d="M0 0l879 1372h1177v-291h-725v-258h668v-274h-668v-258h731v-291h-1067v223h-469l-133 -223h-393zM700 514h295v494z" />
<glyph unicode="&#xc7;" horiz-adv-x="1564" d="M72 686q0 197 96.5 362t264 260t368.5 95q258 0 449.5 -142.5t240.5 -383.5l-332 -78q-31 145 -126.5 220t-231.5 75q-164 0 -277.5 -117t-113.5 -291t113.5 -292t277.5 -118q135 0 230.5 77t129.5 227l332 -66q-42 -231 -203 -373.5t-395 -167.5l-92 -301h-340l194 312 q-256 48 -420.5 243.5t-164.5 458.5z" />
<glyph unicode="&#xc8;" horiz-adv-x="1280" d="M119 0v1372h1063v-291h-725v-258h665v-274h-665v-258h731v-291h-1069zM287 1817h389l145 -312h-291z" />
<glyph unicode="&#xc9;" horiz-adv-x="1280" d="M119 0v1372h1063v-291h-725v-258h665v-274h-665v-258h731v-291h-1069zM528 1505l146 312h389l-244 -312h-291z" />
<glyph unicode="&#xca;" horiz-adv-x="1280" d="M119 0v1372h1063v-291h-725v-258h665v-274h-665v-258h731v-291h-1069zM274 1493l236 317h326l237 -317h-317l-82 115l-84 -115h-316z" />
<glyph unicode="&#xcb;" horiz-adv-x="1280" d="M119 0v1372h1063v-291h-725v-258h665v-274h-665v-258h731v-291h-1069zM256 1661q0 74 52 127t130 53t131.5 -53.5t53.5 -126.5q0 -76 -52.5 -127t-132.5 -51q-79 0 -130.5 50.5t-51.5 127.5zM723 1661q0 74 52 127t130 53t131.5 -53.5t53.5 -126.5q0 -76 -52.5 -127 t-132.5 -51q-79 0 -130.5 50.5t-51.5 127.5z" />
<glyph unicode="&#xcc;" horiz-adv-x="575" d="M-96 1817h389l145 -312h-291zM119 0v1372h338v-1372h-338z" />
<glyph unicode="&#xcd;" horiz-adv-x="575" d="M119 0v1372h338v-1372h-338zM145 1505l146 312h389l-244 -312h-291z" />
<glyph unicode="&#xce;" horiz-adv-x="575" d="M-111 1493l236 317h326l237 -317h-317l-82 115l-84 -115h-316zM119 0v1372h338v-1372h-338z" />
<glyph unicode="&#xcf;" horiz-adv-x="575" d="M-127 1661q0 74 52 127t130 53t131.5 -53.5t53.5 -126.5q0 -76 -52.5 -127t-132.5 -51q-79 0 -130.5 50.5t-51.5 127.5zM119 0v1372h338v-1372h-338zM340 1661q0 74 52 127t130 53t131.5 -53.5t53.5 -126.5q0 -76 -52.5 -127t-132.5 -51q-79 0 -130.5 50.5t-51.5 127.5z " />
<glyph unicode="&#xd0;" horiz-adv-x="1501" d="M47 539v295h111v538h542q337 0 543.5 -189.5t206.5 -496.5t-206.5 -496.5t-543.5 -189.5h-542v539h-111zM494 293h192q192 0 309 107.5t117 285.5t-117 285.5t-309 107.5h-192v-245h231v-295h-231v-246z" />
<glyph unicode="&#xd1;" horiz-adv-x="1550" d="M119 0v1372h280l695 -819v819h336v-1372h-279l-694 795v-795h-338zM424 1530q0 80 20 142t54.5 97.5t75 53.5t85.5 18q56 0 100 -19t79 -38t69 -19q54 0 64 74h198q0 -159 -69 -237t-168 -78q-45 0 -82.5 11.5t-58.5 25t-49 25t-56 11.5q-53 0 -63 -67h-199z" />
<glyph unicode="&#xd2;" horiz-adv-x="1605" d="M72 684q0 148 57 281t154.5 229t233 152.5t286.5 56.5t286.5 -56.5t233 -152.5t154.5 -229t57 -281q0 -147 -57 -279.5t-154.5 -228t-233 -151.5t-286.5 -56t-286.5 56t-233 151.5t-154.5 228t-57 279.5zM410 684q0 -174 112.5 -289.5t280.5 -115.5t280.5 115.5 t112.5 289.5q0 176 -112.5 293t-280.5 117t-280.5 -117t-112.5 -293zM418 1817h389l145 -312h-290z" />
<glyph unicode="&#xd3;" horiz-adv-x="1605" d="M72 684q0 148 57 281t154.5 229t233 152.5t286.5 56.5t286.5 -56.5t233 -152.5t154.5 -229t57 -281q0 -147 -57 -279.5t-154.5 -228t-233 -151.5t-286.5 -56t-286.5 56t-233 151.5t-154.5 228t-57 279.5zM410 684q0 -174 112.5 -289.5t280.5 -115.5t280.5 115.5 t112.5 289.5q0 176 -112.5 293t-280.5 117t-280.5 -117t-112.5 -293zM659 1505l146 312h389l-244 -312h-291z" />
<glyph unicode="&#xd4;" horiz-adv-x="1605" d="M72 684q0 148 57 281t154.5 229t233 152.5t286.5 56.5t286.5 -56.5t233 -152.5t154.5 -229t57 -281q0 -147 -57 -279.5t-154.5 -228t-233 -151.5t-286.5 -56t-286.5 56t-233 151.5t-154.5 228t-57 279.5zM406 1493l235 317h326l237 -317h-317l-82 115l-84 -115h-315z M410 684q0 -174 112.5 -289.5t280.5 -115.5t280.5 115.5t112.5 289.5q0 176 -112.5 293t-280.5 117t-280.5 -117t-112.5 -293z" />
<glyph unicode="&#xd5;" horiz-adv-x="1605" d="M72 684q0 148 57 281t154.5 229t233 152.5t286.5 56.5t286.5 -56.5t233 -152.5t154.5 -229t57 -281q0 -147 -57 -279.5t-154.5 -228t-233 -151.5t-286.5 -56t-286.5 56t-233 151.5t-154.5 228t-57 279.5zM410 684q0 -174 112.5 -289.5t280.5 -115.5t280.5 115.5 t112.5 289.5q0 176 -112.5 293t-280.5 117t-280.5 -117t-112.5 -293zM444 1530q0 155 69.5 233t166.5 78q56 0 100 -19t79 -38t69 -19q53 0 63 74h199q0 -82 -20 -144.5t-54.5 -98.5t-76 -54t-87.5 -18q-45 0 -82 11.5t-58 25t-49 25t-56 11.5q-54 0 -64 -67h-199z" />
<glyph unicode="&#xd6;" horiz-adv-x="1605" d="M72 684q0 148 57 281t154.5 229t233 152.5t286.5 56.5t286.5 -56.5t233 -152.5t154.5 -229t57 -281q0 -147 -57 -279.5t-154.5 -228t-233 -151.5t-286.5 -56t-286.5 56t-233 151.5t-154.5 228t-57 279.5zM387 1661q0 74 52 127t130 53t131.5 -53.5t53.5 -126.5 q0 -76 -52.5 -127t-132.5 -51q-79 0 -130.5 50.5t-51.5 127.5zM410 684q0 -174 112.5 -289.5t280.5 -115.5t280.5 115.5t112.5 289.5q0 176 -112.5 293t-280.5 117t-280.5 -117t-112.5 -293zM854 1661q0 74 52 127t130 53t131.5 -53.5t53.5 -126.5q0 -76 -52.5 -127 t-132.5 -51q-79 0 -130.5 50.5t-51.5 127.5z" />
<glyph unicode="&#xd7;" horiz-adv-x="1087" d="M84 352l270 271l-270 268l188 190l273 -270l270 270l191 -190l-271 -268l271 -271l-191 -190l-270 270l-273 -270z" />
<glyph unicode="&#xd8;" horiz-adv-x="1605" d="M72 684q0 148 57 281t154.5 229t233 152.5t286.5 56.5q243 0 436 -137l113 112l164 -164l-115 -114q133 -185 133 -416q0 -147 -57 -279.5t-154.5 -228t-233 -151.5t-286.5 -56q-226 0 -412 121l-137 -137l-164 164l131 131q-149 189 -149 436zM410 684q0 -112 47 -201 l553 553q-92 58 -207 58q-168 0 -280.5 -117t-112.5 -293zM623 322q79 -43 180 -43q168 0 280.5 115.5t112.5 289.5q0 95 -35 176z" />
<glyph unicode="&#xd9;" horiz-adv-x="1460" d="M115 618v754h338v-754q0 -156 77 -246.5t207 -90.5q123 0 197 91t74 246v754h338v-754q0 -294 -167.5 -471.5t-441.5 -177.5q-280 0 -451 177.5t-171 471.5zM344 1817h389l146 -312h-291z" />
<glyph unicode="&#xda;" horiz-adv-x="1460" d="M115 618v754h338v-754q0 -156 77 -246.5t207 -90.5q123 0 197 91t74 246v754h338v-754q0 -294 -167.5 -471.5t-441.5 -177.5q-280 0 -451 177.5t-171 471.5zM586 1505l145 312h389l-243 -312h-291z" />
<glyph unicode="&#xdb;" horiz-adv-x="1460" d="M115 618v754h338v-754q0 -156 77 -246.5t207 -90.5q123 0 197 91t74 246v754h338v-754q0 -294 -167.5 -471.5t-441.5 -177.5q-280 0 -451 177.5t-171 471.5zM332 1493l235 317h326l237 -317h-317l-82 115l-84 -115h-315z" />
<glyph unicode="&#xdc;" horiz-adv-x="1460" d="M115 618v754h338v-754q0 -156 77 -246.5t207 -90.5q123 0 197 91t74 246v754h338v-754q0 -294 -167.5 -471.5t-441.5 -177.5q-280 0 -451 177.5t-171 471.5zM313 1661q0 73 52.5 126.5t130.5 53.5t131 -53.5t53 -126.5q0 -77 -52.5 -127.5t-131.5 -50.5t-131 50.5 t-52 127.5zM780 1661q0 73 52.5 126.5t130.5 53.5t131 -53.5t53 -126.5q0 -77 -52.5 -127.5t-131.5 -50.5t-131 50.5t-52 127.5z" />
<glyph unicode="&#xdd;" horiz-adv-x="1445" d="M14 1372h369l338 -602l334 602h377l-543 -942v-430h-344v426zM580 1505l145 312h389l-244 -312h-290z" />
<glyph unicode="&#xde;" horiz-adv-x="1333" d="M119 0v1372h338v-215h307q226 0 364 -129t138 -340q0 -212 -142 -342.5t-372 -130.5h-295v-215h-338zM457 498h274q92 0 147.5 51t55.5 135q0 83 -55.5 133.5t-147.5 50.5h-274v-370z" />
<glyph unicode="&#xdf;" horiz-adv-x="1359" d="M119 0v952q0 249 157.5 403t415.5 154q227 0 371.5 -119.5t144.5 -302.5q0 -107 -45.5 -186.5t-126.5 -116.5q125 -36 196 -130.5t71 -237.5q0 -188 -127 -311t-332 -123q-143 0 -281 24l35 268q136 -20 195 -20q90 0 149 53t59 125q0 91 -72 144t-200 53h-88v262h45 q94 0 149.5 45t55.5 117q0 83 -54.5 132.5t-144.5 49.5q-110 0 -178 -69.5t-68 -188.5v-977h-327z" />
<glyph unicode="&#xe0;" d="M51 514q0 119 40.5 221.5t108.5 173t160 110.5t193 40q193 0 319 -113v82h328v-1028h-328v82q-126 -113 -319 -113q-136 0 -250 67.5t-183 193t-69 284.5zM272 1473h390l145 -312h-291zM373 514q0 -119 70 -192.5t178 -73.5q103 0 177 74.5t74 191.5q0 116 -74 191 t-177 75q-108 0 -178 -74t-70 -192z" />
<glyph unicode="&#xe1;" d="M51 514q0 119 40.5 221.5t108.5 173t160 110.5t193 40q193 0 319 -113v82h328v-1028h-328v82q-126 -113 -319 -113q-136 0 -250 67.5t-183 193t-69 284.5zM373 514q0 -119 70 -192.5t178 -73.5q103 0 177 74.5t74 191.5q0 116 -74 191t-177 75q-108 0 -178 -74t-70 -192z M516 1161l146 312h389l-244 -312h-291z" />
<glyph unicode="&#xe2;" d="M51 514q0 119 40.5 221.5t108.5 173t160 110.5t193 40q193 0 319 -113v82h328v-1028h-328v82q-126 -113 -319 -113q-136 0 -250 67.5t-183 193t-69 284.5zM260 1149l236 317h325l238 -317h-318l-82 115l-84 -115h-315zM373 514q0 -119 70 -192.5t178 -73.5 q103 0 177 74.5t74 191.5q0 116 -74 191t-177 75q-108 0 -178 -74t-70 -192z" />
<glyph unicode="&#xe3;" d="M51 514q0 119 40.5 221.5t108.5 173t160 110.5t193 40q193 0 319 -113v82h328v-1028h-328v82q-126 -113 -319 -113q-136 0 -250 67.5t-183 193t-69 284.5zM301 1186q0 155 69.5 233t166.5 78q56 0 100 -19t78.5 -38t68.5 -19q54 0 64 74h199q0 -82 -20 -144.5 t-54.5 -98.5t-76 -54t-87.5 -18q-45 0 -82.5 11.5t-58.5 25t-49 25t-56 11.5q-53 0 -63 -67h-199zM373 514q0 -119 70 -192.5t178 -73.5q103 0 177 74.5t74 191.5q0 116 -74 191t-177 75q-108 0 -178 -74t-70 -192z" />
<glyph unicode="&#xe4;" d="M51 514q0 119 40.5 221.5t108.5 173t160 110.5t193 40q193 0 319 -113v82h328v-1028h-328v82q-126 -113 -319 -113q-136 0 -250 67.5t-183 193t-69 284.5zM242 1317q0 74 52 127t130 53t131 -53.5t53 -126.5q0 -77 -52.5 -127.5t-131.5 -50.5t-130.5 50.5t-51.5 127.5z M373 514q0 -119 70 -192.5t178 -73.5q103 0 177 74.5t74 191.5q0 116 -74 191t-177 75q-108 0 -178 -74t-70 -192zM709 1317q0 74 52 127t130 53t131 -53.5t53 -126.5q0 -77 -52.5 -127.5t-131.5 -50.5t-130.5 50.5t-51.5 127.5z" />
<glyph unicode="&#xe5;" d="M51 514q0 119 40.5 221.5t108.5 173t160 110.5t193 40q193 0 319 -113v82h328v-1028h-328v82q-126 -113 -319 -113q-136 0 -250 67.5t-183 193t-69 284.5zM373 514q0 -119 70 -192.5t178 -73.5q103 0 177 74.5t74 191.5q0 116 -74 191t-177 75q-108 0 -178 -74t-70 -192z M399 1362q0 106 74.5 179t183.5 73t183.5 -73t74.5 -179q0 -105 -75 -177.5t-183 -72.5t-183 72.5t-75 177.5zM573 1362q0 -33 24.5 -56.5t59.5 -23.5t59.5 23.5t24.5 56.5q0 34 -24.5 58t-59.5 24t-59.5 -24t-24.5 -58z" />
<glyph unicode="&#xe6;" horiz-adv-x="1835" d="M47 299q0 149 111.5 230t318.5 81h260v47q0 67 -44 108.5t-115 41.5q-67 0 -110 -34.5t-52 -98.5l-303 61q22 143 147 233.5t320 90.5q215 0 342 -109q143 109 329 109q111 0 208.5 -39t169.5 -109.5t113.5 -176.5t41.5 -234v-82h-752q24 -89 82.5 -138t147.5 -49 q142 0 204 119l287 -59q-41 -143 -178 -232.5t-318 -89.5q-224 0 -383 146q-69 -66 -174.5 -106t-236.5 -40q-199 0 -307.5 90.5t-108.5 239.5zM371 317q0 -49 39 -78.5t104 -29.5q86 0 154.5 51.5t68.5 122.5v31h-225q-68 0 -104.5 -26t-36.5 -71zM1032 610h430 q-19 93 -74 140t-131 47q-81 0 -144 -48t-81 -139z" />
<glyph unicode="&#xe7;" horiz-adv-x="1187" d="M51 514q0 158 76 283.5t204 193.5t281 68q190 0 336.5 -108t188.5 -287l-308 -74q-21 91 -78.5 136.5t-138.5 45.5q-109 0 -177 -72.5t-68 -185.5q0 -114 67.5 -186t177.5 -72q81 0 140 44.5t84 135.5l301 -65q-32 -153 -144 -257t-270 -134l-94 -308h-340l194 312 q-190 39 -311 182.5t-121 347.5z" />
<glyph unicode="&#xe8;" horiz-adv-x="1177" d="M51 514q0 158 74 283.5t198 193.5t273 68q109 0 205 -38.5t167 -107.5t113.5 -172.5t44.5 -226.5v-84h-753q20 -93 79 -146t142 -53q154 0 219 119l291 -59q-65 -160 -197 -241t-313 -81q-148 0 -271.5 67.5t-197.5 193t-74 284.5zM215 1473h389l146 -312h-291zM379 631 h424q-22 80 -77.5 121t-129.5 41q-72 0 -133.5 -43.5t-83.5 -118.5z" />
<glyph unicode="&#xe9;" horiz-adv-x="1177" d="M51 514q0 158 74 283.5t198 193.5t273 68q109 0 205 -38.5t167 -107.5t113.5 -172.5t44.5 -226.5v-84h-753q20 -93 79 -146t142 -53q154 0 219 119l291 -59q-65 -160 -197 -241t-313 -81q-148 0 -271.5 67.5t-197.5 193t-74 284.5zM379 631h424q-22 80 -77.5 121 t-129.5 41q-72 0 -133.5 -43.5t-83.5 -118.5zM457 1161l145 312h389l-243 -312h-291z" />
<glyph unicode="&#xea;" horiz-adv-x="1177" d="M51 514q0 158 74 283.5t198 193.5t273 68q109 0 205 -38.5t167 -107.5t113.5 -172.5t44.5 -226.5v-84h-753q20 -93 79 -146t142 -53q154 0 219 119l291 -59q-65 -160 -197 -241t-313 -81q-148 0 -271.5 67.5t-197.5 193t-74 284.5zM203 1149l235 317h326l237 -317h-317 l-82 115l-84 -115h-315zM379 631h424q-22 80 -77.5 121t-129.5 41q-72 0 -133.5 -43.5t-83.5 -118.5z" />
<glyph unicode="&#xeb;" horiz-adv-x="1177" d="M51 514q0 158 74 283.5t198 193.5t273 68q109 0 205 -38.5t167 -107.5t113.5 -172.5t44.5 -226.5v-84h-753q20 -93 79 -146t142 -53q154 0 219 119l291 -59q-65 -160 -197 -241t-313 -81q-148 0 -271.5 67.5t-197.5 193t-74 284.5zM184 1317q0 73 52.5 126.5t130.5 53.5 t131 -53.5t53 -126.5q0 -77 -52.5 -127.5t-131.5 -50.5t-131 50.5t-52 127.5zM379 631h424q-22 80 -77.5 121t-129.5 41q-72 0 -133.5 -43.5t-83.5 -118.5zM651 1317q0 73 52.5 126.5t130.5 53.5t131 -53.5t53 -126.5q0 -77 -52.5 -127.5t-131.5 -50.5t-131 50.5t-52 127.5z " />
<glyph unicode="&#xec;" horiz-adv-x="608" d="M-80 1473h389l146 -312h-291zM141 0v1028h326v-1028h-326z" />
<glyph unicode="&#xed;" horiz-adv-x="608" d="M141 0v1028h326v-1028h-326zM162 1161l145 312h389l-243 -312h-291z" />
<glyph unicode="&#xee;" horiz-adv-x="608" d="M-94 1149l235 317h326l238 -317h-318l-82 115l-84 -115h-315zM141 0v1028h326v-1028h-326z" />
<glyph unicode="&#xef;" horiz-adv-x="608" d="M-111 1317q0 73 52.5 126.5t130.5 53.5t131 -53.5t53 -126.5q0 -77 -52.5 -127.5t-131.5 -50.5t-131 50.5t-52 127.5zM141 0v1028h326v-1028h-326zM356 1317q0 73 52.5 126.5t130.5 53.5t131 -53.5t53 -126.5q0 -77 -52.5 -127.5t-131.5 -50.5t-131 50.5t-52 127.5z" />
<glyph unicode="&#xf0;" horiz-adv-x="1239" d="M51 514q0 241 146 393t370 152q60 0 121 -21q-49 57 -121 119l-272 -106l-74 178l154 59q-119 66 -266 123v64h495q28 -16 88 -62l211 84l74 -180l-127 -49q67 -73 123.5 -152.5t107 -175.5t79 -205t28.5 -217q0 -110 -33 -202.5t-88 -155.5t-128 -107t-152.5 -64 t-161.5 -20q-155 0 -285.5 67t-209.5 193t-79 285zM367 514q0 -114 75 -190t181 -76q112 0 178.5 81.5t66.5 188.5q0 112 -71.5 187t-175.5 75q-112 0 -183 -75t-71 -191z" />
<glyph unicode="&#xf1;" horiz-adv-x="1265" d="M119 0v1028h327v-98q123 129 316 129q180 0 289.5 -117.5t109.5 -310.5v-631h-325v561q0 90 -49.5 146.5t-127.5 56.5q-100 0 -156.5 -71t-56.5 -216v-477h-327zM283 1186q0 80 20 142t54.5 97.5t75 53.5t85.5 18q56 0 100 -19t79 -38t69 -19q53 0 63 74h199 q0 -159 -69 -237t-168 -78q-45 0 -82.5 11.5t-58.5 25t-49 25t-56 11.5q-54 0 -64 -67h-198z" />
<glyph unicode="&#xf2;" horiz-adv-x="1234" d="M51 514q0 119 45.5 221t123 171.5t181.5 109t220 39.5q114 0 216.5 -39.5t179.5 -109t122 -171.5t45 -221t-45 -221.5t-122 -172.5t-179.5 -109.5t-216.5 -39.5q-156 0 -285.5 67t-207 192t-77.5 284zM236 1473h389l145 -312h-291zM367 514q0 -118 75 -192t179 -74 q99 0 173 74.5t74 191.5q0 116 -74 191t-173 75q-103 0 -178.5 -75t-75.5 -191z" />
<glyph unicode="&#xf3;" horiz-adv-x="1234" d="M51 514q0 119 45.5 221t123 171.5t181.5 109t220 39.5q114 0 216.5 -39.5t179.5 -109t122 -171.5t45 -221t-45 -221.5t-122 -172.5t-179.5 -109.5t-216.5 -39.5q-156 0 -285.5 67t-207 192t-77.5 284zM367 514q0 -118 75 -192t179 -74q99 0 173 74.5t74 191.5 q0 116 -74 191t-173 75q-103 0 -178.5 -75t-75.5 -191zM477 1161l146 312h389l-244 -312h-291z" />
<glyph unicode="&#xf4;" horiz-adv-x="1234" d="M51 514q0 119 45.5 221t123 171.5t181.5 109t220 39.5q114 0 216.5 -39.5t179.5 -109t122 -171.5t45 -221t-45 -221.5t-122 -172.5t-179.5 -109.5t-216.5 -39.5q-156 0 -285.5 67t-207 192t-77.5 284zM221 1149l236 317h325l238 -317h-318l-81 115l-84 -115h-316z M367 514q0 -118 75 -192t179 -74q99 0 173 74.5t74 191.5q0 116 -74 191t-173 75q-103 0 -178.5 -75t-75.5 -191z" />
<glyph unicode="&#xf5;" horiz-adv-x="1234" d="M51 514q0 119 45.5 221t123 171.5t181.5 109t220 39.5q114 0 216.5 -39.5t179.5 -109t122 -171.5t45 -221t-45 -221.5t-122 -172.5t-179.5 -109.5t-216.5 -39.5q-156 0 -285.5 67t-207 192t-77.5 284zM262 1186q0 155 69.5 233t166.5 78q56 0 100 -19t78.5 -38t68.5 -19 q54 0 64 74h199q0 -82 -20 -144.5t-54.5 -98.5t-76 -54t-87.5 -18q-45 0 -82.5 11.5t-58.5 25t-49 25t-56 11.5q-53 0 -63 -67h-199zM367 514q0 -118 75 -192t179 -74q99 0 173 74.5t74 191.5q0 116 -74 191t-173 75q-103 0 -178.5 -75t-75.5 -191z" />
<glyph unicode="&#xf6;" horiz-adv-x="1234" d="M51 514q0 119 45.5 221t123 171.5t181.5 109t220 39.5q114 0 216.5 -39.5t179.5 -109t122 -171.5t45 -221t-45 -221.5t-122 -172.5t-179.5 -109.5t-216.5 -39.5q-156 0 -285.5 67t-207 192t-77.5 284zM205 1317q0 74 52 127t130 53t131 -53.5t53 -126.5 q0 -77 -52.5 -127.5t-131.5 -50.5t-130.5 50.5t-51.5 127.5zM367 514q0 -118 75 -192t179 -74q99 0 173 74.5t74 191.5q0 116 -74 191t-173 75q-103 0 -178.5 -75t-75.5 -191zM672 1317q0 74 52 127t130 53t131 -53.5t53 -126.5q0 -77 -52.5 -127.5t-131.5 -50.5 t-130.5 50.5t-51.5 127.5z" />
<glyph unicode="&#xf7;" horiz-adv-x="1173" d="M102 508v268h969v-268h-969zM406 268q0 69 50.5 120.5t125.5 51.5t125.5 -51.5t50.5 -120.5q0 -74 -50 -123t-126 -49t-126 49t-50 123zM406 1022q0 69 50.5 120.5t125.5 51.5t125.5 -51.5t50.5 -120.5q0 -74 -50 -123t-126 -49t-126 49t-50 123z" />
<glyph unicode="&#xf8;" horiz-adv-x="1234" d="M51 514q0 119 45.5 221t123 171.5t181.5 109t220 39.5q175 0 317 -90l104 104l132 -131l-99 -98q109 -138 109 -326q0 -119 -45 -221.5t-122 -172.5t-179.5 -109.5t-216.5 -39.5q-179 0 -324 90l-107 -106l-131 131l101 100q-109 141 -109 328zM367 514q0 -56 18 -102 l342 342q-48 26 -106 26q-103 0 -178.5 -75t-75.5 -191zM510 274q51 -26 111 -26q99 0 173 74.5t74 191.5q0 50 -16 100z" />
<glyph unicode="&#xf9;" horiz-adv-x="1265" d="M104 397v631h326v-561q0 -91 49 -147t127 -56q100 0 156.5 71t56.5 216v477h328v-1028h-328v98q-123 -129 -315 -129q-180 0 -290 117.5t-110 310.5zM244 1473h389l145 -312h-291z" />
<glyph unicode="&#xfa;" horiz-adv-x="1265" d="M104 397v631h326v-561q0 -91 49 -147t127 -56q100 0 156.5 71t56.5 216v477h328v-1028h-328v98q-123 -129 -315 -129q-180 0 -290 117.5t-110 310.5zM487 1161l146 312h389l-244 -312h-291z" />
<glyph unicode="&#xfb;" horiz-adv-x="1265" d="M104 397v631h326v-561q0 -91 49 -147t127 -56q100 0 156.5 71t56.5 216v477h328v-1028h-328v98q-123 -129 -315 -129q-180 0 -290 117.5t-110 310.5zM231 1149l236 317h326l237 -317h-317l-82 115l-84 -115h-316z" />
<glyph unicode="&#xfc;" horiz-adv-x="1265" d="M104 397v631h326v-561q0 -91 49 -147t127 -56q100 0 156.5 71t56.5 216v477h328v-1028h-328v98q-123 -129 -315 -129q-180 0 -290 117.5t-110 310.5zM213 1317q0 74 52 127t130 53t131.5 -53.5t53.5 -126.5q0 -76 -52.5 -127t-132.5 -51q-79 0 -130.5 50.5t-51.5 127.5z M680 1317q0 74 52 127t130 53t131.5 -53.5t53.5 -126.5q0 -76 -52.5 -127t-132.5 -51q-79 0 -130.5 50.5t-51.5 127.5z" />
<glyph unicode="&#xfd;" horiz-adv-x="1236" d="M14 1030h353l243 -600l260 600h353l-594 -1378h-355l166 383zM463 1163l145 312h389l-243 -312h-291z" />
<glyph unicode="&#xfe;" d="M119 -348v1823h327v-529q126 113 320 113q101 0 193 -40t160 -110.5t108.5 -173t40.5 -221.5q0 -159 -69 -284.5t-183 -193t-250 -67.5q-194 0 -320 113v-430h-327zM446 514q0 -117 74.5 -191.5t177.5 -74.5q108 0 178 73.5t70 192.5q0 118 -70 192t-178 74 q-103 0 -177.5 -75t-74.5 -191z" />
<glyph unicode="&#xff;" horiz-adv-x="1236" d="M14 1030h353l243 -600l260 600h353l-594 -1378h-355l166 383zM188 1319q0 73 52.5 126.5t130.5 53.5t131 -53.5t53 -126.5q0 -77 -52.5 -127.5t-131.5 -50.5t-131 50.5t-52 127.5zM655 1319q0 73 52.5 126.5t130.5 53.5t131 -53.5t53 -126.5q0 -77 -52.5 -127.5 t-131.5 -50.5t-131 50.5t-52 127.5z" />
<glyph unicode="&#x152;" horiz-adv-x="2107" d="M72 686q0 198 97.5 354t277 244t411.5 88h1151v-291h-725v-258h666v-274h-666v-258h731v-291h-1157q-232 0 -411.5 88t-277 244t-97.5 354zM410 686q0 -178 119 -286.5t329 -108.5h88v790h-88q-210 0 -329 -108.5t-119 -286.5z" />
<glyph unicode="&#x153;" horiz-adv-x="1994" d="M51 514q0 119 45.5 221t123 171.5t181.5 109t220 39.5t220 -40t181 -114q76 76 177 117t216 41q145 0 263.5 -65t190.5 -190.5t75 -289.5v-84h-754q20 -93 79.5 -146t143.5 -53q152 0 217 119l293 -59q-65 -159 -198 -240.5t-312 -81.5q-232 0 -391 156 q-77 -74 -181 -114t-220 -40q-156 0 -285.5 67t-207 192t-77.5 284zM367 514q0 -118 75 -192t179 -74q99 0 173 74.5t74 191.5q0 116 -74 191t-173 75q-103 0 -178.5 -75t-75.5 -191zM1196 631h424q-22 80 -77.5 121t-127.5 41q-73 0 -135 -43.5t-84 -118.5z" />
<glyph unicode="&#x178;" horiz-adv-x="1445" d="M14 1372h369l338 -602l334 602h377l-543 -942v-430h-344v426zM307 1661q0 74 52 127t130 53t131.5 -53.5t53.5 -126.5q0 -76 -52.5 -127t-132.5 -51q-79 0 -130.5 50.5t-51.5 127.5zM774 1661q0 74 52 127t130 53t131.5 -53.5t53.5 -126.5q0 -76 -52.5 -127t-132.5 -51 q-79 0 -130.5 50.5t-51.5 127.5z" />
<glyph unicode="&#x2c6;" horiz-adv-x="1228" d="M217 1149l236 317h325l238 -317h-318l-82 115l-84 -115h-315z" />
<glyph unicode="&#x2dc;" horiz-adv-x="1228" d="M258 1186q0 155 69.5 233t166.5 78q56 0 100 -19t78.5 -38t68.5 -19q54 0 64 74h199q0 -82 -20 -144.5t-54.5 -98.5t-76 -54t-87.5 -18q-45 0 -82.5 11.5t-58.5 25t-49 25t-56 11.5q-53 0 -63 -67h-199z" />
<glyph unicode="&#x2000;" horiz-adv-x="979" />
<glyph unicode="&#x2001;" horiz-adv-x="1958" />
<glyph unicode="&#x2002;" horiz-adv-x="979" />
<glyph unicode="&#x2003;" horiz-adv-x="1958" />
<glyph unicode="&#x2004;" horiz-adv-x="652" />
<glyph unicode="&#x2005;" horiz-adv-x="489" />
<glyph unicode="&#x2006;" horiz-adv-x="326" />
<glyph unicode="&#x2007;" horiz-adv-x="326" />
<glyph unicode="&#x2008;" horiz-adv-x="244" />
<glyph unicode="&#x2009;" horiz-adv-x="391" />
<glyph unicode="&#x200a;" horiz-adv-x="108" />
<glyph unicode="&#x2010;" horiz-adv-x="923" d="M123 399v277h678v-277h-678z" />
<glyph unicode="&#x2011;" horiz-adv-x="923" d="M123 399v277h678v-277h-678z" />
<glyph unicode="&#x2012;" horiz-adv-x="923" d="M123 399v277h678v-277h-678z" />
<glyph unicode="&#x2013;" horiz-adv-x="1269" d="M123 412v252h1024v-252h-1024z" />
<glyph unicode="&#x2014;" horiz-adv-x="2129" d="M123 412v252h1884v-252h-1884z" />
<glyph unicode="&#x2018;" horiz-adv-x="612" d="M66 782v9l235 581h248l-121 -590h-362z" />
<glyph unicode="&#x2019;" horiz-adv-x="612" d="M66 782l120 590h363v-8l-236 -582h-247z" />
<glyph unicode="&#x201a;" horiz-adv-x="612" d="M66 -270l120 589h363v-8l-236 -581h-247z" />
<glyph unicode="&#x201c;" horiz-adv-x="1050" d="M66 782v9l235 581h248l-121 -590h-362zM502 782v9l235 581h248l-121 -590h-362z" />
<glyph unicode="&#x201d;" horiz-adv-x="1050" d="M66 782l120 590h363v-8l-236 -582h-247zM502 782l121 590h362v-8l-235 -582h-248z" />
<glyph unicode="&#x201e;" horiz-adv-x="1050" d="M66 -270l120 589h363v-8l-236 -581h-247zM502 -270l121 589h362v-8l-235 -581h-248z" />
<glyph unicode="&#x2022;" horiz-adv-x="849" d="M66 532q0 144 102.5 249.5t255.5 105.5q154 0 257 -105.5t103 -249.5q0 -149 -102 -249.5t-258 -100.5q-155 0 -256.5 100.5t-101.5 249.5z" />
<glyph unicode="&#x2026;" horiz-adv-x="1638" d="M66 174q0 75 53 129.5t133 54.5t134 -54.5t54 -129.5q0 -78 -53.5 -131t-134.5 -53t-133.5 52.5t-52.5 131.5zM631 174q0 75 53.5 129.5t134.5 54.5q80 0 133.5 -54.5t53.5 -129.5q0 -79 -53 -131.5t-134 -52.5q-82 0 -135 52.5t-53 131.5zM1198 174q0 75 53 129.5 t133 54.5q81 0 135 -54.5t54 -129.5q0 -79 -53 -131.5t-136 -52.5q-81 0 -133.5 52.5t-52.5 131.5z" />
<glyph unicode="&#x202f;" horiz-adv-x="391" />
<glyph unicode="&#x2039;" horiz-adv-x="624" d="M51 537l215 364h307l-215 -364l215 -365h-307z" />
<glyph unicode="&#x203a;" horiz-adv-x="624" d="M51 172l215 365l-215 364h307l215 -364l-215 -365h-307z" />
<glyph unicode="&#x205f;" horiz-adv-x="489" />
<glyph unicode="&#x20ac;" horiz-adv-x="1558" d="M113 444v197h170v45v45h-170v195h198q58 222 212 349.5t372 127.5q228 0 386 -138.5t206 -369.5l-334 -64q-27 139 -95.5 208t-162.5 69q-79 0 -139.5 -47.5t-96.5 -134.5h365l-43 -195h-360l-3 -45q0 -24 3 -45h344l-43 -197h-263q35 -85 96.5 -131.5t139.5 -46.5 q93 0 161.5 68.5t102.5 212.5l328 -66q-45 -233 -204 -372.5t-388 -139.5q-218 0 -372 127.5t-212 347.5h-198z" />
<glyph unicode="&#x2122;" horiz-adv-x="1411" d="M72 1221v151h526v-151h-174v-416h-180v416h-172zM659 805v567h193l137 -307l137 307h191v-567h-168v272l-115 -270h-90l-115 270v-272h-170z" />
<glyph unicode="&#x25fc;" horiz-adv-x="1034" d="M0 0v1034h1034v-1034h-1034z" />
</font>
</defs>
</svg>
