<?xml version="1.0" standalone="no"?>
<!DOCTYPE svg PUBLIC "-//W3C//DTD SVG 1.1//EN" "http://www.w3.org/Graphics/SVG/1.1/DTD/svg11.dtd" >
<svg xmlns="http://www.w3.org/2000/svg">
<metadata></metadata>
<defs>
<font id="galano_grotesquemedium" horiz-adv-x="1626" >
<font-face units-per-em="2048" ascent="1638" descent="-410" />
<missing-glyph horiz-adv-x="505" />
<glyph unicode="&#xfb01;" horiz-adv-x="1294" d="M41 840v176h166v121q0 169 103 268.5t276 99.5q102 0 184 -43l-49 -172q-64 25 -121 25q-84 0 -132 -47t-48 -131v-121h698v-1016h-213v840h-485v-840h-213v840h-166zM874 1321q0 55 39.5 94t98.5 39q58 0 96.5 -39t38.5 -94q0 -57 -38 -94t-97 -37q-60 0 -99 37t-39 94z " />
<glyph unicode="&#xfb02;" horiz-adv-x="1277" d="M41 840v176h166v121q0 169 102.5 268.5t272.5 99.5q93 0 174 -37l-51 -174q-56 21 -109 21q-81 0 -128.5 -47t-47.5 -131v-121h338v-176h-338v-840h-213v840h-166zM903 0v1475h215v-1475h-215z" />
<glyph horiz-adv-x="0" />
<glyph horiz-adv-x="682" />
<glyph unicode=" "  horiz-adv-x="505" />
<glyph unicode="&#x09;" horiz-adv-x="505" />
<glyph unicode="&#xa0;" horiz-adv-x="505" />
<glyph unicode="!" horiz-adv-x="571" d="M152 123q0 53 38 91t95 38q58 0 96.5 -38t38.5 -91q0 -56 -38.5 -93.5t-96.5 -37.5t-95.5 37.5t-37.5 93.5zM170 1309v63h233v-63l-8 -881h-217z" />
<glyph unicode="&#x22;" horiz-adv-x="780" d="M109 782v590h215v-590h-215zM457 782v590h215v-590h-215z" />
<glyph unicode="#" horiz-adv-x="1404" d="M47 332l49 178h213l80 321h-217l47 179h215l90 362h191l-90 -362h323l90 362h189l-90 -362h219l-51 -179h-213l-80 -321h219l-49 -178h-215l-82 -332h-191l84 332h-323l-82 -332h-191l82 332h-217zM500 510h321l82 321h-323z" />
<glyph unicode="$" horiz-adv-x="1218" d="M98 432l217 43q7 -106 66.5 -170t150.5 -88v395l-73 17q-66 12 -121.5 36.5t-103.5 64t-75.5 101t-27.5 138.5q0 158 107 259t286 120v229h183v-234q168 -26 272.5 -130t116.5 -259l-213 -39q-3 95 -53.5 157t-129.5 87v-379l82 -16q330 -73 330 -350q0 -165 -111 -269 t-294 -122v-228h-183v236q-174 28 -293.5 133.5t-132.5 267.5zM352 981q0 -123 158 -160l22 -4v350q-83 -15 -131.5 -65t-48.5 -121zM700 209q94 13 149.5 67t55.5 130q0 67 -42 105.5t-134 57.5l-29 6v-366z" />
<glyph unicode="%" horiz-adv-x="1720" d="M92 1071q0 148 99.5 239t240.5 91t240.5 -91t99.5 -239q0 -144 -100 -236t-240 -92t-240 92t-100 236zM254 1073q0 -82 53 -132t125 -50t125 50t53 132q0 81 -53.5 130.5t-124.5 49.5t-124.5 -49.5t-53.5 -130.5zM270 0l1016 1372h146l-1016 -1372h-146zM948 301 q0 146 99.5 237t240.5 91t240.5 -91t99.5 -237q0 -145 -99.5 -237.5t-240.5 -92.5t-240.5 92.5t-99.5 237.5zM1110 301q0 -81 53.5 -130.5t124.5 -49.5t124.5 49.5t53.5 130.5t-53.5 131.5t-124.5 50.5t-124.5 -50.5t-53.5 -131.5z" />
<glyph unicode="&#x26;" horiz-adv-x="1445" d="M117 393q0 116 66.5 208.5t181.5 150.5q-107 130 -107 280q0 163 118 266t298 103q178 0 288 -101.5t132 -275.5l-201 -37q-19 234 -219 234q-93 0 -152 -51.5t-59 -141.5q0 -81 52 -152.5t187 -183.5l324 -278q33 91 33 194v99h190v-99q0 -181 -69 -325l219 -189 l-125 -143l-207 178q-172 -158 -424 -158q-237 0 -381.5 116t-144.5 306zM326 393q0 -109 87 -175t230 -66q161 0 277 104l-385 332l-43 37q-77 -39 -121.5 -100t-44.5 -132z" />
<glyph unicode="'" horiz-adv-x="432" d="M109 782v590h215v-590h-215z" />
<glyph unicode="(" horiz-adv-x="735" d="M98 686q0 500 391 856l150 -133q-172 -175 -241.5 -345t-69.5 -378q0 -207 69.5 -377t241.5 -346l-150 -131q-391 353 -391 854z" />
<glyph unicode=")" horiz-adv-x="735" d="M98 -37q172 177 242 346.5t70 376.5t-70 377.5t-242 345.5l150 133q391 -356 391 -856q0 -501 -391 -854z" />
<glyph unicode="*" horiz-adv-x="894" d="M80 969l233 135l-233 135l65 117l228 -131v250h149v-250l228 131l65 -117l-233 -135l233 -135l-65 -115l-228 131v-252h-149v252l-228 -131z" />
<glyph unicode="+" horiz-adv-x="1187" d="M133 530v189h367v373h188v-373h367v-189h-367v-372h-188v372h-367z" />
<glyph unicode="," horiz-adv-x="473" d="M27 -270l129 544h247v-6l-215 -538h-161z" />
<glyph unicode="-" horiz-adv-x="913" d="M123 430v184h668v-184h-668z" />
<glyph unicode="." horiz-adv-x="452" d="M92 123q0 53 38.5 91t96.5 38q57 0 95 -38t38 -91q0 -56 -37.5 -93.5t-95.5 -37.5t-96.5 37.5t-38.5 93.5z" />
<glyph unicode="/" horiz-adv-x="804" d="M18 -147l590 1665h178l-589 -1665h-179z" />
<glyph unicode="0" horiz-adv-x="1363" d="M102 686q0 320 160.5 517.5t419.5 197.5t419.5 -197.5t160.5 -517.5t-160.5 -517.5t-419.5 -197.5t-419.5 197.5t-160.5 517.5zM326 686q0 -229 97 -370.5t259 -141.5t259 141.5t97 370.5t-97 370.5t-259 141.5t-259 -141.5t-97 -370.5z" />
<glyph unicode="1" horiz-adv-x="743" d="M10 924v198l430 250h135v-1372h-213v1112z" />
<glyph unicode="2" horiz-adv-x="1062" d="M49 963q7 200 137 319t336 119q204 0 331.5 -117.5t127.5 -306.5q0 -96 -36.5 -181t-97.5 -158t-175 -181l-271 -258h592v-199h-927v141l475 459q40 37 52 48.5t45 45t45 50t34 48.5t30 56.5t15.5 57.5t7.5 67q0 105 -69.5 171t-180.5 66q-122 0 -192.5 -73.5 t-77.5 -214.5z" />
<glyph unicode="3" horiz-adv-x="1183" d="M98 412l207 41q14 -136 90.5 -212.5t206.5 -76.5q122 0 199.5 64.5t77.5 168.5q0 96 -67.5 150.5t-188.5 54.5h-195v191h182q114 0 179 51.5t65 142.5q0 100 -69.5 160.5t-184.5 60.5q-121 0 -196.5 -73t-84.5 -211l-202 41q15 195 146.5 315.5t336.5 120.5 q204 0 330.5 -114.5t126.5 -299.5q0 -103 -47 -179t-131 -112q94 -34 147 -111.5t53 -185.5q0 -192 -131.5 -310t-345.5 -118t-351.5 121.5t-152.5 319.5z" />
<glyph unicode="4" horiz-adv-x="1265" d="M57 303v205l672 864h287v-889h192v-180h-192v-303h-215v303h-744zM299 483h502v668z" />
<glyph unicode="5" horiz-adv-x="1161" d="M78 444l213 41q0 -153 81.5 -234t213.5 -81q125 0 201.5 70.5t76.5 187.5q0 109 -72.5 171.5t-193.5 62.5h-444l26 710h836v-198h-633l-14 -316h245q209 0 335 -114t126 -312q0 -204 -136 -332.5t-359 -128.5q-140 0 -252.5 53.5t-181 162.5t-68.5 257z" />
<glyph unicode="6" horiz-adv-x="1249" d="M102 657q0 400 187 590q151 154 373 154q169 0 289 -82t161 -232l-211 -40q-49 161 -248 161q-132 0 -223 -98q-128 -139 -121 -395q59 80 157.5 127t207.5 47q216 0 344.5 -126.5t128.5 -326.5q0 -203 -137 -334t-355 -131q-257 0 -405 181.5t-148 504.5zM373 434 q0 -116 81.5 -191t194.5 -75q118 0 198.5 77t80.5 193q0 117 -81 193t-198 76t-196.5 -78t-79.5 -195z" />
<glyph unicode="7" horiz-adv-x="1021" d="M39 1174v198h944v-155l-504 -1217h-241l505 1174h-704z" />
<glyph unicode="8" horiz-adv-x="1171" d="M74 367q0 111 71.5 200t204.5 131q-116 42 -175.5 129t-59.5 203q0 166 130 268.5t343 102.5q212 0 340.5 -102.5t128.5 -268.5q0 -113 -59.5 -201t-174.5 -131q132 -41 203.5 -131t71.5 -200q0 -175 -141 -285.5t-369 -110.5q-229 0 -371.5 110.5t-142.5 285.5zM317 377 q0 -103 75 -161t192 -58t195.5 59.5t78.5 163.5q0 100 -77 159.5t-195 59.5t-193.5 -60t-75.5 -163zM334 1012q0 -96 70 -151.5t180 -55.5q112 0 185 57.5t73 153.5q0 95 -74 151t-182 56q-109 0 -180.5 -56.5t-71.5 -154.5z" />
<glyph unicode="9" horiz-adv-x="1249" d="M102 936q0 203 137.5 334t356.5 131q256 0 403.5 -181t147.5 -505q0 -401 -184 -590q-151 -154 -373 -154q-170 0 -290.5 82t-162.5 232l211 41q51 -160 250 -160q132 0 221 96q128 142 121 397q-56 -81 -154 -127.5t-208 -46.5q-218 0 -347 126t-129 325zM322 934 q0 -116 80.5 -192t197.5 -76q119 0 198 77.5t79 194.5q0 116 -81 191t-196 75q-117 0 -197.5 -77t-80.5 -193z" />
<glyph unicode=":" horiz-adv-x="452" d="M92 123q0 53 38.5 91t96.5 38q57 0 95 -38t38 -91q0 -56 -37.5 -93.5t-95.5 -37.5t-96.5 37.5t-38.5 93.5zM92 840q0 53 38.5 91t96.5 38q57 0 95 -37.5t38 -91.5q0 -56 -37.5 -92.5t-95.5 -36.5t-96.5 36.5t-38.5 92.5z" />
<glyph unicode=";" horiz-adv-x="514" d="M27 -270l129 544h247v-6l-215 -538h-161zM154 840q0 54 38 91.5t95 37.5q58 0 96.5 -38t38.5 -91q0 -56 -38.5 -92.5t-96.5 -36.5t-95.5 36.5t-37.5 92.5z" />
<glyph unicode="&#x3c;" horiz-adv-x="907" d="M66 549v221l763 311v-227l-512 -192l512 -197v-223z" />
<glyph unicode="=" horiz-adv-x="1187" d="M133 365v186h922v-186h-922zM133 760v186h922v-186h-922z" />
<glyph unicode="&#x3e;" horiz-adv-x="907" d="M82 242v223l512 197l-512 192v227l764 -311v-221z" />
<glyph unicode="?" horiz-adv-x="1081" d="M68 971q9 181 145 305.5t344 124.5q209 0 337 -120.5t128 -315.5q0 -160 -108.5 -266.5t-286.5 -125.5v-135h-197v299h123q115 0 188.5 63.5t73.5 164.5q0 109 -71.5 177t-186.5 68q-120 0 -196.5 -76t-90.5 -202zM391 123q0 53 38.5 91t96.5 38t95.5 -38t37.5 -91 q0 -56 -37.5 -93.5t-95.5 -37.5t-96.5 37.5t-38.5 93.5z" />
<glyph unicode="@" horiz-adv-x="1947" d="M119 563q0 238 113 430t310.5 300t440.5 108q232 0 425.5 -99t308 -277.5t114.5 -399.5q0 -71 -11.5 -139t-39 -133.5t-68 -114.5t-103 -79t-139.5 -30q-92 0 -153 37.5t-86 103.5q-104 -135 -299 -135q-176 0 -294 117.5t-118 304.5q0 192 118.5 310t293.5 118 q176 0 285 -125v109h141v-592q0 -55 38 -88t95 -33q67 0 113.5 56.5t66 134.5t19.5 167q0 144 -55.5 268t-150.5 209.5t-225 134t-276 48.5q-205 0 -371 -92t-260 -254.5t-94 -362.5q0 -150 55.5 -282t150.5 -224.5t224.5 -146t272.5 -53.5q128 0 260 40t235 115l72 -112 q-105 -82 -258 -128t-305 -46q-231 0 -424 106t-307.5 298.5t-114.5 430.5zM686 559q0 -127 78.5 -203.5t187.5 -76.5t187 77t78 203t-78 202.5t-187 76.5q-110 0 -188 -76t-78 -203z" />
<glyph unicode="A" horiz-adv-x="1433" d="M10 0l604 1372h205l604 -1372h-237l-135 319h-668l-135 -319h-238zM469 520h496l-248 584z" />
<glyph unicode="B" horiz-adv-x="1359" d="M162 0v1372h653q187 0 297.5 -102t110.5 -269q0 -122 -66.5 -201.5t-150.5 -92.5v-9q107 -11 182.5 -97t75.5 -224q0 -172 -111.5 -274.5t-323.5 -102.5h-667zM381 188h426q109 0 170 57t61 152q0 93 -62 149t-163 56h-432v-414zM381 778h410q98 0 158.5 58t60.5 153 q0 87 -60.5 141t-156.5 54h-412v-406z" />
<glyph unicode="C" horiz-adv-x="1576" d="M98 686q0 196 95 360.5t259.5 259.5t360.5 95q244 0 426 -133t240 -359l-213 -61q-45 169 -166 257.5t-287 88.5q-136 0 -249.5 -66t-179 -183t-65.5 -259t65.5 -259t179 -183t249.5 -66q166 0 287 88.5t166 257.5l213 -45q-56 -238 -237.5 -373t-428.5 -135 q-197 0 -361 94.5t-259 259t-95 361.5z" />
<glyph unicode="D" horiz-adv-x="1495" d="M162 0v1372h479q172 0 315 -51t239.5 -142t150 -217.5t53.5 -275.5t-53.5 -275.5t-150 -217.5t-239.5 -142t-315 -51h-479zM381 199h260q247 0 392 135t145 352t-145 352.5t-392 135.5h-260v-975z" />
<glyph unicode="E" horiz-adv-x="1302" d="M162 0v1372h1020v-198h-801v-388h739v-196h-739v-391h803v-199h-1022z" />
<glyph unicode="F" horiz-adv-x="1214" d="M162 0v1372h1003v-198h-784v-408h709v-199h-709v-567h-219z" />
<glyph unicode="G" horiz-adv-x="1609" d="M98 686q0 197 94.5 361t259 259t361.5 95q226 0 403.5 -106.5t249.5 -299.5l-198 -69q-46 95 -120 156.5t-156 86.5t-179 25q-207 0 -349 -146.5t-142 -361.5q0 -142 66 -258.5t181 -183t256 -66.5q187 0 313.5 109.5t157.5 290.5h-544v200h755q4 -74 4 -94 q0 -200 -87 -362.5t-246 -256.5t-359 -94t-365.5 94.5t-260.5 258.5t-95 362z" />
<glyph unicode="H" horiz-adv-x="1503" d="M162 0v1372h219v-581h741v581h219v-1372h-219v590h-741v-590h-219z" />
<glyph unicode="I" horiz-adv-x="542" d="M162 0v1372h219v-1372h-219z" />
<glyph unicode="J" horiz-adv-x="1220" d="M39 418l209 43q18 -132 97.5 -211.5t207.5 -79.5q134 0 216.5 90.5t82.5 231.5v880h221v-880q0 -229 -144 -375t-376 -146q-211 0 -347 122t-167 325z" />
<glyph unicode="K" horiz-adv-x="1384" d="M162 0v1372h219v-594h59l600 594h273l-686 -688l731 -684h-297l-604 578h-76v-578h-219z" />
<glyph unicode="L" horiz-adv-x="1206" d="M162 0v1372h219v-1173h749v-199h-968z" />
<glyph unicode="M" horiz-adv-x="1826" d="M162 0v1372h192l559 -1038l562 1038h190v-1372h-213v907l-485 -907h-105l-487 907v-907h-213z" />
<glyph unicode="N" horiz-adv-x="1558" d="M162 0v1372h186l828 -1001v1001h221v-1372h-187l-829 985v-985h-219z" />
<glyph unicode="O" d="M98 684q0 197 94.5 361.5t259 260t361.5 95.5t362 -95.5t260 -260t95 -361.5q0 -196 -95 -359.5t-260 -258.5t-362 -95t-361.5 95t-259 258.5t-94.5 359.5zM319 684q0 -142 65.5 -258.5t179 -182t249.5 -65.5q210 0 353 145t143 361q0 143 -65.5 260t-179 183.5 t-251.5 66.5q-208 0 -351 -146.5t-143 -363.5z" />
<glyph unicode="P" horiz-adv-x="1347" d="M162 0v1372h618q225 0 359.5 -122t134.5 -320q0 -201 -134 -324t-360 -123h-399v-483h-219zM381 684h399q128 0 201.5 67.5t73.5 178.5q0 108 -74 176t-201 68h-399v-490z" />
<glyph unicode="Q" d="M98 684q0 197 94.5 361.5t259 260t361.5 95.5t362 -95.5t260 -260t95 -361.5q0 -164 -68.5 -307.5t-189.5 -243.5l262 -311l-170 -154l-297 348q-121 -45 -254 -45q-197 0 -361.5 95t-259 258.5t-94.5 359.5zM319 684q0 -142 65.5 -258.5t179 -182t249.5 -65.5 q210 0 353 145t143 361q0 143 -65.5 260t-179 183.5t-251.5 66.5q-208 0 -351 -146.5t-143 -363.5z" />
<glyph unicode="R" horiz-adv-x="1376" d="M162 0v1372h645q212 0 341.5 -114t129.5 -300q0 -176 -118 -287t-314 -122l495 -549h-272l-489 547h-199v-547h-219zM381 745h426q114 0 183 58.5t69 154.5q0 97 -69 156.5t-183 59.5h-426v-429z" />
<glyph unicode="S" horiz-adv-x="1298" d="M98 379l234 49q24 -129 118 -195.5t236 -66.5q135 0 212 58.5t77 154.5q0 77 -44.5 118.5t-148.5 63.5l-299 62q-346 79 -346 372q0 182 138 294t366 112q208 0 349.5 -104.5t178.5 -282.5l-219 -45q-19 109 -104.5 175t-208.5 66q-120 0 -194 -58.5t-74 -150.5 q0 -71 42 -112t132 -60l297 -63q163 -36 257.5 -128.5t94.5 -246.5q0 -192 -144 -306t-382 -114q-148 0 -268.5 45.5t-201.5 139.5t-98 223z" />
<glyph unicode="T" horiz-adv-x="1280" d="M47 1174v198h1186v-198h-483v-1174h-222v1174h-481z" />
<glyph unicode="U" horiz-adv-x="1466" d="M147 606v766h220v-766q0 -192 101.5 -308t270.5 -116q162 0 261.5 116.5t99.5 307.5v766h219v-766q0 -285 -159.5 -460t-420.5 -175q-267 0 -429.5 175t-162.5 460z" />
<glyph unicode="V" horiz-adv-x="1458" d="M29 1372h241l459 -1075l459 1075h244l-596 -1372h-211z" />
<glyph unicode="W" horiz-adv-x="1961" d="M29 1372h229l301 -1034l315 1034h211l316 -1034l301 1034h231l-411 -1372h-234l-307 1020l-309 -1020h-234z" />
<glyph unicode="X" horiz-adv-x="1325" d="M29 0l467 688l-463 684h268l363 -538l360 538h268l-465 -684l469 -688h-268l-364 545l-367 -545h-268z" />
<glyph unicode="Y" horiz-adv-x="1394" d="M29 1372h243l422 -688l420 688h252l-563 -913v-459h-219v455z" />
<glyph unicode="Z" horiz-adv-x="1280" d="M109 0v141l786 1043h-764v188h1045v-164l-756 -1020h766v-188h-1077z" />
<glyph unicode="[" horiz-adv-x="815" d="M162 -168v1686h557v-185h-350v-1317h350v-184h-557z" />
<glyph unicode="\" horiz-adv-x="804" d="M18 1518h179l589 -1665h-178z" />
<glyph unicode="]" horiz-adv-x="815" d="M98 16h351v1317h-351v185h555v-1686h-555v184z" />
<glyph unicode="^" horiz-adv-x="858" d="M47 909l307 463h152l307 -463h-190l-193 287l-194 -287h-189z" />
<glyph unicode="_" horiz-adv-x="1071" d="M41 -115h989v-178h-989v178z" />
<glyph unicode="`" horiz-adv-x="1228" d="M322 1452h249l150 -291h-184z" />
<glyph unicode="a" horiz-adv-x="1316" d="M70 508q0 117 41.5 218t110.5 170t160.5 108.5t190.5 39.5q230 0 369 -145v117h213v-1016h-213v117q-140 -146 -369 -146q-99 0 -190.5 39t-161 108t-110.5 170.5t-41 219.5zM276 508q0 -158 94.5 -253t237.5 -95q85 0 160.5 41t124.5 122.5t49 184.5q0 153 -100.5 250.5 t-233.5 97.5q-143 0 -237.5 -95.5t-94.5 -252.5z" />
<glyph unicode="b" horiz-adv-x="1320" d="M162 0v1475h213v-576q139 145 368 145q99 0 191 -39.5t161 -108.5t110.5 -170.5t41.5 -217.5q0 -118 -41.5 -219.5t-111 -170.5t-161 -108t-190.5 -39q-228 0 -368 146v-117h-213zM375 508q0 -103 49 -184.5t124.5 -122.5t160.5 -41q143 0 237 95t94 253 q0 157 -94.5 252.5t-236.5 95.5q-133 0 -233.5 -97.5t-100.5 -250.5z" />
<glyph unicode="c" horiz-adv-x="1181" d="M74 508q0 155 73.5 278.5t195.5 190.5t267 67q174 0 311.5 -97.5t184.5 -258.5l-205 -59q-28 108 -106.5 163.5t-184.5 55.5q-142 0 -234.5 -95t-92.5 -245q0 -153 92 -246.5t235 -93.5q106 0 184.5 53t114.5 160l197 -51q-41 -162 -179 -260.5t-317 -98.5 q-146 0 -267.5 66t-195 190t-73.5 281z" />
<glyph unicode="d" horiz-adv-x="1320" d="M74 508q0 116 41.5 217.5t111 170.5t161 108.5t190.5 39.5q226 0 368 -145v576h215v-1475h-215v115q-144 -144 -368 -144q-99 0 -190 39t-161 108t-111.5 171t-41.5 219zM283 508q0 -158 94 -253t235 -95q134 0 234 96.5t100 251.5q0 103 -48.5 184t-124 122.5 t-161.5 41.5q-141 0 -235 -95.5t-94 -252.5z" />
<glyph unicode="e" horiz-adv-x="1181" d="M74 506q0 119 42 220.5t113.5 170.5t167.5 108t203 39q135 0 249 -64t184 -182.5t75 -267.5v-73h-823q15 -137 103 -219t204 -82q97 0 173 38.5t126 137.5l190 -41q-62 -157 -189.5 -238.5t-299.5 -81.5q-138 0 -256 65.5t-190 189.5t-72 280zM291 608h598 q-24 121 -102.5 184.5t-186.5 63.5q-107 0 -196 -65.5t-113 -182.5z" />
<glyph unicode="f" horiz-adv-x="743" d="M41 840v176h166v121q0 169 102.5 268.5t272.5 99.5q93 0 174 -37l-51 -174q-56 21 -109 21q-81 0 -128.5 -47t-47.5 -131v-121h338v-176h-338v-840h-213v840h-166z" />
<glyph unicode="g" horiz-adv-x="1290" d="M74 553q0 137 70 250.5t183.5 176t243.5 62.5q230 0 351 -127v101h206v-926q0 -225 -142.5 -352t-383.5 -127q-180 0 -306.5 64t-189.5 180l175 129q60 -94 132.5 -137.5t188.5 -43.5q146 0 233 85.5t87 232.5v65q-121 -127 -351 -127q-129 0 -243 63.5t-184 178 t-70 252.5zM281 553q0 -137 93 -223t232 -86q129 0 222.5 87t93.5 222q0 137 -93.5 223t-222.5 86q-139 0 -232 -85.5t-93 -223.5z" />
<glyph unicode="h" horiz-adv-x="1271" d="M162 0v1475h213v-584q128 153 352 153q182 0 295 -119.5t113 -310.5v-614h-215v571q0 124 -66.5 200.5t-175.5 76.5q-141 0 -222 -96t-81 -283v-469h-213z" />
<glyph unicode="i" horiz-adv-x="567" d="M147 1321q0 55 39.5 94t98.5 39q58 0 96.5 -39t38.5 -94q0 -57 -38 -94t-97 -37q-60 0 -99 37t-39 94zM178 0v1016h213v-1016h-213z" />
<glyph unicode="j" horiz-adv-x="595" d="M-43 -332l41 187q57 -23 96 -23q51 0 83 28t32 74v1082h213v-1110q0 -123 -76.5 -199t-200.5 -76q-94 0 -188 37zM176 1321q0 55 38.5 94t96.5 39t98 -39t40 -94q0 -57 -39.5 -94t-98.5 -37t-97 37t-38 94z" />
<glyph unicode="k" horiz-adv-x="1200" d="M162 0v1475h213v-842h63l424 383h273l-533 -492l592 -524h-289l-469 422h-61v-422h-213z" />
<glyph unicode="l" horiz-adv-x="536" d="M162 0v1475h213v-1475h-213z" />
<glyph unicode="m" horiz-adv-x="1941" d="M162 0v1016h213v-115q118 143 325 143q110 0 199.5 -49t138.5 -137q133 186 379 186q162 0 273.5 -110.5t111.5 -286.5v-647h-211v604q0 111 -64.5 177.5t-164.5 66.5q-127 0 -201 -88.5t-74 -255.5v-504h-213v604q0 111 -64.5 177.5t-164.5 66.5q-126 0 -198 -88.5 t-72 -255.5v-504h-213z" />
<glyph unicode="n" horiz-adv-x="1269" d="M162 0v1016h213v-125q128 153 352 153q182 0 295 -119.5t113 -310.5v-614h-215v571q0 124 -66.5 200.5t-175.5 76.5q-141 0 -222 -96t-81 -283v-469h-213z" />
<glyph unicode="o" horiz-adv-x="1239" d="M74 508q0 154 74 276t198.5 188t274.5 66q149 0 272.5 -66t196.5 -188t73 -276q0 -116 -43 -216t-116 -169t-172.5 -108.5t-210.5 -39.5q-150 0 -274.5 66.5t-198.5 189.5t-74 277zM283 508q0 -154 100 -251t238 -97q136 0 235.5 97.5t99.5 250.5t-99.5 250.5 t-235.5 97.5q-138 0 -238 -97t-100 -251z" />
<glyph unicode="p" horiz-adv-x="1320" d="M162 -348v1364h213v-117q139 145 368 145q99 0 191 -39.5t161 -108.5t110.5 -170.5t41.5 -217.5q0 -118 -41.5 -219.5t-111 -170.5t-161 -108t-190.5 -39q-228 0 -368 146v-465h-213zM375 508q0 -103 49 -184.5t124.5 -122.5t160.5 -41q143 0 237 95t94 253 q0 157 -94.5 252.5t-236.5 95.5q-133 0 -233.5 -97.5t-100.5 -250.5z" />
<glyph unicode="q" horiz-adv-x="1320" d="M74 508q0 116 41.5 217.5t111 170.5t161 108.5t190.5 39.5q226 0 368 -145v117h215v-1364h-215v463q-144 -144 -368 -144q-99 0 -190 39t-161 108t-111.5 171t-41.5 219zM283 508q0 -158 94 -253t235 -95q134 0 234 96.5t100 251.5q0 103 -48.5 184t-124 122.5 t-161.5 41.5q-141 0 -235 -95.5t-94 -252.5z" />
<glyph unicode="r" horiz-adv-x="860" d="M162 0v1016h213v-217q65 107 162.5 168t224.5 61q45 0 72 -8l-15 -205q-16 2 -59 2q-189 0 -287 -122t-98 -337v-358h-213z" />
<glyph unicode="s" horiz-adv-x="1032" d="M76 272l213 45q10 -87 79 -129.5t175 -42.5q91 0 145.5 37.5t54.5 98.5q0 91 -137 120l-221 45q-133 30 -204.5 100.5t-71.5 176.5q0 142 110 231.5t291 89.5q171 0 285.5 -80.5t142.5 -211.5l-203 -43q-12 75 -73 120t-158 45q-89 0 -134.5 -37.5t-45.5 -95.5 q0 -44 28 -71.5t94 -42.5l242 -54q125 -27 194.5 -97.5t69.5 -176.5q0 -156 -116.5 -242t-311.5 -86q-117 0 -211.5 31.5t-159 101t-77.5 168.5z" />
<glyph unicode="t" horiz-adv-x="847" d="M0 840v176h219v315h213v-315h348v-176h-348v-480q0 -93 45 -140.5t123 -47.5q89 0 172 55l66 -178q-131 -78 -252 -78q-169 0 -268 95.5t-99 279.5v494h-219z" />
<glyph unicode="u" horiz-adv-x="1269" d="M137 403v613h213v-570q0 -125 67 -201.5t177 -76.5q141 0 221 96t80 283v469h213v-1016h-213v125q-129 -154 -350 -154q-184 0 -296 119.5t-112 312.5z" />
<glyph unicode="v" horiz-adv-x="1157" d="M29 1018h231l320 -764l319 764h231l-438 -1018h-227z" />
<glyph unicode="w" horiz-adv-x="1593" d="M29 1016h213l231 -707l240 707h168l239 -707l232 707h213l-340 -1020h-195l-233 684l-234 -684h-194z" />
<glyph unicode="x" horiz-adv-x="1196" d="M78 0l364 498l-364 520h254l266 -385l266 385h256l-364 -520l364 -498h-256l-266 367l-266 -367h-254z" />
<glyph unicode="y" horiz-adv-x="1173" d="M29 1018h237l318 -733l325 733h238l-608 -1366h-238l166 373z" />
<glyph unicode="z" horiz-adv-x="1054" d="M82 0v141l604 699h-588v176h850v-144l-604 -696h629v-176h-891z" />
<glyph unicode="{" horiz-adv-x="874" d="M68 594v160l53 16q160 34 160 152v333q0 119 76 191t202 72h217v-181h-192q-43 0 -70 -28t-27 -74v-338q0 -78 -36.5 -136.5t-100.5 -86.5q64 -27 100.5 -85.5t36.5 -137.5v-338q0 -44 27 -72.5t70 -28.5h192v-180h-217q-126 0 -202 71t-76 189v334q0 121 -160 152z" />
<glyph unicode="|" horiz-adv-x="528" d="M162 -147v1665h207v-1665h-207z" />
<glyph unicode="}" horiz-adv-x="874" d="M98 12h193q43 0 69.5 28.5t26.5 72.5v338q0 79 36.5 137.5t100.5 85.5q-64 28 -100.5 86.5t-36.5 136.5v338q0 46 -26.5 74t-69.5 28h-193v181h217q126 0 202.5 -72t76.5 -191v-333q0 -118 160 -152l53 -16v-160l-53 -16q-160 -31 -160 -152v-334q0 -118 -76.5 -189 t-202.5 -71h-217v180z" />
<glyph unicode="~" horiz-adv-x="999" d="M96 479q0 79 23 137t60.5 89t77.5 45t83 14q52 0 97 -16.5t72 -37t61 -37t67 -16.5q43 0 67 30t21 79h180q0 -65 -16.5 -117t-42.5 -84.5t-60 -53.5t-67.5 -29.5t-67.5 -8.5q-53 0 -98 16.5t-71 37t-58.5 37t-63.5 16.5q-48 0 -73.5 -28.5t-22.5 -72.5h-168z" />
<glyph unicode="&#xa1;" horiz-adv-x="571" d="M152 911q0 56 37.5 92.5t95.5 36.5t96.5 -36.5t38.5 -92.5q0 -53 -39 -92t-96 -39t-95 38.5t-38 92.5zM170 -276l8 882h217l8 -882v-64h-233v64z" />
<glyph unicode="&#xa2;" horiz-adv-x="1181" d="M74 508q0 205 123 349t311 177v256h180v-252q150 -21 263.5 -114t154.5 -236l-205 -59q-24 90 -82 143.5t-139 69.5v-668q170 33 229 207l197 -51q-36 -144 -150 -238t-268 -115v-243h-180v246q-189 35 -311.5 178t-122.5 350zM283 508q0 -125 63 -211.5t168 -116.5v656 q-104 -30 -167.5 -118.5t-63.5 -209.5z" />
<glyph unicode="&#xa3;" horiz-adv-x="1310" d="M98 0v135l174 43v344h-174v199h174v209q0 211 130.5 341t345.5 130q210 0 336.5 -128t138.5 -341l-207 -41q-10 145 -80 222t-188 77q-115 0 -185.5 -71.5t-70.5 -188.5v-209h413v-199h-413v-323h733v-199h-1127z" />
<glyph unicode="&#xa5;" horiz-adv-x="1388" d="M51 1372h244l395 -647l395 647h252l-448 -704h293v-164h-381v-129h381v-164h-381v-211h-219v211h-373v164h373v129h-373v164h285z" />
<glyph unicode="&#xa7;" horiz-adv-x="1095" d="M55 618q0 97 48 165.5t124 107.5q-65 76 -65 186q0 153 107.5 238.5t279.5 85.5q188 0 297.5 -99.5t114.5 -259.5l-191 -34q-3 110 -59.5 167.5t-151.5 57.5q-84 0 -137 -44t-53 -116q0 -49 29 -85t96 -64l282 -123q130 -54 189 -127t59 -182q0 -98 -47.5 -168 t-122.5 -107q64 -78 64 -186q0 -151 -109.5 -236.5t-280.5 -85.5q-198 0 -311 100.5t-111 266.5l185 35q6 -118 64.5 -177t162.5 -59q85 0 138 44.5t53 115.5q0 94 -123 151l-283 123q-132 55 -190 126.5t-58 182.5zM250 631q0 -52 30.5 -89t110.5 -75l287 -129l31 -14 q61 31 89.5 66t28.5 89q0 49 -31 87t-108 75l-289 131l-34 16q-115 -53 -115 -157z" />
<glyph unicode="&#xa8;" horiz-adv-x="1228" d="M268 1298q0 54 39 94t96 40t96.5 -40t39.5 -94q0 -57 -38.5 -94t-97.5 -37t-97 37t-38 94zM692 1298q0 54 39 94t96 40t96.5 -40t39.5 -94q0 -57 -38.5 -94t-97.5 -37t-97 37t-38 94z" />
<glyph unicode="&#xa9;" horiz-adv-x="1568" d="M63 682q0 153 57 288t154 229t228.5 148t277.5 54q193 0 356 -91.5t260 -257.5t97 -370q0 -202 -97 -366t-260 -254.5t-356 -90.5q-195 0 -359 90.5t-261 254.5t-97 366zM170 684q0 -175 82.5 -316.5t222 -219.5t305.5 -78q165 0 303.5 78t220.5 219.5t82 316.5 q0 176 -82 319t-220.5 222.5t-303.5 79.5q-166 0 -305.5 -79.5t-222 -222.5t-82.5 -319zM399 684q0 169 115.5 277t276.5 108q149 0 249 -78t119 -198l-143 -31q-20 77 -82 122.5t-143 45.5q-103 0 -170.5 -69t-67.5 -177q0 -107 67.5 -176.5t170.5 -69.5q83 0 146.5 47.5 t76.5 130.5l143 -24q-15 -129 -115.5 -211t-250.5 -82q-161 0 -276.5 108t-115.5 277z" />
<glyph unicode="&#xaa;" horiz-adv-x="794" d="M96 893q0 93 76.5 149t206.5 56h176v26q0 58 -35 93.5t-96 35.5q-59 0 -94.5 -27.5t-50.5 -86.5l-144 30q23 101 98 155t181 54q136 0 217.5 -66.5t81.5 -195.5v-418h-158v60q-80 -76 -215 -76q-110 0 -177 58t-67 153zM254 895q0 -44 32.5 -70t86.5 -26q80 0 131 43 t51 110v39h-162q-63 0 -101 -26t-38 -70z" />
<glyph unicode="&#xab;" horiz-adv-x="907" d="M51 537l240 364h213l-240 -364l240 -365h-213zM406 537l239 364h211l-240 -364l240 -365h-211z" />
<glyph unicode="&#xad;" horiz-adv-x="913" d="M123 430v184h668v-184h-668z" />
<glyph unicode="&#xae;" horiz-adv-x="1024" d="M102 989q0 178 119.5 295t290.5 117t290.5 -117t119.5 -295q0 -176 -119.5 -292.5t-290.5 -116.5t-290.5 116.5t-119.5 292.5zM174 989q0 -146 99 -244t239 -98q141 0 240.5 98t99.5 244q0 147 -99.5 245.5t-240.5 98.5q-140 0 -239 -98.5t-99 -245.5zM365 809v383h172 q69 0 111 -34t42 -91q0 -47 -28 -79.5t-76 -43.5l125 -135h-86l-119 129h-72v-129h-69zM434 999h103q37 0 59 18.5t22 47.5t-22 46t-59 17h-103v-129z" />
<glyph unicode="&#xaf;" horiz-adv-x="1228" d="M307 1184v174h617v-174h-617z" />
<glyph unicode="&#xb0;" horiz-adv-x="843" d="M127 1114q0 127 86.5 207t210.5 80q122 0 207.5 -80t85.5 -207q0 -126 -85.5 -206.5t-207.5 -80.5q-123 0 -210 80.5t-87 206.5zM274 1114q0 -67 45 -108t105 -41q59 0 102 41t43 108q0 68 -43.5 110t-101.5 42q-60 0 -105 -42t-45 -110z" />
<glyph unicode="&#xb1;" horiz-adv-x="1187" d="M133 0v186h922v-186h-922zM133 674v186h367v352h188v-352h367v-186h-367v-322h-188v322h-367z" />
<glyph unicode="&#xb4;" horiz-adv-x="1228" d="M483 1161l150 291h250l-217 -291h-183z" />
<glyph unicode="&#xb6;" horiz-adv-x="1183" d="M41 999q0 181 107.5 277t291.5 96h297v-1372h-166v612h-102q-186 0 -307 105.5t-121 281.5zM858 0v1372h166v-1372h-166z" />
<glyph unicode="&#xb7;" horiz-adv-x="452" d="M92 535q0 53 38.5 91t96.5 38q57 0 95 -38t38 -91q0 -56 -37.5 -92.5t-95.5 -36.5t-96.5 36.5t-38.5 92.5z" />
<glyph unicode="&#xb8;" horiz-adv-x="1228" d="M401 -338l201 338h160l-133 -338h-228z" />
<glyph unicode="&#xba;" horiz-adv-x="884" d="M84 1030q0 153 104.5 250.5t251.5 97.5q152 0 256.5 -97t104.5 -251t-104.5 -251t-256.5 -97q-147 0 -251.5 97.5t-104.5 250.5zM244 1030q0 -87 58.5 -146t137.5 -59q84 0 143.5 58.5t59.5 146.5t-59.5 146.5t-143.5 58.5q-79 0 -137.5 -59t-58.5 -146z" />
<glyph unicode="&#xbb;" horiz-adv-x="907" d="M51 172l240 365l-240 364h213l240 -364l-240 -365h-213zM406 172l239 365l-239 364h210l240 -364l-240 -365h-210z" />
<glyph unicode="&#xbc;" horiz-adv-x="1474" d="M45 1063v168l215 141h102v-768h-157v559zM147 0l1016 1372h146l-1016 -1372h-146zM758 156v143l370 467h183v-481h110v-129h-110v-158h-148v158h-405zM909 285h254v317z" />
<glyph unicode="&#xbd;" horiz-adv-x="1656" d="M45 1063v168l215 141h102v-768h-157v559zM131 0l1016 1372h145l-1016 -1372h-145zM1012 0v104l291 246q72 62 99.5 99t27.5 86q0 52 -35.5 84t-94.5 32q-65 0 -102.5 -42.5t-40.5 -116.5l-135 30q0 118 75.5 190t202.5 72q128 0 205.5 -66.5t77.5 -180.5 q0 -80 -45 -143.5t-137 -139.5l-139 -117h321v-137h-571z" />
<glyph unicode="&#xbe;" horiz-adv-x="1652" d="M55 852l133 33q4 -74 48.5 -115t115.5 -41q63 0 101.5 32t38.5 83q0 49 -37.5 76.5t-100.5 27.5h-78v113h68q60 0 98.5 26.5t38.5 71.5q0 47 -37 77t-96 30q-66 0 -105 -38t-42 -108l-138 33q7 110 84.5 175t198.5 65q122 0 200.5 -65.5t78.5 -164.5q0 -105 -105 -153 q119 -53 119 -170q0 -104 -80.5 -173t-208.5 -69q-125 0 -208 69t-87 185zM315 0l1016 1372h146l-1016 -1372h-146zM934 156v143l371 467h182v-481h110v-129h-110v-158h-148v158h-405zM1085 285h254v317z" />
<glyph unicode="&#xbf;" horiz-adv-x="1081" d="M59 70q0 159 108 265t288 126v135h196v-301h-121q-115 0 -189.5 -62.5t-74.5 -162.5q0 -110 71.5 -179t186.5 -69q121 0 197 76t90 204l205 -41q-9 -181 -146.5 -304.5t-345.5 -123.5q-209 0 -337 121t-128 316zM422 911q0 56 37.5 92.5t95.5 36.5t96.5 -36.5t38.5 -92.5 q0 -53 -39 -92t-96 -39t-95 38.5t-38 92.5z" />
<glyph unicode="&#xc0;" horiz-adv-x="1433" d="M10 0l604 1372h205l604 -1372h-237l-135 319h-668l-135 -319h-238zM408 1808h249l150 -290h-182zM469 520h496l-248 584z" />
<glyph unicode="&#xc1;" horiz-adv-x="1433" d="M10 0l604 1372h205l604 -1372h-237l-135 319h-668l-135 -319h-238zM469 520h496l-248 584zM635 1518l149 290h250l-217 -290h-182z" />
<glyph unicode="&#xc2;" horiz-adv-x="1433" d="M10 0l604 1372h205l604 -1372h-237l-135 319h-668l-135 -319h-238zM381 1501l235 297h203l238 -297h-215l-123 158l-125 -158h-213zM469 520h496l-248 584z" />
<glyph unicode="&#xc3;" horiz-adv-x="1433" d="M10 0l604 1372h205l604 -1372h-237l-135 319h-668l-135 -319h-238zM397 1563q0 66 18 114t48 74t63 37.5t70 11.5q43 0 80.5 -14t59.5 -30t52 -30t60 -14t47.5 25t17.5 63h144q0 -67 -17.5 -116.5t-47 -75t-62.5 -37.5t-70 -12q-45 0 -82.5 13.5t-59 29.5t-50 29.5 t-58.5 13.5q-31 0 -49 -23t-18 -59h-146zM469 520h496l-248 584z" />
<glyph unicode="&#xc4;" horiz-adv-x="1433" d="M10 0l604 1372h205l604 -1372h-237l-135 319h-668l-135 -319h-238zM371 1655q0 54 39 93.5t96 39.5t96 -39.5t39 -93.5q0 -57 -38 -94t-97 -37t-97 37t-38 94zM469 520h496l-248 584zM795 1655q0 54 39 93.5t96 39.5t96 -39.5t39 -93.5q0 -57 -38 -94t-97 -37t-97 37 t-38 94z" />
<glyph unicode="&#xc5;" horiz-adv-x="1433" d="M10 0l604 1372h205l604 -1372h-237l-135 319h-668l-135 -319h-238zM469 520h496l-248 584zM489 1698q0 92 66.5 156.5t161.5 64.5q96 0 161.5 -64t65.5 -157q0 -91 -65.5 -155t-161.5 -64q-95 0 -161.5 64t-66.5 155zM616 1698q0 -39 29.5 -67.5t71.5 -28.5t71 28.5 t29 67.5q0 40 -29 68t-71 28q-43 0 -72 -28t-29 -68z" />
<glyph unicode="&#xc6;" horiz-adv-x="2131" d="M10 0l953 1372h1079v-198h-801v-388h739v-196h-739v-391h803v-199h-1022v285h-565l-193 -285h-254zM590 483h432v641z" />
<glyph unicode="&#xc7;" horiz-adv-x="1576" d="M98 686q0 196 95 360.5t259.5 259.5t360.5 95q244 0 426 -133t240 -359l-213 -61q-45 169 -166 257.5t-287 88.5q-136 0 -249.5 -66t-179 -183t-65.5 -259t65.5 -259t179 -183t249.5 -66q166 0 287 88.5t166 257.5l213 -45q-53 -224 -217.5 -357.5t-391.5 -148.5 l-122 -311h-228l189 318q-173 24 -312 122t-219 251.5t-80 332.5z" />
<glyph unicode="&#xc8;" horiz-adv-x="1302" d="M162 0v1372h1020v-198h-801v-388h739v-196h-739v-391h803v-199h-1022zM385 1808h250l149 -290h-182z" />
<glyph unicode="&#xc9;" horiz-adv-x="1302" d="M162 0v1372h1020v-198h-801v-388h739v-196h-739v-391h803v-199h-1022zM614 1518l150 290h250l-217 -290h-183z" />
<glyph unicode="&#xca;" horiz-adv-x="1302" d="M162 0v1372h1020v-198h-801v-388h739v-196h-739v-391h803v-199h-1022zM360 1501l236 297h203l237 -297h-215l-123 158l-125 -158h-213z" />
<glyph unicode="&#xcb;" horiz-adv-x="1302" d="M162 0v1372h1020v-198h-801v-388h739v-196h-739v-391h803v-199h-1022zM350 1655q0 54 39 93.5t96 39.5t96.5 -39.5t39.5 -93.5q0 -57 -38.5 -94t-97.5 -37t-97 37t-38 94zM774 1655q0 54 39 93.5t96 39.5t96 -39.5t39 -93.5q0 -57 -38 -94t-97 -37t-97 37t-38 94z" />
<glyph unicode="&#xcc;" horiz-adv-x="542" d="M-39 1808h250l149 -290h-182zM162 0v1372h219v-1372h-219z" />
<glyph unicode="&#xcd;" horiz-adv-x="542" d="M162 0v1372h219v-1372h-219zM188 1518l150 290h250l-217 -290h-183z" />
<glyph unicode="&#xce;" horiz-adv-x="542" d="M-66 1501l236 297h203l237 -297h-215l-123 158l-125 -158h-213zM162 0v1372h219v-1372h-219z" />
<glyph unicode="&#xcf;" horiz-adv-x="542" d="M-76 1655q0 54 38.5 93.5t96.5 39.5q57 0 96.5 -39.5t39.5 -93.5q0 -57 -38.5 -94t-97.5 -37q-60 0 -97.5 37t-37.5 94zM162 0v1372h219v-1372h-219zM348 1655q0 54 39 93.5t96 39.5t96 -39.5t39 -93.5q0 -57 -38 -94t-97 -37t-97 37t-38 94z" />
<glyph unicode="&#xd0;" horiz-adv-x="1513" d="M61 590v201h140v581h479q172 0 315 -51t239.5 -142t150 -217.5t53.5 -275.5t-53.5 -275.5t-150 -217.5t-239.5 -142t-315 -51h-479v590h-140zM420 199h260q247 0 390.5 135t143.5 352t-143.5 352.5t-390.5 135.5h-260v-383h303v-201h-303v-391z" />
<glyph unicode="&#xd1;" horiz-adv-x="1558" d="M162 0v1372h186l828 -1001v1001h221v-1372h-187l-829 985v-985h-219zM471 1563q0 66 18 114t48 74t63 37.5t70 11.5q43 0 80.5 -14t59.5 -30t52 -30t60 -14t47.5 25t17.5 63h143q0 -54 -11.5 -97t-30.5 -69.5t-45.5 -43.5t-53 -24t-55.5 -7q-45 0 -82.5 13.5t-59 29.5 t-50 29.5t-58.5 13.5q-32 0 -50 -23t-18 -59h-145z" />
<glyph unicode="&#xd2;" d="M98 684q0 197 94.5 361.5t259 260t361.5 95.5t362 -95.5t260 -260t95 -361.5q0 -196 -95 -359.5t-260 -258.5t-362 -95t-361.5 95t-259 258.5t-94.5 359.5zM319 684q0 -142 65.5 -258.5t179 -182t249.5 -65.5q210 0 353 145t143 361q0 143 -65.5 260t-179 183.5 t-251.5 66.5q-208 0 -351 -146.5t-143 -363.5zM504 1808h250l149 -290h-182z" />
<glyph unicode="&#xd3;" d="M98 684q0 197 94.5 361.5t259 260t361.5 95.5t362 -95.5t260 -260t95 -361.5q0 -196 -95 -359.5t-260 -258.5t-362 -95t-361.5 95t-259 258.5t-94.5 359.5zM319 684q0 -142 65.5 -258.5t179 -182t249.5 -65.5q210 0 353 145t143 361q0 143 -65.5 260t-179 183.5 t-251.5 66.5q-208 0 -351 -146.5t-143 -363.5zM731 1518l150 290h249l-217 -290h-182z" />
<glyph unicode="&#xd4;" d="M98 684q0 197 94.5 361.5t259 260t361.5 95.5t362 -95.5t260 -260t95 -361.5q0 -196 -95 -359.5t-260 -258.5t-362 -95t-361.5 95t-259 258.5t-94.5 359.5zM319 684q0 -142 65.5 -258.5t179 -182t249.5 -65.5q210 0 353 145t143 361q0 143 -65.5 260t-179 183.5 t-251.5 66.5q-208 0 -351 -146.5t-143 -363.5zM477 1501l236 297h202l238 -297h-215l-123 158l-125 -158h-213z" />
<glyph unicode="&#xd5;" d="M98 684q0 197 94.5 361.5t259 260t361.5 95.5t362 -95.5t260 -260t95 -361.5q0 -196 -95 -359.5t-260 -258.5t-362 -95t-361.5 95t-259 258.5t-94.5 359.5zM319 684q0 -142 65.5 -258.5t179 -182t249.5 -65.5q210 0 353 145t143 361q0 143 -65.5 260t-179 183.5 t-251.5 66.5q-208 0 -351 -146.5t-143 -363.5zM494 1563q0 66 18 114t48 74t62.5 37.5t69.5 11.5q43 0 80.5 -14t59.5 -30t52 -30t60 -14t48 25t18 63h143q0 -67 -17.5 -116.5t-47 -75t-62.5 -37.5t-70 -12q-45 0 -82.5 13.5t-58.5 29.5t-49.5 29.5t-58.5 13.5 q-32 0 -50 -23t-18 -59h-145z" />
<glyph unicode="&#xd6;" d="M98 684q0 197 94.5 361.5t259 260t361.5 95.5t362 -95.5t260 -260t95 -361.5q0 -196 -95 -359.5t-260 -258.5t-362 -95t-361.5 95t-259 258.5t-94.5 359.5zM319 684q0 -142 65.5 -258.5t179 -182t249.5 -65.5q210 0 353 145t143 361q0 143 -65.5 260t-179 183.5 t-251.5 66.5q-208 0 -351 -146.5t-143 -363.5zM467 1655q0 54 39 93.5t96 39.5t96 -39.5t39 -93.5q0 -57 -38 -94t-97 -37t-97 37t-38 94zM891 1655q0 54 39 93.5t96 39.5t96 -39.5t39 -93.5q0 -57 -38 -94t-97 -37t-97 37t-38 94z" />
<glyph unicode="&#xd7;" horiz-adv-x="1060" d="M113 344l282 281l-282 282l135 135l282 -282l283 282l135 -135l-282 -282l282 -281l-135 -137l-283 282l-282 -282z" />
<glyph unicode="&#xd8;" d="M98 684q0 197 94.5 361.5t259 260t361.5 95.5q252 0 449 -154l118 119l127 -127l-121 -121q144 -194 144 -434q0 -196 -95 -359.5t-260 -258.5t-362 -95q-242 0 -430 142l-137 -138l-127 129l133 134q-154 197 -154 446zM319 684q0 -158 87 -293l704 705q-132 98 -297 98 q-208 0 -351 -146.5t-143 -363.5zM532 264q125 -86 281 -86q210 0 353 145t143 361q0 155 -78 279z" />
<glyph unicode="&#xd9;" horiz-adv-x="1466" d="M147 606v766h220v-766q0 -192 101.5 -308t270.5 -116q162 0 261.5 116.5t99.5 307.5v766h219v-766q0 -285 -159.5 -460t-420.5 -175q-267 0 -429.5 175t-162.5 460zM422 1808h250l149 -290h-182z" />
<glyph unicode="&#xda;" horiz-adv-x="1466" d="M147 606v766h220v-766q0 -192 101.5 -308t270.5 -116q162 0 261.5 116.5t99.5 307.5v766h219v-766q0 -285 -159.5 -460t-420.5 -175q-267 0 -429.5 175t-162.5 460zM651 1518l150 290h250l-217 -290h-183z" />
<glyph unicode="&#xdb;" horiz-adv-x="1466" d="M147 606v766h220v-766q0 -192 101.5 -308t270.5 -116q162 0 261.5 116.5t99.5 307.5v766h219v-766q0 -285 -159.5 -460t-420.5 -175q-267 0 -429.5 175t-162.5 460zM397 1501l236 297h203l237 -297h-215l-123 158l-125 -158h-213z" />
<glyph unicode="&#xdc;" horiz-adv-x="1466" d="M147 606v766h220v-766q0 -192 101.5 -308t270.5 -116q162 0 261.5 116.5t99.5 307.5v766h219v-766q0 -285 -159.5 -460t-420.5 -175q-267 0 -429.5 175t-162.5 460zM387 1655q0 54 39 93.5t96 39.5t96 -39.5t39 -93.5q0 -57 -38 -94t-97 -37t-97 37t-38 94zM811 1655 q0 54 39 93.5t96 39.5t96 -39.5t39 -93.5q0 -57 -38 -94t-97 -37t-97 37t-38 94z" />
<glyph unicode="&#xdd;" horiz-adv-x="1394" d="M29 1372h243l422 -688l420 688h252l-563 -913v-459h-219v455zM614 1518l150 290h250l-217 -290h-183z" />
<glyph unicode="&#xde;" horiz-adv-x="1308" d="M162 0v1372h219v-235h367q218 0 351.5 -125t133.5 -326q0 -200 -134 -325t-351 -125h-367v-236h-219zM381 436h356q124 0 200.5 69.5t76.5 180.5q0 113 -76.5 182.5t-200.5 69.5h-356v-502z" />
<glyph unicode="&#xdf;" horiz-adv-x="1345" d="M162 0v971q0 241 146 389.5t384 148.5q213 0 345 -116t132 -293q0 -109 -47 -191.5t-133 -120.5q130 -36 203.5 -132t73.5 -242q0 -185 -123.5 -306.5t-325.5 -121.5q-156 0 -305 45l29 176q141 -41 260 -41q126 0 204 73t78 175q0 128 -97 198t-269 70h-88v176h57 q128 0 204.5 60.5t76.5 158.5q0 111 -75.5 178.5t-199.5 67.5q-143 0 -230 -91t-87 -247v-985h-213z" />
<glyph unicode="&#xe0;" horiz-adv-x="1316" d="M70 508q0 117 41.5 218t110.5 170t160.5 108.5t190.5 39.5q230 0 369 -145v117h213v-1016h-213v117q-140 -146 -369 -146q-99 0 -190.5 39t-161 108t-110.5 170.5t-41 219.5zM276 508q0 -158 94.5 -253t237.5 -95q85 0 160.5 41t124.5 122.5t49 184.5q0 153 -100.5 250.5 t-233.5 97.5q-143 0 -237.5 -95.5t-94.5 -252.5zM326 1452h249l150 -291h-182z" />
<glyph unicode="&#xe1;" horiz-adv-x="1316" d="M70 508q0 117 41.5 218t110.5 170t160.5 108.5t190.5 39.5q230 0 369 -145v117h213v-1016h-213v117q-140 -146 -369 -146q-99 0 -190.5 39t-161 108t-110.5 170.5t-41 219.5zM276 508q0 -158 94.5 -253t237.5 -95q85 0 160.5 41t124.5 122.5t49 184.5q0 153 -100.5 250.5 t-233.5 97.5q-143 0 -237.5 -95.5t-94.5 -252.5zM553 1161l149 291h250l-217 -291h-182z" />
<glyph unicode="&#xe2;" horiz-adv-x="1316" d="M70 508q0 117 41.5 218t110.5 170t160.5 108.5t190.5 39.5q230 0 369 -145v117h213v-1016h-213v117q-140 -146 -369 -146q-99 0 -190.5 39t-161 108t-110.5 170.5t-41 219.5zM276 508q0 -158 94.5 -253t237.5 -95q85 0 160.5 41t124.5 122.5t49 184.5q0 153 -100.5 250.5 t-233.5 97.5q-143 0 -237.5 -95.5t-94.5 -252.5zM299 1145l236 297h202l238 -297h-215l-123 158l-125 -158h-213z" />
<glyph unicode="&#xe3;" horiz-adv-x="1316" d="M70 508q0 117 41.5 218t110.5 170t160.5 108.5t190.5 39.5q230 0 369 -145v117h213v-1016h-213v117q-140 -146 -369 -146q-99 0 -190.5 39t-161 108t-110.5 170.5t-41 219.5zM276 508q0 -158 94.5 -253t237.5 -95q85 0 160.5 41t124.5 122.5t49 184.5q0 153 -100.5 250.5 t-233.5 97.5q-143 0 -237.5 -95.5t-94.5 -252.5zM315 1206q0 66 18 114.5t48 74t63.5 37.5t69.5 12q43 0 80.5 -14t59.5 -30t52 -30t60 -14t47.5 25t17.5 63h144q0 -67 -17.5 -116.5t-47 -75.5t-62.5 -38t-70 -12q-45 0 -82.5 13.5t-59 29.5t-50 29.5t-58.5 13.5 q-31 0 -49 -23t-18 -59h-146z" />
<glyph unicode="&#xe4;" horiz-adv-x="1316" d="M70 508q0 117 41.5 218t110.5 170t160.5 108.5t190.5 39.5q230 0 369 -145v117h213v-1016h-213v117q-140 -146 -369 -146q-99 0 -190.5 39t-161 108t-110.5 170.5t-41 219.5zM276 508q0 -158 94.5 -253t237.5 -95q85 0 160.5 41t124.5 122.5t49 184.5q0 153 -100.5 250.5 t-233.5 97.5q-143 0 -237.5 -95.5t-94.5 -252.5zM289 1298q0 54 39 94t96 40t96 -40t39 -94q0 -57 -38 -94t-97 -37t-97 37t-38 94zM713 1298q0 54 39 94t96 40t96 -40t39 -94q0 -57 -38 -94t-97 -37t-97 37t-38 94z" />
<glyph unicode="&#xe5;" horiz-adv-x="1316" d="M70 508q0 117 41.5 218t110.5 170t160.5 108.5t190.5 39.5q230 0 369 -145v117h213v-1016h-213v117q-140 -146 -369 -146q-99 0 -190.5 39t-161 108t-110.5 170.5t-41 219.5zM276 508q0 -158 94.5 -253t237.5 -95q85 0 160.5 41t124.5 122.5t49 184.5q0 153 -100.5 250.5 t-233.5 97.5q-143 0 -237.5 -95.5t-94.5 -252.5zM408 1339q0 92 66 157t161 65q96 0 161.5 -64.5t65.5 -157.5q0 -91 -65.5 -155t-161.5 -64q-95 0 -161 64t-66 155zM535 1339q0 -39 29 -67.5t71 -28.5t71 28.5t29 67.5q0 40 -29 68.5t-71 28.5t-71 -28.5t-29 -68.5z" />
<glyph unicode="&#xe6;" horiz-adv-x="1871" d="M74 289q0 140 107.5 220.5t295.5 80.5h322v61q0 97 -63.5 155t-168.5 58q-100 0 -163.5 -48t-75.5 -134l-195 43q18 141 135.5 230t302.5 89q116 0 208 -41.5t149 -119.5q68 77 162.5 119t203.5 42q104 0 196 -39.5t160 -108.5t107.5 -169.5t40.5 -216.5v-74h-803 q22 -132 104 -206t206 -74q49 0 98 14.5t99.5 56t78.5 103.5l191 -41q-40 -140 -172.5 -229t-299.5 -89q-133 0 -237.5 53.5t-173.5 151.5q-64 -92 -177 -148.5t-251 -56.5q-186 0 -286.5 90t-100.5 228zM279 295q0 -68 55 -110t151 -42q125 0 219.5 79.5t94.5 191.5v22 h-322q-95 0 -146.5 -37.5t-51.5 -103.5zM995 590h588q-21 130 -97.5 201t-182.5 71q-116 0 -203.5 -72t-104.5 -200z" />
<glyph unicode="&#xe7;" horiz-adv-x="1181" d="M74 508q0 155 73.5 278.5t195.5 190.5t267 67q174 0 311.5 -97.5t184.5 -258.5l-205 -59q-28 108 -106.5 163.5t-184.5 55.5q-142 0 -234.5 -95t-92.5 -245q0 -153 92 -246.5t235 -93.5q106 0 184.5 53t114.5 160l197 -51q-36 -144 -150.5 -239t-269.5 -116l-123 -313 h-227l188 315q-194 30 -322 175t-128 356z" />
<glyph unicode="&#xe8;" horiz-adv-x="1181" d="M74 506q0 119 42 220.5t113.5 170.5t167.5 108t203 39q135 0 249 -64t184 -182.5t75 -267.5v-73h-823q15 -137 103 -219t204 -82q97 0 173 38.5t126 137.5l190 -41q-62 -157 -189.5 -238.5t-299.5 -81.5q-138 0 -256 65.5t-190 189.5t-72 280zM291 608h598 q-24 121 -102.5 184.5t-186.5 63.5q-107 0 -196 -65.5t-113 -182.5zM291 1452h250l149 -291h-182z" />
<glyph unicode="&#xe9;" horiz-adv-x="1181" d="M74 506q0 119 42 220.5t113.5 170.5t167.5 108t203 39q135 0 249 -64t184 -182.5t75 -267.5v-73h-823q15 -137 103 -219t204 -82q97 0 173 38.5t126 137.5l190 -41q-62 -157 -189.5 -238.5t-299.5 -81.5q-138 0 -256 65.5t-190 189.5t-72 280zM291 608h598 q-24 121 -102.5 184.5t-186.5 63.5q-107 0 -196 -65.5t-113 -182.5zM520 1161l150 291h250l-218 -291h-182z" />
<glyph unicode="&#xea;" horiz-adv-x="1181" d="M74 506q0 119 42 220.5t113.5 170.5t167.5 108t203 39q135 0 249 -64t184 -182.5t75 -267.5v-73h-823q15 -137 103 -219t204 -82q97 0 173 38.5t126 137.5l190 -41q-62 -157 -189.5 -238.5t-299.5 -81.5q-138 0 -256 65.5t-190 189.5t-72 280zM266 1145l236 297h203 l237 -297h-215l-123 158l-125 -158h-213zM291 608h598q-24 121 -102.5 184.5t-186.5 63.5q-107 0 -196 -65.5t-113 -182.5z" />
<glyph unicode="&#xeb;" horiz-adv-x="1181" d="M74 506q0 119 42 220.5t113.5 170.5t167.5 108t203 39q135 0 249 -64t184 -182.5t75 -267.5v-73h-823q15 -137 103 -219t204 -82q97 0 173 38.5t126 137.5l190 -41q-62 -157 -189.5 -238.5t-299.5 -81.5q-138 0 -256 65.5t-190 189.5t-72 280zM256 1298q0 54 39 94t96 40 t96 -40t39 -94q0 -57 -38 -94t-97 -37t-97 37t-38 94zM291 608h598q-24 121 -102.5 184.5t-186.5 63.5q-107 0 -196 -65.5t-113 -182.5zM680 1298q0 54 39 94t96 40t96 -40t39 -94q0 -57 -38 -94t-97 -37t-97 37t-38 94z" />
<glyph unicode="&#xec;" horiz-adv-x="587" d="M-16 1452h249l150 -291h-182zM188 0v1016h213v-1016h-213z" />
<glyph unicode="&#xed;" horiz-adv-x="587" d="M188 0v1016h213v-1016h-213zM213 1161l149 291h250l-217 -291h-182z" />
<glyph unicode="&#xee;" horiz-adv-x="587" d="M-41 1145l236 297h202l238 -297h-215l-123 158l-125 -158h-213zM188 0v1016h213v-1016h-213z" />
<glyph unicode="&#xef;" horiz-adv-x="587" d="M-51 1298q0 54 39 94t96 40t96 -40t39 -94q0 -57 -38 -94t-97 -37t-97 37t-38 94zM188 0v1016h213v-1016h-213zM373 1298q0 54 39 94t96 40t96 -40t39 -94q0 -57 -38 -94t-97 -37t-97 37t-38 94z" />
<glyph unicode="&#xf0;" horiz-adv-x="1241" d="M74 508q0 235 146.5 385.5t367.5 150.5q105 0 192 -49q-79 113 -172 191l-276 -117l-62 148l187 79q-125 77 -283 136v43h340q84 -45 148 -93l221 95l61 -152l-143 -59q161 -158 262.5 -354.5t101.5 -397.5q0 -104 -30 -193t-82 -152.5t-121 -108.5t-146.5 -67 t-158.5 -22q-149 0 -274.5 66t-202 190t-76.5 281zM283 508q0 -152 101 -250t241 -98q63 0 118 21t93 56t65 81t40 95.5t13 100.5q0 146 -98 244t-233 98q-146 0 -243 -97t-97 -251z" />
<glyph unicode="&#xf1;" horiz-adv-x="1269" d="M162 0v1016h213v-125q128 153 352 153q182 0 295 -119.5t113 -310.5v-614h-215v571q0 124 -66.5 200.5t-175.5 76.5q-141 0 -222 -96t-81 -283v-469h-213zM328 1206q0 66 18 114.5t48 74t63 37.5t69 12q43 0 80.5 -14t59.5 -30t52 -30t60 -14t48 25t18 63h143 q0 -67 -17 -116.5t-46.5 -75.5t-62.5 -38t-70 -12q-45 0 -82.5 13.5t-59 29.5t-50 29.5t-58.5 13.5q-32 0 -50 -23t-18 -59h-145z" />
<glyph unicode="&#xf2;" horiz-adv-x="1239" d="M74 508q0 154 74 276t198.5 188t274.5 66q149 0 272.5 -66t196.5 -188t73 -276q0 -116 -43 -216t-116 -169t-172.5 -108.5t-210.5 -39.5q-150 0 -274.5 66.5t-198.5 189.5t-74 277zM283 508q0 -154 100 -251t238 -97q136 0 235.5 97.5t99.5 250.5t-99.5 250.5 t-235.5 97.5q-138 0 -238 -97t-100 -251zM309 1458h250l150 -291h-183z" />
<glyph unicode="&#xf3;" horiz-adv-x="1239" d="M74 508q0 154 74 276t198.5 188t274.5 66q149 0 272.5 -66t196.5 -188t73 -276q0 -116 -43 -216t-116 -169t-172.5 -108.5t-210.5 -39.5q-150 0 -274.5 66.5t-198.5 189.5t-74 277zM283 508q0 -154 100 -251t238 -97q136 0 235.5 97.5t99.5 250.5t-99.5 250.5 t-235.5 97.5q-138 0 -238 -97t-100 -251zM539 1167l149 291h250l-217 -291h-182z" />
<glyph unicode="&#xf4;" horiz-adv-x="1239" d="M74 508q0 154 74 276t198.5 188t274.5 66q149 0 272.5 -66t196.5 -188t73 -276q0 -116 -43 -216t-116 -169t-172.5 -108.5t-210.5 -39.5q-150 0 -274.5 66.5t-198.5 189.5t-74 277zM283 508q0 -154 100 -251t238 -97q136 0 235.5 97.5t99.5 250.5t-99.5 250.5 t-235.5 97.5q-138 0 -238 -97t-100 -251zM285 1151l235 297h203l238 -297h-216l-122 158l-125 -158h-213z" />
<glyph unicode="&#xf5;" horiz-adv-x="1239" d="M74 508q0 154 74 276t198.5 188t274.5 66q149 0 272.5 -66t196.5 -188t73 -276q0 -116 -43 -216t-116 -169t-172.5 -108.5t-210.5 -39.5q-150 0 -274.5 66.5t-198.5 189.5t-74 277zM283 508q0 -154 100 -251t238 -97q136 0 235.5 97.5t99.5 250.5t-99.5 250.5 t-235.5 97.5q-138 0 -238 -97t-100 -251zM301 1210q0 66 18 114.5t48 74t63.5 37.5t69.5 12q43 0 80.5 -14t59.5 -30t52 -30t60 -14t47.5 25t17.5 63h144q0 -67 -17.5 -116.5t-47 -75.5t-62.5 -38t-70 -12q-45 0 -82.5 13.5t-59 29.5t-50 29.5t-58.5 13.5q-32 0 -50 -23 t-18 -59h-145z" />
<glyph unicode="&#xf6;" horiz-adv-x="1239" d="M74 508q0 154 74 276t198.5 188t274.5 66q149 0 272.5 -66t196.5 -188t73 -276q0 -116 -43 -216t-116 -169t-172.5 -108.5t-210.5 -39.5q-150 0 -274.5 66.5t-198.5 189.5t-74 277zM274 1305q0 54 39.5 93.5t96.5 39.5t96 -39.5t39 -93.5q0 -57 -38 -94t-97 -37t-97.5 37 t-38.5 94zM283 508q0 -154 100 -251t238 -97q136 0 235.5 97.5t99.5 250.5t-99.5 250.5t-235.5 97.5q-138 0 -238 -97t-100 -251zM698 1305q0 54 39.5 93.5t96.5 39.5t96 -39.5t39 -93.5q0 -57 -38 -94t-97 -37t-97.5 37t-38.5 94z" />
<glyph unicode="&#xf7;" horiz-adv-x="1187" d="M133 530v189h922v-189h-922zM453 262q0 54 38 92.5t95 38.5q58 0 96.5 -38.5t38.5 -92.5q0 -56 -38.5 -92.5t-96.5 -36.5t-95.5 36.5t-37.5 92.5zM453 987q0 54 38 92.5t95 38.5q58 0 96.5 -39t38.5 -92q0 -54 -38.5 -91.5t-96.5 -37.5t-95.5 37t-37.5 92z" />
<glyph unicode="&#xf8;" horiz-adv-x="1234" d="M74 508q0 154 74 276t198.5 188t274.5 66q183 0 323 -98l107 107l106 -107l-102 -102q108 -140 108 -330q0 -116 -43 -216t-116 -169t-172.5 -108.5t-210.5 -39.5q-181 0 -328 101l-107 -107l-106 107l104 104q-110 135 -110 328zM283 508q0 -105 47 -182l475 475 q-86 55 -184 55q-138 0 -238 -97t-100 -251zM432 215q86 -55 189 -55q136 0 235.5 97.5t99.5 250.5q0 100 -49 184z" />
<glyph unicode="&#xf9;" horiz-adv-x="1269" d="M137 403v613h213v-570q0 -125 67 -201.5t177 -76.5q141 0 221 96t80 283v469h213v-1016h-213v125q-129 -154 -350 -154q-184 0 -296 119.5t-112 312.5zM315 1452h250l150 -291h-183z" />
<glyph unicode="&#xfa;" horiz-adv-x="1269" d="M137 403v613h213v-570q0 -125 67 -201.5t177 -76.5q141 0 221 96t80 283v469h213v-1016h-213v125q-129 -154 -350 -154q-184 0 -296 119.5t-112 312.5zM545 1161l149 291h250l-217 -291h-182z" />
<glyph unicode="&#xfb;" horiz-adv-x="1269" d="M137 403v613h213v-570q0 -125 67 -201.5t177 -76.5q141 0 221 96t80 283v469h213v-1016h-213v125q-129 -154 -350 -154q-184 0 -296 119.5t-112 312.5zM291 1145l235 297h203l238 -297h-215l-123 158l-125 -158h-213z" />
<glyph unicode="&#xfc;" horiz-adv-x="1269" d="M137 403v613h213v-570q0 -125 67 -201.5t177 -76.5q141 0 221 96t80 283v469h213v-1016h-213v125q-129 -154 -350 -154q-184 0 -296 119.5t-112 312.5zM281 1298q0 54 39 94t96 40t96 -40t39 -94q0 -57 -38 -94t-97 -37t-97 37t-38 94zM705 1298q0 54 39 94t96 40t96 -40 t39 -94q0 -57 -38 -94t-97 -37t-97 37t-38 94z" />
<glyph unicode="&#xfd;" horiz-adv-x="1173" d="M29 1018h237l318 -733l325 733h238l-608 -1366h-238l166 373zM494 1165l149 291h250l-217 -291h-182z" />
<glyph unicode="&#xfe;" horiz-adv-x="1320" d="M162 -348v1823h213v-576q139 145 368 145q99 0 191 -39.5t161 -108.5t110.5 -170.5t41.5 -217.5q0 -118 -41.5 -219.5t-111 -170.5t-161 -108t-190.5 -39q-228 0 -368 146v-465h-213zM375 508q0 -103 49 -184.5t124.5 -122.5t160.5 -41q143 0 237 95t94 253 q0 157 -94.5 252.5t-236.5 95.5q-133 0 -233.5 -97.5t-100.5 -250.5z" />
<glyph unicode="&#xff;" horiz-adv-x="1173" d="M29 1018h237l318 -733l325 733h238l-608 -1366h-238l166 373zM229 1303q0 54 39.5 93.5t96.5 39.5t96 -39.5t39 -93.5q0 -57 -38.5 -94.5t-96.5 -37.5q-59 0 -97.5 37.5t-38.5 94.5zM653 1303q0 54 39 93.5t96 39.5t96.5 -39.5t39.5 -93.5q0 -57 -38.5 -94.5t-97.5 -37.5 q-58 0 -96.5 37.5t-38.5 94.5z" />
<glyph unicode="&#x152;" horiz-adv-x="2125" d="M98 686q0 148 56.5 274.5t158 217.5t250.5 142.5t326 51.5h1116v-198h-799v-388h740v-196h-740v-391h803v-199h-1120q-177 0 -326 51.5t-250.5 142t-158 217t-56.5 275.5zM319 686q0 -220 153 -353.5t417 -133.5h96v975h-96q-264 0 -417 -134t-153 -354z" />
<glyph unicode="&#x153;" horiz-adv-x="2064" d="M74 508q0 154 74 276t198.5 188t274.5 66q133 0 247.5 -54.5t188.5 -152.5q72 101 183.5 157t242.5 56q135 0 249 -64t184 -182.5t75 -267.5v-73h-824q15 -137 103 -219t205 -82q97 0 173 38.5t126 137.5l190 -41q-62 -157 -189.5 -238.5t-299.5 -81.5q-126 0 -236 55.5 t-182 155.5q-74 -97 -188.5 -152t-247.5 -55q-150 0 -274.5 66.5t-198.5 189.5t-74 277zM283 508q0 -154 100 -251t238 -97q136 0 235.5 97.5t99.5 250.5t-99.5 250.5t-235.5 97.5q-138 0 -238 -97t-100 -251zM1174 608h598q-24 121 -102.5 184.5t-186.5 63.5 q-107 0 -196 -65.5t-113 -182.5z" />
<glyph unicode="&#x178;" horiz-adv-x="1394" d="M29 1372h243l422 -688l420 688h252l-563 -913v-459h-219v455zM350 1655q0 54 39 93.5t96 39.5t96.5 -39.5t39.5 -93.5q0 -57 -38.5 -94t-97.5 -37t-97 37t-38 94zM774 1655q0 54 39 93.5t96 39.5t96 -39.5t39 -93.5q0 -57 -38 -94t-97 -37t-97 37t-38 94z" />
<glyph unicode="&#x2c6;" horiz-adv-x="1228" d="M279 1145l235 297h203l237 -297h-215l-123 158l-124 -158h-213z" />
<glyph unicode="&#x2dc;" horiz-adv-x="1228" d="M295 1206q0 66 18 114.5t48 74t63.5 37.5t69.5 12q43 0 80.5 -14t59 -30t51.5 -30t60 -14t48 25t18 63h143q0 -67 -17 -116.5t-46.5 -75.5t-62.5 -38t-70 -12q-45 0 -82.5 13.5t-59 29.5t-50 29.5t-58.5 13.5q-32 0 -50 -23t-18 -59h-145z" />
<glyph unicode="&#x2000;" horiz-adv-x="959" />
<glyph unicode="&#x2001;" horiz-adv-x="1919" />
<glyph unicode="&#x2002;" horiz-adv-x="959" />
<glyph unicode="&#x2003;" horiz-adv-x="1919" />
<glyph unicode="&#x2004;" horiz-adv-x="639" />
<glyph unicode="&#x2005;" horiz-adv-x="479" />
<glyph unicode="&#x2006;" horiz-adv-x="319" />
<glyph unicode="&#x2007;" horiz-adv-x="319" />
<glyph unicode="&#x2008;" horiz-adv-x="239" />
<glyph unicode="&#x2009;" horiz-adv-x="383" />
<glyph unicode="&#x200a;" horiz-adv-x="106" />
<glyph unicode="&#x2010;" horiz-adv-x="913" d="M123 430v184h668v-184h-668z" />
<glyph unicode="&#x2011;" horiz-adv-x="913" d="M123 430v184h668v-184h-668z" />
<glyph unicode="&#x2012;" horiz-adv-x="913" d="M123 430v184h668v-184h-668z" />
<glyph unicode="&#x2013;" horiz-adv-x="1269" d="M123 440v164h1024v-164h-1024z" />
<glyph unicode="&#x2014;" horiz-adv-x="2129" d="M123 440v164h1884v-164h-1884z" />
<glyph unicode="&#x2018;" horiz-adv-x="544" d="M84 829v5l215 538h162l-129 -543h-248z" />
<glyph unicode="&#x2019;" horiz-adv-x="544" d="M84 829l129 543h248v-6l-213 -537h-164z" />
<glyph unicode="&#x201a;" horiz-adv-x="544" d="M84 -270l129 544h248v-6l-213 -538h-164z" />
<glyph unicode="&#x201c;" horiz-adv-x="909" d="M84 829v5l215 538h162l-129 -543h-248zM446 829v5l216 538h161l-129 -543h-248z" />
<glyph unicode="&#x201d;" horiz-adv-x="909" d="M84 829l129 543h248v-6l-213 -537h-164zM449 829l129 543h247v-6l-215 -537h-161z" />
<glyph unicode="&#x201e;" horiz-adv-x="909" d="M84 -270l129 544h248v-6l-213 -538h-164zM449 -270l129 544h247v-6l-215 -538h-161z" />
<glyph unicode="&#x2022;" horiz-adv-x="839" d="M92 535q0 128 94.5 222.5t233.5 94.5t233.5 -94.5t94.5 -222.5q0 -135 -93.5 -225.5t-234.5 -90.5t-234.5 90.5t-93.5 225.5z" />
<glyph unicode="&#x2026;" horiz-adv-x="1456" d="M92 123q0 53 38.5 91t96.5 38q57 0 95 -38t38 -91q0 -56 -37.5 -93.5t-95.5 -37.5t-96.5 37.5t-38.5 93.5zM594 123q0 53 38.5 91t96.5 38q57 0 95 -38t38 -91q0 -56 -37.5 -93.5t-95.5 -37.5t-96.5 37.5t-38.5 93.5zM1096 123q0 53 38.5 91t96.5 38q57 0 95 -38t38 -91 q0 -56 -37.5 -93.5t-95.5 -37.5t-96.5 37.5t-38.5 93.5z" />
<glyph unicode="&#x202f;" horiz-adv-x="383" />
<glyph unicode="&#x2039;" horiz-adv-x="555" d="M51 537l240 364h213l-240 -364l240 -365h-213z" />
<glyph unicode="&#x203a;" horiz-adv-x="555" d="M51 172l240 365l-240 364h213l240 -364l-240 -365h-213z" />
<glyph unicode="&#x205f;" horiz-adv-x="479" />
<glyph unicode="&#x20ac;" horiz-adv-x="1607" d="M162 457v157h207q-2 23 -2 72q0 46 2 66h-207v155h227q51 228 201 361t362 133q208 0 356 -128.5t203 -348.5l-223 -45q-34 155 -124.5 236t-211.5 81q-119 0 -206.5 -77t-127.5 -212h480l-37 -155h-469q-2 -20 -2 -66q0 -49 2 -72h434l-37 -157h-366q40 -131 126 -205 t203 -74q120 0 209.5 80t132.5 238l217 -47q-55 -220 -203 -349t-356 -129q-210 0 -359 130.5t-202 355.5h-229z" />
<glyph unicode="&#x2122;" horiz-adv-x="1349" d="M74 1266v106h489v-106h-182v-445h-127v445h-180zM641 821v551h137l170 -350l170 350h135v-551h-118v326l-150 -324h-76l-149 324v-326h-119z" />
<glyph unicode="&#x25fc;" horiz-adv-x="1013" d="M0 0v1014h1014v-1014h-1014z" />
</font>
</defs>
</svg>
